<svg xmlns="http://www.w3.org/2000/svg" viewBox="0 0 291.95 156.23"><defs><style>.cls-1{fill:#bb4d00;}.cls-2{fill:#f57c00;}.cls-3{fill:#fff;}.cls-4{fill:#395e7c;}.cls-5{fill:#537ca5;}</style></defs><title>Recurso 20svg</title><g id="Capa_2" data-name="Capa 2"><g id="Layer_1" data-name="Layer 1"><path class="cls-1" d="M1,1.34l4-1,5.69,6L4.42,10.5.21,3.64A1.61,1.61,0,0,1,1,1.34Z"/><path class="cls-1" d="M2.38,4H9.84l213.87-.3c3.82,0,6.94,3.68,6.94,8.24l0,22.85c0,4.56-3.08,8.25-6.94,8.25l-206.93.26c-3.82,0-6.94-3.69-6.94-8.24V19.26L3.34,8.67,1.6,5.86A1.17,1.17,0,0,1,2.38,4Z"/><path class="cls-2" d="M5,.3h7.46L226.31,0c3.82,0,6.94,3.77,6.94,8.41l.05,23.38c0,4.64-3.08,8.42-6.94,8.42l-206.93.26c-3.82,0-6.94-3.78-6.94-8.42V15.92L4.2,2.21A1.21,1.21,0,0,1,5,.3Z"/><path class="cls-3" d="M183.16,29.67l.39-3.91h4v.91h-3.17l-.21,2.13a2.61,2.61,0,0,1,1.3-.35,2.16,2.16,0,0,1,1.69.7,2.86,2.86,0,0,1,.65,1.9,2.68,2.68,0,0,1-.65,1.91,2.31,2.31,0,0,1-1.82.7,2.41,2.41,0,0,1-1.69-.57,2.21,2.21,0,0,1-.74-1.6h.95a1.51,1.51,0,0,0,.48,1,1.59,1.59,0,0,0,1,.34,1.34,1.34,0,0,0,1.08-.47,2,2,0,0,0,.39-1.31,1.7,1.7,0,0,0-.43-1.25,1.48,1.48,0,0,0-1.13-.48,1.43,1.43,0,0,0-1,.3l-.26.22Z"/><path class="cls-3" d="M188.93,28.32a.71.71,0,0,1,.13-.43c.08-.13.26-.17.48-.17a.58.58,0,0,1,.47.17.75.75,0,0,1,.18.43.57.57,0,0,1-.18.44.53.53,0,0,1-.47.17.59.59,0,0,1-.48-.17A.72.72,0,0,1,188.93,28.32Zm0,4.73a.6.6,0,0,1,.65-.61.6.6,0,0,1,.48.18.82.82,0,0,1,.17.43.6.6,0,0,1-.65.61.6.6,0,0,1-.48-.18A.55.55,0,0,1,188.93,33.05Z"/><path class="cls-3" d="M194.78,33.57h-1V27l-2,.74V26.8l2.82-1.08h.17Z"/><path class="cls-3" d="M202.37,27.8a1.7,1.7,0,0,1-.3,1,2.22,2.22,0,0,1-.82.7,2.09,2.09,0,0,1,.95.78,2,2,0,0,1,.35,1.13,1.92,1.92,0,0,1-.7,1.6,2.59,2.59,0,0,1-1.78.61,2.81,2.81,0,0,1-1.82-.61,2.12,2.12,0,0,1-.69-1.6,2,2,0,0,1,.35-1.13,2,2,0,0,1,1-.78,2.08,2.08,0,0,1-.82-.7,1.7,1.7,0,0,1-.31-1,2,2,0,0,1,.65-1.56,2.33,2.33,0,0,1,1.65-.56,2.24,2.24,0,0,1,1.65.56A1.69,1.69,0,0,1,202.37,27.8Zm-.78,3.6a1.44,1.44,0,0,0-.43-1.08,1.38,1.38,0,0,0-1.09-.39,1.35,1.35,0,0,0-1.47,1.47,1.4,1.4,0,0,0,.39,1,1.7,1.7,0,0,0,2.17,0A1.17,1.17,0,0,0,201.59,31.4Zm-1.52-4.94a1.45,1.45,0,0,0-.95.34,1.29,1.29,0,0,0-.35,1,1.36,1.36,0,0,0,.35,1,1.18,1.18,0,0,0,.95.34,1.48,1.48,0,0,0,1-.34,1.43,1.43,0,0,0,.35-1,1.19,1.19,0,0,0-.39-.95A1.14,1.14,0,0,0,200.07,26.46Z"/><path class="cls-3" d="M207.84,30.49v3h-1V25.72h2.86a2.86,2.86,0,0,1,2,.65,2.25,2.25,0,0,1,.73,1.74,2.12,2.12,0,0,1-.69,1.73,3.18,3.18,0,0,1-2,.61Zm0-.87h1.86a1.81,1.81,0,0,0,1.26-.39,1.41,1.41,0,0,0,.43-1.12A1.48,1.48,0,0,0,211,27a1.78,1.78,0,0,0-1.21-.44h-1.91Z"/><path class="cls-3" d="M215,25.72l2.56,6.38,2.56-6.38h1.34v7.81h-1v-3l.09-3.3L218,33.53h-.78l-2.56-6.29.08,3.25v3h-1V25.72Z"/><path class="cls-3" d="M34.48,9.33V20.17H33.22l-6.51-8.11v8.11H25.15V9.33h1.26l6.51,8.11V9.33Z"/><path class="cls-3" d="M36.78,16.05a4.27,4.27,0,0,1,8.54,0,4.27,4.27,0,0,1-8.54,0Zm7,0A2.68,2.68,0,0,0,41,13.19a2.71,2.71,0,0,0-2.78,2.86A2.75,2.75,0,0,0,41,19,2.69,2.69,0,0,0,43.8,16.05Z"/><path class="cls-3" d="M61,15.44v4.73H59.55V15.61c0-1.6-.78-2.38-2.13-2.38S55,14.18,55,16v4.25H53.48V15.66c0-1.61-.79-2.39-2.13-2.39s-2.47,1-2.47,2.73v4.25H47.4V12.06h1.43v1.21A3.41,3.41,0,0,1,51.65,12a3.06,3.06,0,0,1,2.87,1.52A3.73,3.73,0,0,1,57.68,12C59.63,11.88,61,13,61,15.44Z"/><path class="cls-3" d="M72.26,16.05a4,4,0,0,1-4.17,4.2,3.59,3.59,0,0,1-3-1.38v1.3H63.71V8.67h1.48v4.52a3.51,3.51,0,0,1,2.86-1.31A4,4,0,0,1,72.26,16.05Zm-1.48,0a2.78,2.78,0,1,0-5.55,0A2.74,2.74,0,0,0,68,19,2.71,2.71,0,0,0,70.78,16.05Z"/><path class="cls-3" d="M78.76,11.88v1.44h-.35a2.46,2.46,0,0,0-2.6,2.77v4.08H74.34V12h1.43v1.39A3,3,0,0,1,78.76,11.88Z"/><path class="cls-3" d="M87.91,16.57H81.23a2.78,2.78,0,0,0,3,2.38,3.17,3.17,0,0,0,2.38-1l.83.95a4.49,4.49,0,0,1-7.68-2.86,4.1,4.1,0,1,1,8.2.08A1.21,1.21,0,0,0,87.91,16.57Zm-6.68-1.09h5.3a2.59,2.59,0,0,0-2.65-2.34A2.55,2.55,0,0,0,81.23,15.48Z"/><path class="cls-3" d="M101.92,8.67v11.5h-1.43v-1.3a3.51,3.51,0,0,1-2.95,1.38,4,4,0,0,1-4.16-4.2,4,4,0,0,1,4.16-4.17,3.51,3.51,0,0,1,2.86,1.31V8.67Zm-1.47,7.38a2.78,2.78,0,1,0-5.55,0,2.78,2.78,0,1,0,5.55,0Z"/><path class="cls-3" d="M112.12,16.57h-6.68a2.76,2.76,0,0,0,3,2.38,3.15,3.15,0,0,0,2.38-1l.83.95A4.49,4.49,0,0,1,104,16.05a4.1,4.1,0,1,1,8.2.08C112.16,16.22,112.12,16.44,112.12,16.57Zm-6.68-1.09h5.29a2.66,2.66,0,0,0-5.29,0Z"/><path class="cls-3" d="M117.62,16.05A4.11,4.11,0,0,1,122,11.88a3.67,3.67,0,0,1,3.34,1.74l-1.13.74A2.49,2.49,0,0,0,122,13.19a2.72,2.72,0,0,0-2.82,2.86A2.73,2.73,0,0,0,122,19a2.55,2.55,0,0,0,2.21-1.17l1.13.7A3.71,3.71,0,0,1,122,20.25,4.11,4.11,0,0,1,117.62,16.05Z"/><path class="cls-3" d="M133.76,15.22v5h-1.43V19.08a3.05,3.05,0,0,1-2.69,1.17c-1.87,0-3-1-3-2.42s.87-2.39,3.3-2.39h2.34v-.3c0-1.26-.74-2-2.21-2a4.25,4.25,0,0,0-2.6.87l-.61-1.13a5.44,5.44,0,0,1,3.38-1C132.46,11.88,133.76,13,133.76,15.22Zm-1.52,2.43V16.52h-2.3c-1.47,0-1.91.57-1.91,1.26s.7,1.35,1.82,1.35A2.37,2.37,0,0,0,132.24,17.65Z"/><path class="cls-3" d="M150.15,15.44v4.73h-1.47V15.61c0-1.6-.78-2.38-2.13-2.38s-2.47.95-2.47,2.73v4.25h-1.47V15.66c0-1.61-.78-2.39-2.13-2.39S138,14.23,138,16v4.25h-1.48V12.06H138v1.21a3.37,3.37,0,0,1,2.81-1.3,3.06,3.06,0,0,1,2.87,1.52A3.74,3.74,0,0,1,146.81,12C148.76,11.88,150.15,13,150.15,15.44Z"/><path class="cls-3" d="M161.39,16.05a4,4,0,0,1-4.17,4.2,3.43,3.43,0,0,1-2.86-1.34v4.25h-1.47V11.93h1.43v1.3a3.52,3.52,0,0,1,3-1.39A4,4,0,0,1,161.39,16.05Zm-1.48,0a2.78,2.78,0,1,0-5.55,0,2.74,2.74,0,0,0,2.78,2.9A2.71,2.71,0,0,0,159.91,16.05Z"/><path class="cls-3" d="M169.89,15.22v5h-1.43V19.08a3.07,3.07,0,0,1-2.69,1.17c-1.87,0-3-1-3-2.42s.87-2.39,3.3-2.39h2.34v-.3c0-1.26-.74-2-2.21-2a4.3,4.3,0,0,0-2.61.87l-.6-1.13a5.44,5.44,0,0,1,3.38-1C168.63,11.88,169.89,13,169.89,15.22Zm-1.48,2.43V16.52h-2.3c-1.47,0-1.9.57-1.9,1.26s.69,1.35,1.82,1.35A2.4,2.4,0,0,0,168.41,17.65Z"/><path class="cls-3" d="M180.43,15.44v4.73H179V15.61c0-1.6-.82-2.38-2.21-2.38a2.45,2.45,0,0,0-2.6,2.73v4.25h-1.48V12h1.43v1.26A3.55,3.55,0,0,1,177,12C179,11.88,180.43,13,180.43,15.44Zm-5.64-4.81H174c0-1.13.61-1.91,1.52-1.91s1.48,1,2.08,1a.81.81,0,0,0,.78-.91h.83c0,1.08-.61,1.86-1.52,1.86s-1.47-1-2.08-1C175.14,9.67,174.83,10,174.79,10.63Z"/><path class="cls-3" d="M189.71,15.22v5h-1.43V19.08a3.05,3.05,0,0,1-2.69,1.17c-1.87,0-3-1-3-2.42s.87-2.39,3.3-2.39h2.34v-.3c0-1.26-.74-2-2.21-2a4.25,4.25,0,0,0-2.6.87l-.61-1.13a5.44,5.44,0,0,1,3.38-1C188.45,11.88,189.71,13,189.71,15.22Zm-1.48,2.43V16.52h-2.29c-1.48,0-1.91.57-1.91,1.26s.69,1.35,1.82,1.35A2.4,2.4,0,0,0,188.23,17.65Z"/><path class="cls-1" d="M1,114.29l4-1,5.69,6-6.25,4.17L.21,116.59A1.63,1.63,0,0,1,1,114.29Z"/><path class="cls-1" d="M2.38,116.93H9.84l90.69-.3c3.82,0,6.94,3.69,6.94,8.24l0,22.86c0,4.55-3.08,8.24-6.94,8.24l-83.75.26c-3.82,0-6.94-3.69-6.94-8.24V132.2L3.34,121.62,1.6,118.8A1.18,1.18,0,0,1,2.38,116.93Z"/><path class="cls-2" d="M5,113.25h7.46l90.7-.31c3.81,0,6.94,3.78,6.94,8.42l0,23.37c0,4.64-3.08,8.42-6.94,8.42l-83.75.26c-3.82,0-6.94-3.77-6.94-8.42V128.86L4.2,115.15A1.2,1.2,0,0,1,5,113.25Z"/><path class="cls-3" d="M58.38,145.17l.39-3.91h4v.92H59.59l-.22,2.12a2.64,2.64,0,0,1,1.31-.35,2.17,2.17,0,0,1,1.69.7,2.92,2.92,0,0,1,.65,1.91,2.67,2.67,0,0,1-.65,1.9,2.32,2.32,0,0,1-1.82.7,2.45,2.45,0,0,1-1.7-.57,2.24,2.24,0,0,1-.73-1.6h1a1.47,1.47,0,0,0,.48,1,1.57,1.57,0,0,0,1,.34,1.35,1.35,0,0,0,1.08-.47,2,2,0,0,0,.39-1.3,1.72,1.72,0,0,0-.43-1.26,1.49,1.49,0,0,0-1.13-.48,1.41,1.41,0,0,0-1,.3l-.26.22Z"/><path class="cls-3" d="M64.15,143.82a.71.71,0,0,1,.13-.43.53.53,0,0,1,.47-.17.59.59,0,0,1,.48.17.74.74,0,0,1,.17.43.56.56,0,0,1-.17.44.55.55,0,0,1-.48.17.58.58,0,0,1-.47-.17A.72.72,0,0,1,64.15,143.82Zm0,4.73a.6.6,0,0,1,.65-.61.59.59,0,0,1,.47.18.75.75,0,0,1,.18.43.56.56,0,0,1-.18.43.53.53,0,0,1-.47.18.6.6,0,0,1-.48-.18A.55.55,0,0,1,64.15,148.55Z"/><path class="cls-3" d="M71.82,149.07H66.7v-.69l2.69-3a4.86,4.86,0,0,0,.83-1.12,2.17,2.17,0,0,0,.21-.87,1.38,1.38,0,0,0-.39-1,1.3,1.3,0,0,0-1-.39,1.39,1.39,0,0,0-1.13.44,1.59,1.59,0,0,0-.39,1.17h-1a2.23,2.23,0,0,1,.69-1.74,2.68,2.68,0,0,1,1.87-.65,2.44,2.44,0,0,1,1.73.56,1.91,1.91,0,0,1,.66,1.52A4.32,4.32,0,0,1,70,146l-2.08,2.25h3.9Z"/><path class="cls-3" d="M76.16,149.07h-1v-6.59l-2,.74v-.91L76,141.22h.17Z"/><path class="cls-3" d="M83.06,146v3H82v-7.81h2.87a2.84,2.84,0,0,1,2,.65,2.23,2.23,0,0,1,.74,1.74,2.16,2.16,0,0,1-.69,1.73,3.2,3.2,0,0,1-2,.61Zm0-.82h1.86a1.85,1.85,0,0,0,1.26-.39,1.42,1.42,0,0,0,.43-1.13,1.49,1.49,0,0,0-.43-1.13,1.82,1.82,0,0,0-1.22-.43h-1.9Z"/><path class="cls-3" d="M90.26,141.26l2.55,6.38,2.56-6.38h1.35v7.81h-1v-3l.08-3.3-2.56,6.33h-.78l-2.55-6.29L90,146v3h-1v-7.81Z"/><path class="cls-3" d="M24.63,133.15v-4H28v4Z"/><path class="cls-3" d="M39.9,133.15v-4h3.34v4Z"/><path class="cls-3" d="M55.17,133.15v-4h3.34v4Z"/><path class="cls-4" d="M290.94,56.3l-4-1-5.68,6,6.24,4.16,4.21-6.85A1.58,1.58,0,0,0,290.94,56.3Z"/><path class="cls-4" d="M289.55,58.9h-7.46L68.22,58.6c-3.81,0-6.94,3.68-6.94,8.24l0,22.85c0,4.56,3.08,8.25,6.94,8.25l206.93.26c3.82,0,6.94-3.69,6.94-8.25V74.17l6.55-10.59,1.73-2.82A1.17,1.17,0,0,0,289.55,58.9Z"/><path class="cls-5" d="M287,55.21h-7.46l-213.87-.3c-3.82,0-6.94,3.77-6.94,8.41l0,23.38c0,4.64,3.08,8.42,6.94,8.42l206.93.26c3.81,0,6.94-3.78,6.94-8.42V70.83l8.28-13.71A1.21,1.21,0,0,0,287,55.21Z"/><path class="cls-3" d="M231.13,84.58l.39-3.91h4v.91h-3.17l-.21,2.13a2.61,2.61,0,0,1,1.3-.35,2.16,2.16,0,0,1,1.69.7,2.86,2.86,0,0,1,.65,1.9,2.68,2.68,0,0,1-.65,1.91,2.31,2.31,0,0,1-1.82.7,2.41,2.41,0,0,1-1.69-.57,2.21,2.21,0,0,1-.74-1.6h.95a1.51,1.51,0,0,0,.48,1,1.59,1.59,0,0,0,1,.34,1.34,1.34,0,0,0,1.08-.47,2,2,0,0,0,.39-1.31,1.7,1.7,0,0,0-.43-1.25,1.48,1.48,0,0,0-1.13-.48,1.43,1.43,0,0,0-1,.3l-.26.22Z"/><path class="cls-3" d="M236.9,83.23a.71.71,0,0,1,.13-.43.54.54,0,0,1,.48-.18.59.59,0,0,1,.47.18.75.75,0,0,1,.18.43.57.57,0,0,1-.18.44.53.53,0,0,1-.47.17.59.59,0,0,1-.48-.17A1.14,1.14,0,0,1,236.9,83.23Zm0,4.73a.6.6,0,0,1,.65-.61.6.6,0,0,1,.48.18.82.82,0,0,1,.17.43.6.6,0,0,1-.65.61.6.6,0,0,1-.48-.18A.74.74,0,0,1,236.9,88Z"/><path class="cls-3" d="M244.62,88.48H239.5v-.69l2.69-3a4.76,4.76,0,0,0,.82-1.12,2.19,2.19,0,0,0,.22-.87,1.38,1.38,0,0,0-.39-1,1.3,1.3,0,0,0-1-.39,1.44,1.44,0,0,0-1.13.43,1.6,1.6,0,0,0-.39,1.18h-1a2.19,2.19,0,0,1,.69-1.74,2.66,2.66,0,0,1,1.87-.65,2.45,2.45,0,0,1,1.73.56,1.92,1.92,0,0,1,.65,1.52,4.31,4.31,0,0,1-1.47,2.73l-2.09,2.26h3.91Z"/><path class="cls-3" d="M250.56,85.14a4.59,4.59,0,0,1-.61,2.6,2.08,2.08,0,0,1-1.86.87,2.2,2.2,0,0,1-1.87-.82,4.36,4.36,0,0,1-.6-2.48V84a4.54,4.54,0,0,1,.6-2.56,2.09,2.09,0,0,1,1.87-.82,2.13,2.13,0,0,1,1.86.82,4.12,4.12,0,0,1,.61,2.47Zm-1-1.34a4,4,0,0,0-.34-1.83,1.19,1.19,0,0,0-1.13-.56A1.23,1.23,0,0,0,247,82a3.64,3.64,0,0,0-.35,1.78v1.61a3.51,3.51,0,0,0,.39,1.86,1.26,1.26,0,0,0,1.13.61,1.16,1.16,0,0,0,1.09-.56,4.39,4.39,0,0,0,.39-1.78Z"/><path class="cls-3" d="M255.81,85.4v3h-1V80.63h2.86a2.86,2.86,0,0,1,2,.65,2.25,2.25,0,0,1,.73,1.74,2.12,2.12,0,0,1-.69,1.73,3.18,3.18,0,0,1-2,.61Zm0-.82h1.86a1.81,1.81,0,0,0,1.26-.39,1.42,1.42,0,0,0,.43-1.13,1.48,1.48,0,0,0-.43-1.13,1.78,1.78,0,0,0-1.21-.43h-1.91Z"/><path class="cls-3" d="M263.05,80.67l2.56,6.38,2.56-6.38h1.34v7.81h-1v-3l.09-3.29L266,88.48h-.78l-2.56-6.29.09,3.25v3h-1V80.67Z"/><path class="cls-3" d="M72.6,75c0-2.52,2.74-2.69,2.74-4.64H76.9c0,2.34-2.74,2.69-2.74,4.46,0,.87.83,1.52,2.22,1.52a3.31,3.31,0,0,0,2.77-1.21l1.13.82a4.87,4.87,0,0,1-4,1.74C74.08,77.64,72.6,76.6,72.6,75Zm2.52-7.12a1,1,0,1,1,1,1A1,1,0,0,1,75.12,67.83Z"/><path class="cls-3" d="M80.32,69.7a5.48,5.48,0,0,1,5.77-5.55,5.3,5.3,0,0,1,4.12,1.69l-1,1a4,4,0,0,0-3-1.3,4.16,4.16,0,1,0,0,8.32,4,4,0,0,0,3-1.3l1,1a5.3,5.3,0,0,1-4.12,1.69A5.53,5.53,0,0,1,80.32,69.7Z"/><path class="cls-3" d="M99.58,66.88v8.2H98.15V73.82a3.33,3.33,0,0,1-2.78,1.34c-2.12,0-3.51-1.17-3.51-3.6V66.88h1.47v4.55c0,1.61.83,2.43,2.22,2.43a2.42,2.42,0,0,0,2.56-2.73V66.88Z"/><path class="cls-3" d="M109,70.13v5h-1.43V74a3.05,3.05,0,0,1-2.69,1.17c-1.87,0-3-1-3-2.42s.87-2.39,3.3-2.39h2.34v-.3c0-1.26-.74-2-2.21-2a4.25,4.25,0,0,0-2.6.87L102,67.79a5.44,5.44,0,0,1,3.38-1C107.69,66.79,109,67.88,109,70.13Zm-1.48,2.48V71.48h-2.29c-1.48,0-1.91.56-1.91,1.26s.69,1.34,1.82,1.34A2.46,2.46,0,0,0,107.47,72.61Zm-1.69-6.9h-1.39l2.13-2h1.91Z"/><path class="cls-3" d="M111.72,63.58h1.48v11.5h-1.48Z"/><path class="cls-3" d="M127.6,71.48h-6.68a2.76,2.76,0,0,0,3,2.38,3.17,3.17,0,0,0,2.39-1l.82.95A4.49,4.49,0,0,1,119.44,71a4,4,0,0,1,4.13-4.17A4,4,0,0,1,127.64,71C127.64,71.17,127.6,71.35,127.6,71.48Zm-6.68-1h5.29a2.57,2.57,0,0,0-2.64-2.35A2.55,2.55,0,0,0,120.92,70.44Z"/><path class="cls-3" d="M128.64,74.25l.61-1.17a5.4,5.4,0,0,0,2.86.87c1.39,0,1.95-.43,1.95-1.13,0-1.86-5.2-.26-5.2-3.51,0-1.48,1.3-2.47,3.42-2.47a5.87,5.87,0,0,1,3,.73l-.65,1.18a4.32,4.32,0,0,0-2.39-.66c-1.3,0-2,.48-2,1.13,0,2,5.2.35,5.2,3.56,0,1.47-1.34,2.43-3.55,2.43A6.06,6.06,0,0,1,128.64,74.25Z"/><path class="cls-3" d="M149,71.48h-6.68a2.76,2.76,0,0,0,3,2.38,3.15,3.15,0,0,0,2.38-1l.83.95A4.49,4.49,0,0,1,140.87,71a4.1,4.1,0,1,1,8.2.08A1.64,1.64,0,0,0,149,71.48Zm-6.68-1h5.29A2.59,2.59,0,0,0,145,68.09,2.54,2.54,0,0,0,142.35,70.44Z"/><path class="cls-3" d="M151.11,63.58h1.47v11.5h-1.47Z"/><path class="cls-3" d="M173.23,70.39v4.73h-1.48V70.57c0-1.61-.78-2.39-2.12-2.39a2.41,2.41,0,0,0-2.48,2.73v4.25h-1.47V70.61c0-1.6-.78-2.39-2.12-2.39s-2.48,1-2.48,2.74v4.25h-1.47V66.88H161v1.21a3.39,3.39,0,0,1,2.82-1.3,3,3,0,0,1,2.86,1.52,3.76,3.76,0,0,1,3.17-1.52C171.88,66.79,173.23,68,173.23,70.39Z"/><path class="cls-3" d="M183.42,71.48h-6.68a2.76,2.76,0,0,0,3,2.38,3.17,3.17,0,0,0,2.39-1l.82.95A4.48,4.48,0,0,1,175.27,71a4.1,4.1,0,1,1,8.19.08C183.46,71.17,183.42,71.35,183.42,71.48Zm-6.68-1H182a2.57,2.57,0,0,0-2.64-2.35A2.55,2.55,0,0,0,176.74,70.44Z"/><path class="cls-3" d="M193.31,70.39v4.73h-1.48V70.57c0-1.61-.82-2.39-2.21-2.39a2.45,2.45,0,0,0-2.6,2.73v4.25h-1.48V66.88H187v1.26a3.49,3.49,0,0,1,3-1.3C191.92,66.79,193.31,68,193.31,70.39Z"/><path class="cls-3" d="M195,74.25l.61-1.17a5.4,5.4,0,0,0,2.86.87c1.39,0,2-.43,2-1.13,0-1.86-5.2-.26-5.2-3.51,0-1.48,1.3-2.47,3.43-2.47a5.83,5.83,0,0,1,3,.73L201,68.75a4.3,4.3,0,0,0-2.39-.66c-1.3,0-1.95.48-1.95,1.13,0,2,5.21.35,5.21,3.56,0,1.47-1.35,2.43-3.56,2.43A6,6,0,0,1,195,74.25Z"/><path class="cls-3" d="M210.35,70.13v5h-1.43V74a3,3,0,0,1-2.69,1.17c-1.86,0-3-1-3-2.42s.86-2.39,3.29-2.39h2.35v-.3c0-1.26-.74-2-2.22-2a4.27,4.27,0,0,0-2.6.87l-.61-1.13a5.47,5.47,0,0,1,3.39-1C209.1,66.79,210.35,67.88,210.35,70.13Zm-1.47,2.48V71.48h-2.3c-1.47,0-1.91.56-1.91,1.26s.7,1.34,1.82,1.34A2.47,2.47,0,0,0,208.88,72.61Z"/><path class="cls-3" d="M210.27,77.72l.47-1.12A1.88,1.88,0,0,0,212,77c.78,0,1.21-.48,1.21-1.44V66.88h1.48v8.59a2.43,2.43,0,0,1-2.6,2.73A2.84,2.84,0,0,1,210.27,77.72Zm2.64-13.36a1,1,0,1,1,1,1A1,1,0,0,1,212.91,64.36Z"/><path class="cls-3" d="M224.88,71.48H218.2a2.78,2.78,0,0,0,3,2.38,3.15,3.15,0,0,0,2.38-1l.83.95A4.49,4.49,0,0,1,216.73,71a4.1,4.1,0,1,1,8.2.08A1.32,1.32,0,0,1,224.88,71.48Zm-6.63-1h5.29a2.58,2.58,0,0,0-2.65-2.35A2.52,2.52,0,0,0,218.25,70.44Z"/><path class="cls-3" d="M231.13,67.14c0-1-.82-1.69-2.21-1.69a3.31,3.31,0,0,0-2.78,1.21L225,65.84a5,5,0,0,1,4-1.74c2.21,0,3.68,1.05,3.68,2.78,0,2.6-2.73,2.78-2.73,4.77h-1.56C228.4,69.27,231.13,68.92,231.13,67.14Zm-2.95,7.07a1,1,0,1,1,1,1A1,1,0,0,1,228.18,74.21Z"/></g></g></svg>