<?xml version="1.0" encoding="utf-8"?>
<!-- Generator: Adobe Illustrator 19.0.0, SVG Export Plug-In . SVG Version: 6.00 Build 0)  -->
<svg version="1.1" id="Layer_1" xmlns="http://www.w3.org/2000/svg" xmlns:xlink="http://www.w3.org/1999/xlink" x="0px" y="0px"
	 viewBox="-622 1058.8 172.6 149.9" style="enable-background:new -622 1058.8 172.6 149.9;" xml:space="preserve">
<style type="text/css">
	.st0{fill:#9B9B9B;}
</style>
<title>Recurso 7svg</title>
<g id="Capa_2">
	<g id="Layer_1_1_">
		<path class="st0" d="M-455.2,1099.2l-64.8-38.7c-4.1-2.5-9.4-2.1-13,1l-84.8,68.4c-2.7,2.2-4.2,5.5-4.2,8.9v20.4
			c0.1,4,2.2,7.7,5.5,9.9l62.3,37.3c2.4,1.5,5.2,2.4,8.1,2.4c3.6,0,7-1.2,9.9-3.4l82.4-66.6c2.7-2.2,4.3-5.4,4.4-8.9v-20.8
			C-449.6,1105.1-451.8,1101.4-455.2,1099.2z M-540.4,1094.1l11.7-9.7c1.6-1.2,3.8-1.4,5.5-0.4l34.2,20.6c2.2,1.2,3,4.1,1.8,6.3
			c-0.3,0.5-0.7,1-1.2,1.4l-11.9,9.7c-1.6,1.2-3.8,1.4-5.5,0.4l-34-20.6c-2.3-1.4-2.9-4.4-1.5-6.7
			C-541,1094.7-540.7,1094.4-540.4,1094.1z M-458.7,1129.7c0,0.7-0.4,1.4-1,1.8l-82.2,66.4c-2.1,1.8-5.1,2-7.5,0.6l-62.3-37.6
			c-0.7-0.4-1.2-1.2-1.2-2v-15.4l61.1,36.8c1.7,1.1,3.7,1.6,5.7,1.6c2.6,0,5.1-0.9,7.1-2.6l79.9-64.4v14.8H-458.7z"/>
	</g>
</g>
</svg>
