<?xml version="1.0" encoding="utf-8"?>
<!-- Generator: Adobe Illustrator 19.0.0, SVG Export Plug-In . SVG Version: 6.00 Build 0)  -->
<svg version="1.1" id="Layer_1" xmlns="http://www.w3.org/2000/svg" xmlns:xlink="http://www.w3.org/1999/xlink" x="0px" y="0px"
	 viewBox="-639 1060.9 138.3 146.9" style="enable-background:new -639 1060.9 138.3 146.9;" xml:space="preserve">
<style type="text/css">
	.st0{fill:#FCFAFA;}
</style>
<title>Recurso 17svg</title>
<g id="Capa_2">
	<g id="Layer_1_1_">
		<path class="st0" d="M-500.7,1147.3v-8.6c-0.1-14.3-11.6-25.8-25.9-25.9h-34.5v-19.7c8.3-4.8,11.1-15.4,6.2-23.7
			s-15.4-11.1-23.7-6.2c-8.3,4.8-11.1,15.4-6.3,23.7c1.5,2.6,3.6,4.7,6.2,6.2v19.7h-34.5c-14.3,0.1-25.8,11.6-25.9,25.9v43.2
			c0.1,14.3,11.6,25.8,25.9,25.9h86.3c14.3-0.1,25.8-11.6,25.9-25.9v-8.6L-500.7,1147.3L-500.7,1147.3z M-587,1160.4
			c0,7.2-5.8,13-13,13s-13-5.8-13-13s5.8-13,13-13l0,0C-592.8,1147.4-587,1153.2-587,1160.4z M-526.6,1160.4c0,7.2-5.8,13-13,13
			c-7.2,0-13-5.8-13-13s5.8-13,13-13l0,0C-532.4,1147.4-526.6,1153.2-526.6,1160.4L-526.6,1160.4z"/>
	</g>
</g>
</svg>
