<svg xmlns="http://www.w3.org/2000/svg" xmlns:xlink="http://www.w3.org/1999/xlink" viewBox="0 0 417.51 832.68"><defs><style>.cls-1,.cls-7{fill:none;}.cls-2{clip-path:url(#clip-path);}.cls-3{fill:#b5b5b5;}.cls-4{fill:#fff;}.cls-5{fill:#535353;}.cls-6{fill:#1e1e1e;}.cls-7{stroke:#1e1e1e;stroke-linecap:round;stroke-linejoin:round;stroke-width:0.75px;}.cls-8{fill:#f5fdff;}.cls-10,.cls-8{opacity:0.1;}.cls-9{fill:#e8e8e8;}.cls-10{fill:#272425;}.cls-11{fill:#4d877b;}.cls-12{fill:#85898d;}.cls-13{font-size:18.58px;fill:#babcbe;}.cls-13,.cls-15{font-family:Roboto-Regular, Roboto;}.cls-14{letter-spacing:-0.04em;}.cls-15{font-size:12.66px;fill:#9a9a9a;}.cls-16{letter-spacing:-0.02em;}.cls-17{font-size:16.85px;font-family:Montserrat-Medium, Montserrat;}.cls-17,.cls-33{font-weight:500;}.cls-18{letter-spacing:-0.01em;}.cls-19{letter-spacing:0em;}.cls-20{letter-spacing:-0.01em;}.cls-21{letter-spacing:-0.02em;}.cls-22{letter-spacing:0em;}.cls-23{letter-spacing:0.01em;}.cls-24{letter-spacing:0.03em;}.cls-25{letter-spacing:-0.01em;}.cls-26{letter-spacing:-0.01em;}.cls-27{letter-spacing:-0.02em;}.cls-28{letter-spacing:-0.02em;}.cls-29{letter-spacing:0em;}.cls-30{letter-spacing:-0.01em;}.cls-31{fill:#f9f9f9;}.cls-32,.cls-33{fill:#b7b7b7;}.cls-33{font-size:19.46px;font-family:Roboto-Medium, Roboto;letter-spacing:-0.01em;}</style><clipPath id="clip-path" transform="translate(-1.18 -0.97)"><rect class="cls-1" width="418.69" height="512.43"/></clipPath></defs><title>Recurso 23svg</title><g id="Capa_2" data-name="Capa 2"><g id="Layer_1" data-name="Layer 1"><g class="cls-2"><rect class="cls-3" width="417.51" height="832.68" rx="28.16"/><rect class="cls-4" x="3.16" y="4.57" width="412.06" height="821.8" rx="28.16"/><path class="cls-5" d="M249.76,45.3H167.57a2.89,2.89,0,0,1-2.89-2.89h0a2.88,2.88,0,0,1,2.89-2.88h82.19a2.88,2.88,0,0,1,2.88,2.88h0A2.88,2.88,0,0,1,249.76,45.3Z" transform="translate(-1.18 -0.97)"/><rect class="cls-6" x="77.36" y="783.34" width="15.62" height="2.14"/><rect class="cls-7" x="203.92" y="784.52" width="12.24" height="12.06"/><path class="cls-7" d="M326.75,784.75l-5.64,5.64a2.17,2.17,0,0,0,0,3.07l5.64,5.63" transform="translate(-1.18 -0.97)"/><path class="cls-8" d="M252.51,3.37,8.71,767.93,3.29,62.72a57.8,57.8,0,0,1,57-58.24C134,3.46,252.54,2,252.51,3.37Z" transform="translate(-1.18 -0.97)"/><rect class="cls-9" x="14.88" y="152.2" width="387.75" height="603.38"/><rect class="cls-10" x="19.28" y="700.99" width="322.95" height="48.4" rx="8.77"/><circle class="cls-10" cx="373.82" cy="726.15" r="24.2" transform="translate(-419.78 922.97) rotate(-76.78)"/><rect class="cls-4" x="19.28" y="699.22" width="322.95" height="48.4" rx="8.77"/><circle class="cls-11" cx="373.82" cy="724.38" r="24.2" transform="translate(-418.06 921.61) rotate(-76.78)"/><path class="cls-12" d="M275.74,734a6.28,6.28,0,0,1-4.46-1.85l-10.76-10.76a4.72,4.72,0,0,1,6.67-6.67l8.69,8.69a3.22,3.22,0,0,1,0,4.54,3.29,3.29,0,0,1-4.54,0L265,721.55a1,1,0,0,1,0-1.4,1,1,0,0,1,1.4,0l6.39,6.39a1.26,1.26,0,0,0,1.74,0,1.23,1.23,0,0,0,0-1.74l-8.69-8.69a2.79,2.79,0,0,0-3.87,0,2.73,2.73,0,0,0,0,3.87l10.76,10.76a4.32,4.32,0,1,0,6.11-6.11l-8-8a1,1,0,1,1,1.4-1.41l8,8A6.31,6.31,0,0,1,275.74,734Z" transform="translate(-1.18 -0.97)"/><path class="cls-4" d="M382.59,723.91a1.32,1.32,0,0,0-2.63-.2,5.39,5.39,0,0,1-5.67,5.07,5.81,5.81,0,0,1-6-5.13,1.32,1.32,0,0,0-2.62.33,8.47,8.47,0,0,0,7.31,7.31v3.58a1.32,1.32,0,0,0,2.64,0v-3.58A8,8,0,0,0,382.59,723.91Z" transform="translate(-1.18 -0.97)"/><rect class="cls-4" x="369.56" y="712.28" width="6.88" height="13.09" rx="1.25"/><path class="cls-12" d="M43.72,735.67A11.17,11.17,0,1,1,54.89,724.5,11.18,11.18,0,0,1,43.72,735.67Zm0-20.36a9.19,9.19,0,1,0,9.19,9.19A9.2,9.2,0,0,0,43.72,715.31Z" transform="translate(-1.18 -0.97)"/><path class="cls-12" d="M42.1,721.73c0,1.07-.63,1.93-1.42,1.93s-1.42-.86-1.42-1.93.64-1.92,1.42-1.92S42.1,720.67,42.1,721.73Z" transform="translate(-1.18 -0.97)"/><path class="cls-12" d="M48.18,721.73c0,1.07-.64,1.93-1.42,1.93s-1.42-.86-1.42-1.93.64-1.92,1.42-1.92S48.18,720.67,48.18,721.73Z" transform="translate(-1.18 -0.97)"/><path class="cls-12" d="M37.8,726.41a6.22,6.22,0,0,0,11.84,0Z" transform="translate(-1.18 -0.97)"/><text class="cls-13" transform="translate(66.98 730.64)"><tspan class="cls-14">T</tspan><tspan x="10.43" y="0">ype a message</tspan></text><path class="cls-12" d="M320.28,713.12h-9.9a6.05,6.05,0,0,0-6.05,6v9.29a6.05,6.05,0,0,0,6.05,6h9.9a6.05,6.05,0,0,0,6.06-6v-9.29A6.05,6.05,0,0,0,320.28,713.12ZM315.33,730a6.17,6.17,0,1,1,6.17-6.17A6.16,6.16,0,0,1,315.33,730Z" transform="translate(-1.18 -0.97)"/><circle class="cls-12" cx="314.15" cy="722.85" r="4.06"/><path class="cls-10" d="M54.15,215.49h8.6l246.78-.33c4.42,0,8,4.24,8,9.49l0,191.5c0,5.25-3.58,9.5-8,9.51L70.82,426c-4.42,0-8-4.24-8-9.49l0-183.35-9.56-15.46A1.4,1.4,0,0,1,54.15,215.49Z" transform="translate(-1.18 -0.97)"/><path class="cls-4" d="M54.14,213.23h8.61l246.78-.33c4.42,0,8,4.34,8,9.71l0,191.23c0,5.36-3.57,9.72-8,9.72l-238.77.32c-4.42,0-8-4.34-8-9.7l0-182.9-9.56-15.81C52.66,214.54,53.2,213.24,54.14,213.23Z" transform="translate(-1.18 -0.97)"/><text class="cls-15" transform="matrix(1, 0, 0, 1, 55.33, 200.6)">H<tspan class="cls-16" x="9.02" y="0">O</tspan><tspan x="17.46" y="0">Y 5:18 PM</tspan></text><text class="cls-17" transform="translate(73.42 256.71)">¡G<tspan class="cls-18" x="17.52" y="0">r</tspan><tspan class="cls-19" x="24.29" y="0">a</tspan><tspan x="34.42" y="0">cias por tu </tspan><tspan class="cls-18" x="128.33" y="0">c</tspan><tspan x="137.82" y="0">omp</tspan><tspan class="cls-20" x="177.81" y="0">r</tspan><tspan x="184.59" y="0">a el</tspan><tspan x="0" y="20.22">28</tspan><tspan class="cls-21" x="20.52" y="20.22">/</tspan><tspan class="cls-22" x="26.11" y="20.22">0</tspan><tspan class="cls-23" x="37.3" y="20.22">2</tspan><tspan class="cls-24" x="47.14" y="20.22">/</tspan><tspan x="53.58" y="20.22">19 por </tspan><tspan class="cls-25" x="108.37" y="20.22">$</tspan><tspan x="118.66" y="20.22">100</tspan><tspan class="cls-26" x="147.37" y="20.22">0.</tspan><tspan x="162.03" y="20.22">00 </tspan><tspan x="0" y="40.44">pesos en SU</tspan><tspan class="cls-25" x="104.02" y="40.44">P</tspan><tspan x="116.02" y="40.44">ERMER</tspan><tspan class="cls-27" x="179.18" y="40.44">C</tspan><tspan x="191.07" y="40.44">ADO </tspan><tspan class="cls-18" x="0" y="60.65">c</tspan><tspan x="9.49" y="60.65">on tu tarjeta 8</tspan><tspan class="cls-28" x="130.59" y="60.65">7</tspan><tspan x="140.36" y="60.65">5</tspan><tspan class="cls-23" x="150.03" y="60.65">6</tspan><tspan x="160.6" y="60.65">. </tspan><tspan class="cls-29" x="0" y="80.87">A</tspan><tspan class="cls-30" x="12.25" y="80.87">c</tspan><tspan x="21.75" y="80.87">la</tspan><tspan class="cls-18" x="36.53" y="80.87">r</tspan><tspan class="cls-19" x="43.3" y="80.87">a</tspan><tspan x="53.43" y="80.87">cio</tspan><tspan class="cls-19" x="78.45" y="80.87">n</tspan><tspan x="89.97" y="80.87">es </tspan><tspan class="cls-22" x="113.25" y="80.87">0</tspan><tspan x="124.44" y="80.87">1 800 </tspan><tspan x="0" y="101.09">651</tspan><tspan class="cls-22" x="26.3" y="101.09">4</tspan><tspan x="37.52" y="101.09">231682</tspan></text><rect class="cls-31" x="15.31" y="78.88" width="387.75" height="73.22"/><polygon class="cls-32" points="50.47 112.21 37.77 112.21 43.3 105.86 41.64 104.41 33.84 113.35 41.66 121.68 43.28 120.16 37.89 114.42 50.47 114.42 50.47 112.21"/><path class="cls-32" d="M389.14,106a2.35,2.35,0,1,1-2.35-2.35A2.35,2.35,0,0,1,389.14,106Z" transform="translate(-1.18 -0.97)"/><path class="cls-32" d="M389.14,112.47a2.35,2.35,0,1,1-2.35-2.35A2.35,2.35,0,0,1,389.14,112.47Z" transform="translate(-1.18 -0.97)"/><path class="cls-32" d="M389.14,118.81a2.35,2.35,0,1,1-2.35-2.35A2.35,2.35,0,0,1,389.14,118.81Z" transform="translate(-1.18 -0.97)"/><text class="cls-33" transform="translate(66.98 120.19)">BANCO</text></g></g></g></svg>