<svg xmlns="http://www.w3.org/2000/svg" xmlns:xlink="http://www.w3.org/1999/xlink" viewBox="0 0 417.51 832.68"><defs><style>.cls-1,.cls-7{fill:none;}.cls-2{clip-path:url(#clip-path);}.cls-3{fill:#b5b5b5;}.cls-4{fill:#fff;}.cls-5{fill:#535353;}.cls-6{fill:#1e1e1e;}.cls-7{stroke:#1e1e1e;stroke-linecap:round;stroke-linejoin:round;stroke-width:4px;}.cls-8{fill:#f5fdff;}.cls-10,.cls-19,.cls-8{opacity:0.1;}.cls-9{fill:#e8e8e8;}.cls-10,.cls-20{fill:#272425;}.cls-11{fill:#4d877b;}.cls-12{fill:#85898d;}.cls-13{font-size:18.58px;font-family:Roboto-Regular, Roboto;}.cls-13,.cls-18{fill:#babcbe;}.cls-14{letter-spacing:-0.04em;}.cls-15{fill:#f9f9f9;}.cls-16,.cls-17{fill:#b7b7b7;}.cls-17{font-size:19.46px;font-family:Roboto-Medium, Roboto;font-weight:500;letter-spacing:-0.01em;}.cls-21{fill:#9a9a9a;}</style><clipPath id="clip-path" transform="translate(-0.16)"><rect class="cls-1" width="418.69" height="512.43"/></clipPath></defs><title>Recurso 263X1</title><g id="Capa_2" data-name="Capa 2"><g id="Layer_1" data-name="Layer 1"><g class="cls-2"><rect class="cls-3" width="417.51" height="832.68" rx="13.14"/><rect class="cls-4" x="3.16" y="4.57" width="412.06" height="821.8" rx="13.14"/><path class="cls-5" d="M248.74,44.33H166.55a2.88,2.88,0,0,1-2.89-2.88h0a2.89,2.89,0,0,1,2.89-2.89h82.19a2.88,2.88,0,0,1,2.88,2.89h0A2.88,2.88,0,0,1,248.74,44.33Z" transform="translate(-0.16)"/><rect class="cls-6" x="77.36" y="783.34" width="15.62" height="2.14"/><rect class="cls-7" x="203.92" y="784.52" width="12.24" height="12.06"/><path class="cls-7" d="M325.73,783.78l-5.63,5.64a2.17,2.17,0,0,0,0,3.07l5.63,5.64" transform="translate(-0.16)"/><path class="cls-8" d="M251.49,2.4,7.69,767,2.28,61.76a57.79,57.79,0,0,1,57-58.25C133,2.49,251.52,1.06,251.49,2.4Z" transform="translate(-0.16)"/><rect class="cls-9" x="14.88" y="152.2" width="387.75" height="603.38"/><rect class="cls-10" x="19.28" y="700.99" width="322.95" height="48.4" rx="8.77"/><circle class="cls-10" cx="372.8" cy="725.19" r="24.2" transform="translate(-418.61 922.2) rotate(-76.78)"/><rect class="cls-4" x="19.28" y="699.22" width="322.95" height="48.4" rx="8.77"/><circle class="cls-11" cx="372.8" cy="723.42" r="24.2" transform="translate(-416.88 920.83) rotate(-76.78)"/><path class="cls-12" d="M274.72,733a6.27,6.27,0,0,1-4.46-1.84L259.5,720.42a4.72,4.72,0,0,1,6.67-6.68l8.69,8.69a3.22,3.22,0,0,1,0,4.54,3.28,3.28,0,0,1-4.54,0l-6.39-6.39a1,1,0,0,1,1.4-1.4l6.39,6.39a1.25,1.25,0,0,0,1.74,0,1.23,1.23,0,0,0,0-1.74l-8.69-8.68a2.79,2.79,0,0,0-3.87,0,2.73,2.73,0,0,0,0,3.87l10.76,10.76a4.32,4.32,0,0,0,7.38-3.06,4.27,4.27,0,0,0-1.27-3.05l-8-8a1,1,0,0,1,0-1.4,1,1,0,0,1,1.4,0l8,8A6.3,6.3,0,0,1,274.72,733Z" transform="translate(-0.16)"/><path class="cls-4" d="M381.57,722.94a1.31,1.31,0,0,0-1.22-1.4,1.29,1.29,0,0,0-1.41,1.21,5.39,5.39,0,0,1-5.67,5.07,5.82,5.82,0,0,1-6-5.14,1.3,1.3,0,0,0-1.47-1.14,1.32,1.32,0,0,0-1.15,1.47,8.46,8.46,0,0,0,7.31,7.31v3.59a1.32,1.32,0,0,0,2.64,0v-3.59A8,8,0,0,0,381.57,722.94Z" transform="translate(-0.16)"/><rect class="cls-4" x="369.56" y="712.28" width="6.88" height="13.09" rx="1.25"/><path class="cls-12" d="M42.7,734.71a11.18,11.18,0,1,1,11.17-11.18A11.19,11.19,0,0,1,42.7,734.71Zm0-20.37a9.2,9.2,0,1,0,9.19,9.19A9.2,9.2,0,0,0,42.7,714.34Z" transform="translate(-0.16)"/><path class="cls-12" d="M41.08,720.77c0,1.06-.63,1.92-1.42,1.92s-1.42-.86-1.42-1.92.64-1.93,1.42-1.93S41.08,719.7,41.08,720.77Z" transform="translate(-0.16)"/><path class="cls-12" d="M47.16,720.77c0,1.06-.64,1.92-1.42,1.92s-1.42-.86-1.42-1.92.64-1.93,1.42-1.93S47.16,719.7,47.16,720.77Z" transform="translate(-0.16)"/><path class="cls-12" d="M36.78,725.45a6.22,6.22,0,0,0,11.84,0Z" transform="translate(-0.16)"/><text class="cls-13" transform="translate(66.98 730.64)"><tspan class="cls-14">T</tspan><tspan x="10.43" y="0">ype a message</tspan></text><path class="cls-12" d="M319.26,712.15h-9.9a6.05,6.05,0,0,0-6.05,6.06v9.29a6.05,6.05,0,0,0,6.05,6h9.9a6.05,6.05,0,0,0,6.06-6v-9.29A6.06,6.06,0,0,0,319.26,712.15Zm-4.95,16.92a6.17,6.17,0,1,1,6.17-6.16A6.16,6.16,0,0,1,314.31,729.07Z" transform="translate(-0.16)"/><circle class="cls-12" cx="314.15" cy="722.85" r="4.06"/><rect class="cls-15" x="15.31" y="78.88" width="387.75" height="73.22"/><polygon class="cls-16" points="50.47 112.21 37.77 112.21 43.3 105.86 41.64 104.41 33.84 113.35 41.66 121.68 43.28 120.16 37.89 114.42 50.47 114.42 50.47 112.21"/><path class="cls-16" d="M388.12,105a2.35,2.35,0,1,1-2.35-2.35A2.35,2.35,0,0,1,388.12,105Z" transform="translate(-0.16)"/><path class="cls-16" d="M388.12,111.51a2.35,2.35,0,1,1-2.35-2.35A2.35,2.35,0,0,1,388.12,111.51Z" transform="translate(-0.16)"/><path class="cls-16" d="M388.12,117.84a2.35,2.35,0,1,1-2.35-2.35A2.35,2.35,0,0,1,388.12,117.84Z" transform="translate(-0.16)"/><text class="cls-17" transform="translate(66.98 120.19)">COMERCIO</text><circle class="cls-18" cx="58.23" cy="218.83" r="27.54"/><path class="cls-4" d="M73.21,217V215.1a5.56,5.56,0,0,0-5.56-5.55h-7.4v-4.22a3.72,3.72,0,1,0-3.7,0v4.22H49.14a5.56,5.56,0,0,0-5.55,5.55v9.26a5.56,5.56,0,0,0,5.55,5.55H67.65a5.56,5.56,0,0,0,5.56-5.55V217ZM54.7,219.73A2.78,2.78,0,1,1,51.92,217h0A2.79,2.79,0,0,1,54.7,219.73Zm13,0A2.78,2.78,0,1,1,64.88,217h0A2.78,2.78,0,0,1,67.65,219.73Z" transform="translate(-0.16)"/><g class="cls-19"><path class="cls-20" d="M99.26,212.46h8.61l246.78-.33c4.42,0,8,4.24,8,9.49l0,115.61c0,5.25-3.57,9.51-8,9.51l-238.77.32c-4.42,0-8-4.24-8-9.49l0-107.46-9.56-15.46A1.4,1.4,0,0,1,99.26,212.46Z" transform="translate(-0.16)"/></g><path class="cls-4" d="M99.26,210.21l8.61,0,246.77-.32c4.43,0,8,4.33,8,9.7l0,115.34c0,5.37-3.57,9.72-8,9.73L115.93,345c-4.42,0-8-4.33-8-9.7l0-107-9.56-15.82C97.77,211.51,98.31,210.21,99.26,210.21Z" transform="translate(-0.16)"/><path class="cls-21" d="M109.58,198.52h-1.2v-4.16h-4.54v4.16h-1.19v-9h1.19v3.87h4.54v-3.87h1.19Z" transform="translate(-0.16)"/><path class="cls-21" d="M118.6,194.29a5.63,5.63,0,0,1-.44,2.31,3.54,3.54,0,0,1-5,1.51,3.48,3.48,0,0,1-1.28-1.49,5.39,5.39,0,0,1-.47-2.24v-.64a5.55,5.55,0,0,1,.45-2.3,3.44,3.44,0,0,1,1.28-1.52,3.31,3.31,0,0,1,1.88-.53,3.4,3.4,0,0,1,1.91.52,3.34,3.34,0,0,1,1.27,1.51,5.54,5.54,0,0,1,.45,2.31Zm-1.18-.58a4,4,0,0,0-.65-2.45,2.3,2.3,0,0,0-3.57,0,4,4,0,0,0-.66,2.38v.66a4.06,4.06,0,0,0,.66,2.44,2.28,2.28,0,0,0,3.57,0,4,4,0,0,0,.65-2.4Z" transform="translate(-0.16)"/><path class="cls-21" d="M122.86,194l2.34-4.52h1.35l-3.1,5.65v3.36h-1.19v-3.36l-3.11-5.64h1.36Z" transform="translate(-0.16)"/><path class="cls-21" d="M136.45,198.48h-5.89v-.82l3.11-3.47a6.94,6.94,0,0,0,1-1.28,2,2,0,0,0,.26-1,1.6,1.6,0,0,0-.43-1.16,1.48,1.48,0,0,0-1.13-.45,1.76,1.76,0,0,0-1.33.49,1.86,1.86,0,0,0-.47,1.35h-1.14a2.63,2.63,0,0,1,.8-2,3,3,0,0,1,2.14-.77,2.85,2.85,0,0,1,2,.66,2.23,2.23,0,0,1,.73,1.75,5.13,5.13,0,0,1-1.69,3.16l-2.4,2.62h4.51Z" transform="translate(-0.16)"/><path class="cls-21" d="M137.74,192.42a.69.69,0,0,1,.18-.49.65.65,0,0,1,.53-.2.69.69,0,0,1,.53.19.74.74,0,0,1,.19.5.61.61,0,0,1-.19.47.69.69,0,0,1-.53.2.64.64,0,0,1-.71-.67Zm0,5.46a.72.72,0,0,1,.17-.5.67.67,0,0,1,.53-.19.65.65,0,0,1,.53.19.68.68,0,0,1,.19.5.66.66,0,0,1-.18.47.71.71,0,0,1-.54.19.65.65,0,0,1-.53-.19A.63.63,0,0,1,137.75,197.88Z" transform="translate(-0.16)"/><path class="cls-21" d="M146.37,194.63a5.27,5.27,0,0,1-.68,3,2.86,2.86,0,0,1-4.28,0,5,5,0,0,1-.72-2.85v-1.53a5.12,5.12,0,0,1,.68-2.95,2.46,2.46,0,0,1,2.15-1,2.49,2.49,0,0,1,2.14.93,4.93,4.93,0,0,1,.71,2.87Zm-1.15-1.56a4.1,4.1,0,0,0-.41-2.12,1.58,1.58,0,0,0-2.57,0,4.09,4.09,0,0,0-.41,2v1.83a4.29,4.29,0,0,0,.43,2.16,1.4,1.4,0,0,0,1.28.69,1.37,1.37,0,0,0,1.26-.66,4.08,4.08,0,0,0,.43-2.06Z" transform="translate(-0.16)"/><path class="cls-21" d="M153.48,194.62a5.18,5.18,0,0,1-.69,3,2.84,2.84,0,0,1-4.27,0,5,5,0,0,1-.72-2.85v-1.53a5,5,0,0,1,.68-2.94,2.43,2.43,0,0,1,2.15-1,2.5,2.5,0,0,1,2.14.93,5,5,0,0,1,.7,2.87Zm-1.15-1.56a4.21,4.21,0,0,0-.41-2.12,1.4,1.4,0,0,0-1.29-.66,1.38,1.38,0,0,0-1.28.66,4,4,0,0,0-.41,2v1.83a4.19,4.19,0,0,0,.43,2.16,1.53,1.53,0,0,0,2.54,0,4.1,4.1,0,0,0,.42-2.06Z" transform="translate(-0.16)"/><path class="cls-21" d="M159.56,194.93v3.52h-1.18l0-9h3.32a3.35,3.35,0,0,1,2.32.75,2.55,2.55,0,0,1,.84,2,2.5,2.5,0,0,1-.82,2,3.41,3.41,0,0,1-2.34.71Zm0-1h2.13a2.14,2.14,0,0,0,1.46-.45,1.9,1.9,0,0,0,0-2.58,2,2,0,0,0-1.39-.5h-2.2Z" transform="translate(-0.16)"/><path class="cls-21" d="M167.88,189.44l3,7.34,2.94-7.35h1.53l0,9h-1.19v-3.5l.1-3.79-2.94,7.29h-.91l-3-7.26.12,3.76v3.51h-1.19v-9Z" transform="translate(-0.16)"/><path d="M127.63,255a1.65,1.65,0,0,1-1.7,1.67,1.69,1.69,0,0,1-1.76-1.67,1.72,1.72,0,0,1,1.76-1.73A1.69,1.69,0,0,1,127.63,255Zm-.21,16.59h-3l.48-12.31h2Z" transform="translate(-0.16)"/><path d="M148.27,248.86v18.62h-2.66v-8.3H134.92v8.3h-2.66V248.86h2.66v8h10.69v-8Z" transform="translate(-0.16)"/><path d="M152.17,260.43a7.33,7.33,0,1,1,7.34,7.21A7,7,0,0,1,152.17,260.43Zm12.08,0a4.75,4.75,0,1,0-4.74,5A4.63,4.63,0,0,0,164.25,260.43Z" transform="translate(-0.16)"/><path d="M170.36,247.74h2.56v19.74h-2.56Z" transform="translate(-0.16)"/><path d="M189,259v8.51h-2.42v-1.86c-.85,1.27-2.42,2-4.62,2-3.2,0-5.22-1.71-5.22-4.15,0-2.26,1.47-4.12,5.67-4.12h4v-.51c0-2.15-1.25-3.4-3.78-3.4a7.12,7.12,0,0,0-4.46,1.51l-1.07-1.91a9.4,9.4,0,0,1,5.83-1.81C186.77,253.25,189,255.11,189,259Zm-2.55,4.2v-2h-3.94c-2.52,0-3.24,1-3.24,2.18,0,1.41,1.17,2.29,3.11,2.29A4.09,4.09,0,0,0,186.4,263.17Z" transform="translate(-0.16)"/><path d="M193.1,265.93a1.7,1.7,0,0,1,1.76-1.7,1.71,1.71,0,0,1,0,3.41A1.71,1.71,0,0,1,193.1,265.93Zm.24-17.07h3l-.5,12.74h-2Z" transform="translate(-0.16)"/><path d="M124.17,299.15c0-4.33,4.66-4.63,4.68-8h2.66c0,4-4.68,4.63-4.68,7.63,0,1.47,1.44,2.64,3.8,2.64a5.67,5.67,0,0,0,4.76-2.1l2,1.38a8.27,8.27,0,0,1-6.87,3C126.67,303.7,124.17,301.94,124.17,299.15Zm4.28-12.26a1.73,1.73,0,0,1,3.46,0,1.73,1.73,0,0,1-3.46,0Z" transform="translate(-0.16)"/><path d="M153.88,297.08v2.31H140.37V280.77h13.14v2.32H143v5.71h9.33v2.27H143v6Z" transform="translate(-0.16)"/><path d="M171.19,291.28v8.11h-2.55v-7.82c0-2.77-1.39-4.12-3.81-4.12-2.71,0-4.46,1.62-4.46,4.68v7.26h-2.56v-14.1h2.45v2.13a6.05,6.05,0,0,1,5.08-2.26C168.77,285.16,171.19,287.13,171.19,291.28Z" transform="translate(-0.16)"/><path d="M196.37,285.29v19.26h-2.55v-7.29a6,6,0,0,1-4.92,2.29,7.2,7.2,0,0,1,0-14.39,6,6,0,0,1,5,2.37v-2.24Zm-2.52,7a4.76,4.76,0,1,0-4.74,5A4.66,4.66,0,0,0,193.85,292.34Z" transform="translate(-0.16)"/><path d="M214.35,285.29v14.1h-2.42v-2.13a5.72,5.72,0,0,1-4.79,2.29c-3.64,0-6.06-2-6.06-6.14v-8.12h2.55v7.82c0,2.77,1.39,4.15,3.81,4.15,2.66,0,4.36-1.65,4.36-4.68v-7.29Z" transform="translate(-0.16)"/><path d="M231.9,293.19H220.47c.31,2.48,2.31,4.13,5.1,4.13a5.25,5.25,0,0,0,4.07-1.71l1.41,1.65a7.08,7.08,0,0,1-5.56,2.29c-4.55,0-7.58-3-7.58-7.21a6.91,6.91,0,0,1,7.08-7.18c4.07,0,7,2.93,7,7.26A7.21,7.21,0,0,1,231.9,293.19Zm-11.43-1.83h9a4.55,4.55,0,0,0-9,0Z" transform="translate(-0.16)"/><path d="M257.25,292.34a6.85,6.85,0,0,1-7.13,7.21,6,6,0,0,1-4.92-2.29v7.29h-2.56V285.29h2.45v2.24a6,6,0,0,1,5-2.37A6.84,6.84,0,0,1,257.25,292.34Zm-2.58,0a4.76,4.76,0,1,0-4.76,5A4.66,4.66,0,0,0,254.67,292.34Z" transform="translate(-0.16)"/><path d="M273.92,285.29v14.1H271.5v-2.13a5.72,5.72,0,0,1-4.79,2.29c-3.64,0-6.06-2-6.06-6.14v-8.12h2.55v7.82c0,2.77,1.38,4.15,3.8,4.15,2.66,0,4.37-1.65,4.37-4.68v-7.29Z" transform="translate(-0.16)"/><path d="M291.47,293.19H280c.32,2.48,2.32,4.13,5.11,4.13a5.25,5.25,0,0,0,4.07-1.71l1.41,1.65a7.08,7.08,0,0,1-5.56,2.29c-4.55,0-7.58-3-7.58-7.21a6.91,6.91,0,0,1,7.08-7.18c4.06,0,7,2.93,7,7.26A7.09,7.09,0,0,1,291.47,293.19ZM280,291.36h9.05a4.55,4.55,0,0,0-9.05,0Z" transform="translate(-0.16)"/><path d="M308.36,279.66v19.73h-2.45v-2.23a6,6,0,0,1-5,2.39,7.2,7.2,0,0,1,0-14.39,6,6,0,0,1,4.92,2.26v-7.76Zm-2.53,12.68a4.75,4.75,0,1,0-4.73,5A4.65,4.65,0,0,0,305.83,292.34Z" transform="translate(-0.16)"/><path d="M311.89,292.34a7.33,7.33,0,1,1,7.34,7.21A7,7,0,0,1,311.89,292.34Zm12.08,0a4.76,4.76,0,1,0-4.74,5A4.63,4.63,0,0,0,324,292.34Z" transform="translate(-0.16)"/><path d="M135.93,322.79v8.51h-2.42v-1.86c-.85,1.28-2.42,2-4.63,2-3.19,0-5.21-1.7-5.21-4.15,0-2.26,1.46-4.12,5.66-4.12h4v-.51c0-2.15-1.25-3.4-3.77-3.4a7.13,7.13,0,0,0-4.47,1.52l-1.06-1.92a9.37,9.37,0,0,1,5.82-1.81C133.75,317.07,135.93,318.93,135.93,322.79Zm-2.56,4.2v-2h-3.93c-2.53,0-3.25,1-3.25,2.18,0,1.41,1.17,2.28,3.11,2.28A4.07,4.07,0,0,0,133.37,327Z" transform="translate(-0.16)"/><path d="M152.87,317.21,146,332.71c-1.25,3-2.87,3.91-5,3.91a5.29,5.29,0,0,1-3.61-1.3l1.09-1.92a3.58,3.58,0,0,0,2.52,1c1.23,0,2-.56,2.69-2.18l.45-1-6.22-14.07h2.66l4.92,11.27,4.87-11.27Z" transform="translate(-0.16)"/><path d="M168.4,317.21V331.3H166v-2.13a5.73,5.73,0,0,1-4.79,2.29c-3.64,0-6.06-2-6.06-6.14v-8.11h2.55V325c0,2.76,1.38,4.14,3.8,4.14,2.66,0,4.36-1.64,4.36-4.68v-7.28Z" transform="translate(-0.16)"/><path d="M186.56,311.57V331.3h-2.45v-2.23a6,6,0,0,1-5,2.39,7.2,7.2,0,0,1,0-14.39,6,6,0,0,1,4.92,2.26v-7.76ZM184,324.25a4.75,4.75,0,1,0-4.73,5A4.63,4.63,0,0,0,184,324.25Z" transform="translate(-0.16)"/><path d="M199.67,330.48a4.84,4.84,0,0,1-3.09,1c-2.84,0-4.46-1.57-4.46-4.41v-7.74h-2.4v-2.1h2.4v-3.09h2.55v3.09h4v2.1h-4v7.63a2.08,2.08,0,0,0,2.21,2.37,3.18,3.18,0,0,0,2-.67Z" transform="translate(-0.16)"/><path d="M213.92,322.79v8.51H211.5v-1.86c-.85,1.28-2.42,2-4.62,2-3.2,0-5.22-1.7-5.22-4.15,0-2.26,1.47-4.12,5.67-4.12h4v-.51c0-2.15-1.25-3.4-3.78-3.4a7.12,7.12,0,0,0-4.46,1.52l-1.07-1.92a9.4,9.4,0,0,1,5.83-1.81C211.74,317.07,213.92,318.93,213.92,322.79Zm-2.55,4.2v-2h-3.94c-2.52,0-3.24,1-3.24,2.18,0,1.41,1.17,2.28,3.11,2.28A4.08,4.08,0,0,0,211.37,327Z" transform="translate(-0.16)"/><path d="M226.24,317.07v2.48a4.09,4.09,0,0,0-.59,0c-2.74,0-4.44,1.68-4.44,4.76v7h-2.55V317.21h2.44v2.36C222,317.92,223.76,317.07,226.24,317.07Z" transform="translate(-0.16)"/><path d="M237.88,330.48a4.83,4.83,0,0,1-3.08,1c-2.85,0-4.47-1.57-4.47-4.41v-7.74h-2.39v-2.1h2.39v-3.09h2.55v3.09h4.05v2.1h-4.05v7.63a2.08,2.08,0,0,0,2.21,2.37,3.21,3.21,0,0,0,2-.67Z" transform="translate(-0.16)"/><path d="M253.17,325.11H241.74c.32,2.47,2.31,4.12,5.1,4.12a5.26,5.26,0,0,0,4.07-1.7l1.41,1.64a7,7,0,0,1-5.55,2.29c-4.55,0-7.58-3-7.58-7.21a6.9,6.9,0,0,1,7.07-7.18c4.07,0,7,2.93,7,7.26A7.19,7.19,0,0,1,253.17,325.11Zm-11.43-1.84h9a4.55,4.55,0,0,0-9,0Z" transform="translate(-0.16)"/><path d="M263.84,317.6c0-1.7-1.41-2.87-3.8-2.87a5.7,5.7,0,0,0-4.77,2.1l-1.94-1.38a8.28,8.28,0,0,1,6.89-3c3.83,0,6.3,1.78,6.3,4.74,0,4.44-4.7,4.73-4.7,8.21h-2.66C259.16,321.25,263.84,320.66,263.84,317.6Zm-5.06,12.16a1.72,1.72,0,1,1,1.73,1.7A1.69,1.69,0,0,1,258.78,329.76Z" transform="translate(-0.16)"/><path d="M122.9,228.45a4.15,4.15,0,0,1,4.39-4.13,4,4,0,0,1,3.3,1.36l-1.14,1.09a2.72,2.72,0,0,0-2.1-1,2.64,2.64,0,1,0,0,5.28,2.68,2.68,0,0,0,2.1-1l1.14,1.11a4.06,4.06,0,0,1-3.3,1.36A4.15,4.15,0,0,1,122.9,228.45Z" transform="translate(-0.16)"/><path d="M132.19,224.45H134v3.22h3.85v-3.22h1.77v8H137.8v-3.33H134v3.33h-1.76Z" transform="translate(-0.16)"/><path d="M147.24,230.72h-4.05l-.75,1.74h-1.73l3.64-8h1.75l3.63,8H148Zm-.58-1.34-1.44-3.33-1.44,3.33Z" transform="translate(-0.16)"/><path d="M151.85,225.89h-2.63v-1.44h7v1.44h-2.63v6.57h-1.77Z" transform="translate(-0.16)"/><path d="M164.9,230.26c0,1.38-1.11,2.2-3.25,2.2h-4.13v-8h3.91c2,0,3.06.84,3.06,2.1a1.85,1.85,0,0,1-1,1.74A1.93,1.93,0,0,1,164.9,230.26Zm-5.61-4.51v2h1.93c1,0,1.5-.35,1.5-1s-.54-1-1.5-1Zm3.83,4.36c0-.73-.56-1.05-1.58-1.05h-2.25v2.09h2.25C162.56,231.15,163.12,230.82,163.12,230.11Z" transform="translate(-0.16)"/><path d="M166,228.45a4.42,4.42,0,1,1,4.41,4.15A4.16,4.16,0,0,1,166,228.45Zm7,0a2.63,2.63,0,1,0-2.63,2.65A2.54,2.54,0,0,0,173,228.45Z" transform="translate(-0.16)"/><path d="M177.89,225.89h-2.63v-1.44h7v1.44h-2.63v6.57h-1.76Z" transform="translate(-0.16)"/><circle class="cls-18" cx="368.9" cy="416.24" r="27.54" transform="translate(-132.13 174.43) rotate(-22.68)"/><path class="cls-4" d="M378.37,406.38a9.47,9.47,0,1,1-9.47-9.47A9.47,9.47,0,0,1,378.37,406.38Z" transform="translate(-0.16)"/><path class="cls-4" d="M368.9,443.77a27.49,27.49,0,0,0,21.49-10.33,24.19,24.19,0,0,0-43,0A27.48,27.48,0,0,0,368.9,443.77Z" transform="translate(-0.16)"/><g class="cls-19"><path class="cls-20" d="M325,410.94H316.4L69.62,410.6c-4.42,0-8,4.24-8,9.49l0,145.07c0,5.25,3.57,9.5,8,9.51l238.77.32c4.43,0,8-4.24,8-9.49l0-136.92,9.56-15.46A1.4,1.4,0,0,0,325,410.94Z" transform="translate(-0.16)"/></g><path class="cls-4" d="M325,408.69h-8.6l-246.78-.33c-4.42,0-8,4.34-8,9.7l0,144.8c0,5.36,3.57,9.72,8,9.72l238.77.32c4.42,0,8-4.34,8-9.7l0-136.46,9.56-15.81C326.5,410,326,408.69,325,408.69Z" transform="translate(-0.16)"/><path class="cls-21" d="M67.77,397H66.58v-4.16H62V397H60.86v-9H62v3.87h4.53V388h1.19Z" transform="translate(-0.16)"/><path class="cls-21" d="M76.8,392.78a5.7,5.7,0,0,1-.44,2.31,3.41,3.41,0,0,1-1.26,1.5,3.46,3.46,0,0,1-1.91.52,3.37,3.37,0,0,1-3.16-2,5.43,5.43,0,0,1-.47-2.24v-.65a5.55,5.55,0,0,1,.45-2.3,3.33,3.33,0,0,1,3.16-2.05,3.49,3.49,0,0,1,1.91.52,3.39,3.39,0,0,1,1.27,1.51,5.54,5.54,0,0,1,.45,2.31Zm-1.18-.58a4.1,4.1,0,0,0-.65-2.46,2.12,2.12,0,0,0-1.8-.85,2.1,2.1,0,0,0-1.77.86,3.93,3.93,0,0,0-.66,2.37v.67a4,4,0,0,0,.66,2.43,2.27,2.27,0,0,0,3.57,0,4,4,0,0,0,.65-2.41Z" transform="translate(-0.16)"/><path class="cls-21" d="M81.06,392.5,83.4,388h1.35l-3.1,5.64V397H80.47v-3.36L77.35,388h1.36Z" transform="translate(-0.16)"/><path class="cls-21" d="M94.65,397H88.76v-.82l3.11-3.47a7.46,7.46,0,0,0,1-1.27,2.21,2.21,0,0,0,.26-1,1.6,1.6,0,0,0-.43-1.16,1.48,1.48,0,0,0-1.14-.45,1.77,1.77,0,0,0-1.32.49,1.82,1.82,0,0,0-.47,1.35H88.57a2.68,2.68,0,0,1,.8-2,3,3,0,0,1,2.14-.77,2.86,2.86,0,0,1,2,.66,2.26,2.26,0,0,1,.73,1.75,5.15,5.15,0,0,1-1.69,3.17L90.13,396h4.52Z" transform="translate(-0.16)"/><path class="cls-21" d="M95.94,390.9a.71.71,0,0,1,.18-.49.66.66,0,0,1,.53-.2.65.65,0,0,1,.71.69.68.68,0,0,1-.18.48.69.69,0,0,1-.53.19.67.67,0,0,1-.53-.19A.68.68,0,0,1,95.94,390.9Zm0,5.46a.69.69,0,0,1,.18-.49.65.65,0,0,1,.53-.2.69.69,0,0,1,.53.19.73.73,0,0,1,.18.5.68.68,0,0,1-.18.48.73.73,0,0,1-.53.19.71.71,0,0,1-.53-.19A.68.68,0,0,1,95.94,396.36Z" transform="translate(-0.16)"/><path class="cls-21" d="M104.57,393.11a5.22,5.22,0,0,1-.69,3,2.83,2.83,0,0,1-4.27,0,4.82,4.82,0,0,1-.72-2.85v-1.52a5.07,5.07,0,0,1,.69-2.95,2.43,2.43,0,0,1,2.15-1,2.5,2.5,0,0,1,2.14.93,5,5,0,0,1,.7,2.87Zm-1.15-1.56a4.23,4.23,0,0,0-.41-2.12,1.4,1.4,0,0,0-1.29-.66,1.38,1.38,0,0,0-1.28.66,4,4,0,0,0-.41,2v1.83a4.15,4.15,0,0,0,.43,2.15,1.54,1.54,0,0,0,2.54,0,4.17,4.17,0,0,0,.42-2.07Z" transform="translate(-0.16)"/><path class="cls-21" d="M106.56,392.43,107,388h4.61V389H108l-.27,2.46a2.89,2.89,0,0,1,1.5-.39,2.41,2.41,0,0,1,2,.81,3.13,3.13,0,0,1,.73,2.19,3.06,3.06,0,0,1-.75,2.19,2.71,2.71,0,0,1-2.09.81,2.84,2.84,0,0,1-2-.66,2.65,2.65,0,0,1-.86-1.83h1.08a1.79,1.79,0,0,0,.55,1.16,1.72,1.72,0,0,0,1.17.39,1.56,1.56,0,0,0,1.26-.54,2.31,2.31,0,0,0,.45-1.5,2.06,2.06,0,0,0-.5-1.45,1.64,1.64,0,0,0-1.3-.55,1.9,1.9,0,0,0-1.18.33l-.3.25Z" transform="translate(-0.16)"/><path class="cls-21" d="M117.76,393.41v3.52h-1.19v-9h3.32a3.37,3.37,0,0,1,2.32.75,2.59,2.59,0,0,1,.84,2,2.53,2.53,0,0,1-.82,2,3.5,3.5,0,0,1-2.34.72Zm0-1h2.14a2.15,2.15,0,0,0,1.45-.46,1.62,1.62,0,0,0,.51-1.29,1.69,1.69,0,0,0-.51-1.29,2,2,0,0,0-1.39-.5h-2.2Z" transform="translate(-0.16)"/><path class="cls-21" d="M126.08,387.92l3,7.34,2.93-7.35h1.54v9h-1.18v-3.5l.11-3.78-3,7.29h-.9l-3-7.27.12,3.77v3.5h-1.19v-9Z" transform="translate(-0.16)"/><path d="M77.43,436.77a1.66,1.66,0,0,1-1.7,1.68A1.7,1.7,0,0,1,74,436.77,1.72,1.72,0,0,1,75.73,435,1.69,1.69,0,0,1,77.43,436.77Zm-.21,16.6h-3l.48-12.31h2Z" transform="translate(-0.16)"/><path d="M98.07,430.66v18.61H95.41V441H84.71v8.29H82.05V430.66h2.66v8h10.7v-8Z" transform="translate(-0.16)"/><path d="M102,442.23a7.33,7.33,0,1,1,7.34,7.2A7,7,0,0,1,102,442.23Zm12.08,0a4.75,4.75,0,1,0-4.74,5A4.63,4.63,0,0,0,114.05,442.23Z" transform="translate(-0.16)"/><path d="M120.16,429.54h2.56v19.73h-2.56Z" transform="translate(-0.16)"/><path d="M138.75,440.76v8.51h-2.42v-1.86c-.85,1.28-2.42,2-4.63,2-3.19,0-5.21-1.7-5.21-4.15,0-2.26,1.46-4.12,5.67-4.12h4v-.5c0-2.16-1.25-3.41-3.78-3.41a7.17,7.17,0,0,0-4.47,1.52l-1.06-1.92a9.38,9.38,0,0,1,5.83-1.81C136.57,435,138.75,436.91,138.75,440.76ZM136.2,445v-2h-3.94c-2.52,0-3.24,1-3.24,2.18,0,1.41,1.17,2.29,3.11,2.29A4.09,4.09,0,0,0,136.2,445Z" transform="translate(-0.16)"/><path d="M142.9,447.73a1.69,1.69,0,0,1,1.75-1.7,1.66,1.66,0,0,1,1.71,1.7,1.68,1.68,0,0,1-1.71,1.7A1.7,1.7,0,0,1,142.9,447.73Zm.24-17.07h3l-.5,12.74h-2Z" transform="translate(-0.16)"/><path d="M181.17,441.16v8.11h-2.55v-7.82c0-2.76-1.33-4.12-3.65-4.12-2.55,0-4.23,1.62-4.23,4.68v7.26h-2.55v-7.82c0-2.76-1.33-4.12-3.64-4.12-2.56,0-4.23,1.62-4.23,4.68v7.26h-2.56V435.18h2.45v2.1a5.71,5.71,0,0,1,4.87-2.24,5.23,5.23,0,0,1,4.89,2.61A6.38,6.38,0,0,1,175.4,435C178.83,435,181.17,437,181.17,441.16Z" transform="translate(-0.16)"/><path d="M198.64,443.08H187.2c.32,2.47,2.32,4.12,5.11,4.12a5.28,5.28,0,0,0,4.07-1.7l1.41,1.65a7.08,7.08,0,0,1-5.56,2.28c-4.55,0-7.58-3-7.58-7.2a6.91,6.91,0,0,1,7.08-7.19c4.06,0,7,2.93,7,7.27A7.09,7.09,0,0,1,198.64,443.08Zm-11.44-1.84h9.05a4.55,4.55,0,0,0-9.05,0Z" transform="translate(-0.16)"/><path d="M88,467.09v12.18c0,5-2.53,7.24-7.31,7.24A10.4,10.4,0,0,1,74,484.4l1.22-2a8.64,8.64,0,0,0,5.43,1.83c3.32,0,4.84-1.54,4.84-4.73v-1.12a6.47,6.47,0,0,1-5.08,2.18c-4.07,0-7.16-2.77-7.16-6.83S76.34,467,80.41,467a6.44,6.44,0,0,1,5.21,2.31v-2.18Zm-2.5,6.68a4.5,4.5,0,0,0-4.84-4.58c-2.85,0-4.87,1.84-4.87,4.58a4.86,4.86,0,0,0,9.71,0Z" transform="translate(-0.16)"/><path d="M106,467.09v14.1h-2.42v-2.13a5.73,5.73,0,0,1-4.78,2.29c-3.65,0-6.07-2-6.07-6.15v-8.11h2.55v7.82c0,2.77,1.39,4.15,3.81,4.15,2.66,0,4.36-1.65,4.36-4.68v-7.29Z" transform="translate(-0.16)"/><path d="M109.13,479.7l1.06-2a9.07,9.07,0,0,0,5,1.46c2.36,0,3.35-.72,3.35-1.92,0-3.16-8.91-.42-8.91-6,0-2.53,2.26-4.23,5.88-4.23a10.33,10.33,0,0,1,5.13,1.27l-1.09,2a7.41,7.41,0,0,0-4.07-1.11c-2.23,0-3.33.82-3.33,1.94,0,3.32,8.94.61,8.94,6.09,0,2.55-2.34,4.18-6.09,4.18A10.16,10.16,0,0,1,109.13,479.7Z" transform="translate(-0.16)"/><path d="M132.16,480.36a4.79,4.79,0,0,1-3.09,1c-2.84,0-4.47-1.57-4.47-4.42v-7.74h-2.39v-2.1h2.39V464h2.56v3.09h4v2.1h-4v7.63a2.07,2.07,0,0,0,2.2,2.37,3.25,3.25,0,0,0,2-.66Z" transform="translate(-0.16)"/><path d="M146.41,472.68v8.51H144v-1.87c-.85,1.28-2.42,2-4.63,2-3.19,0-5.21-1.71-5.21-4.15,0-2.26,1.46-4.13,5.66-4.13h4.05v-.5c0-2.16-1.25-3.41-3.78-3.41a7.15,7.15,0,0,0-4.47,1.52l-1.06-1.91a9.31,9.31,0,0,1,5.82-1.81C144.23,467,146.41,468.82,146.41,472.68Zm-2.55,4.2v-2h-3.94c-2.53,0-3.24,1-3.24,2.18,0,1.41,1.17,2.29,3.11,2.29A4.1,4.1,0,0,0,143.86,476.88Z" transform="translate(-0.16)"/><path d="M158.72,467v2.47a4,4,0,0,0-.58,0c-2.74,0-4.44,1.68-4.44,4.76v7h-2.56v-14.1h2.45v2.37C154.49,467.81,156.25,467,158.72,467Z" transform="translate(-0.16)"/><path d="M164.76,461.58H168L163.54,465h-2.4Zm-2.9,5.51h2.55v14.1h-2.55Z" transform="translate(-0.16)"/><path d="M180.45,472.68v8.51H178v-1.87c-.85,1.28-2.42,2-4.63,2-3.19,0-5.21-1.71-5.21-4.15,0-2.26,1.46-4.13,5.66-4.13h4.05v-.5c0-2.16-1.25-3.41-3.78-3.41a7.13,7.13,0,0,0-4.47,1.52l-1.06-1.91a9.31,9.31,0,0,1,5.82-1.81C178.27,467,180.45,468.82,180.45,472.68Zm-2.55,4.2v-2H174c-2.53,0-3.24,1-3.24,2.18,0,1.41,1.17,2.29,3.11,2.29A4.1,4.1,0,0,0,177.9,476.88Z" transform="translate(-0.16)"/><path d="M190.55,479.7l1.07-2a9,9,0,0,0,4.94,1.46c2.37,0,3.36-.72,3.36-1.92,0-3.16-8.91-.42-8.91-6,0-2.53,2.26-4.23,5.87-4.23a10.37,10.37,0,0,1,5.14,1.27l-1.09,2a7.41,7.41,0,0,0-4.07-1.11c-2.24,0-3.33.82-3.33,1.94,0,3.32,8.94.61,8.94,6.09,0,2.55-2.34,4.18-6.09,4.18A10.2,10.2,0,0,1,190.55,479.7Z" transform="translate(-0.16)"/><path d="M216.83,472.68v8.51h-2.42v-1.87c-.85,1.28-2.42,2-4.63,2-3.19,0-5.21-1.71-5.21-4.15,0-2.26,1.46-4.13,5.66-4.13h4.05v-.5c0-2.16-1.25-3.41-3.78-3.41a7.13,7.13,0,0,0-4.47,1.52L205,468.77a9.31,9.31,0,0,1,5.82-1.81C214.65,467,216.83,468.82,216.83,472.68Zm-2.55,4.2v-2h-3.94c-2.53,0-3.25,1-3.25,2.18,0,1.41,1.18,2.29,3.12,2.29A4.1,4.1,0,0,0,214.28,476.88Z" transform="translate(-0.16)"/><path d="M236.16,474.14a6.86,6.86,0,0,1-7.13,7.21,5.94,5.94,0,0,1-5-2.4v2.24h-2.45V461.45h2.55v7.77A6,6,0,0,1,229,467,6.84,6.84,0,0,1,236.16,474.14Zm-2.58,0a4.75,4.75,0,1,0-4.76,5A4.65,4.65,0,0,0,233.58,474.14Z" transform="translate(-0.16)"/><path d="M252.38,475H241c.32,2.47,2.31,4.12,5.1,4.12a5.26,5.26,0,0,0,4.07-1.7l1.41,1.65a7.05,7.05,0,0,1-5.56,2.29c-4.54,0-7.58-3-7.58-7.21a6.9,6.9,0,0,1,7.08-7.18c4.07,0,7,2.92,7,7.26A7.21,7.21,0,0,1,252.38,475ZM241,473.15h9a4.55,4.55,0,0,0-9,0Z" transform="translate(-0.16)"/><path d="M263.55,467v2.47a4,4,0,0,0-.58,0c-2.74,0-4.44,1.68-4.44,4.76v7H256v-14.1h2.45v2.37C259.32,467.81,261.08,467,263.55,467Z" transform="translate(-0.16)"/><path d="M272.25,479.7l1.06-2a9.07,9.07,0,0,0,4.95,1.46c2.37,0,3.35-.72,3.35-1.92,0-3.16-8.91-.42-8.91-6,0-2.53,2.26-4.23,5.88-4.23a10.33,10.33,0,0,1,5.13,1.27l-1.09,2a7.41,7.41,0,0,0-4.07-1.11c-2.23,0-3.32.82-3.32,1.94,0,3.32,8.93.61,8.93,6.09,0,2.55-2.34,4.18-6.09,4.18A10.16,10.16,0,0,1,272.25,479.7Z" transform="translate(-0.16)"/><path d="M286.9,462.73a1.68,1.68,0,0,1,1.73-1.68,1.66,1.66,0,0,1,1.73,1.62,1.68,1.68,0,0,1-1.73,1.71A1.66,1.66,0,0,1,286.9,462.73Zm.45,4.36h2.56v14.1h-2.56Z" transform="translate(-0.16)"/><path d="M82.48,512.27a4.78,4.78,0,0,1-3.08,1c-2.85,0-4.47-1.57-4.47-4.42V501.1h-2.4V499h2.4v-3.08h2.55V499h4v2.1h-4v7.64a2.08,2.08,0,0,0,2.21,2.36,3.24,3.24,0,0,0,2-.66Z" transform="translate(-0.16)"/><path d="M85.11,494.64A1.69,1.69,0,0,1,86.84,493a1.65,1.65,0,0,1,1.73,1.63,1.73,1.73,0,0,1-3.46.05Zm.45,4.36h2.56v14.1H85.56Z" transform="translate(-0.16)"/><path d="M105.67,506.9H94.23c.32,2.47,2.32,4.12,5.11,4.12a5.24,5.24,0,0,0,4.07-1.7l1.41,1.65a7.08,7.08,0,0,1-5.56,2.29c-4.55,0-7.58-3-7.58-7.21a6.9,6.9,0,0,1,7.08-7.18c4.06,0,7,2.92,7,7.26A7.09,7.09,0,0,1,105.67,506.9Zm-11.44-1.83h9a4.55,4.55,0,0,0-9,0Z" transform="translate(-0.16)"/><path d="M122.64,505v8.11h-2.56v-7.82c0-2.77-1.38-4.12-3.8-4.12-2.71,0-4.47,1.62-4.47,4.68v7.26h-2.55V499h2.45v2.13a6,6,0,0,1,5.08-2.26C120.22,498.87,122.64,500.84,122.64,505Z" transform="translate(-0.16)"/><path d="M140.14,506.9H128.7c.32,2.47,2.31,4.12,5.11,4.12a5.22,5.22,0,0,0,4.06-1.7l1.41,1.65a7,7,0,0,1-5.55,2.29c-4.55,0-7.58-3-7.58-7.21a6.9,6.9,0,0,1,7.07-7.18c4.07,0,7,2.92,7,7.26C140.19,506.34,140.16,506.66,140.14,506.9Zm-11.44-1.83h9a4.55,4.55,0,0,0-9,0Z" transform="translate(-0.16)"/><path d="M157.1,505v8.11h-2.55v-7.82c0-2.77-1.38-4.12-3.8-4.12-2.72,0-4.47,1.62-4.47,4.68v7.26h-2.56V499h2.45v2.13a6,6,0,0,1,5.08-2.26C154.68,498.87,157.1,500.84,157.1,505Z" transform="translate(-0.16)"/><path d="M171.86,497.78V499H176v2.1h-4.05v12h-2.55v-12H167V499h2.39v-1.25c0-2.74,1.65-4.55,4.65-4.55a4.78,4.78,0,0,1,2.88.83l-.77,1.94a3.33,3.33,0,0,0-2-.66C172.63,495.31,171.86,496.16,171.86,497.78Z" transform="translate(-0.16)"/><path d="M176.86,506.05a7.33,7.33,0,1,1,7.34,7.21A7,7,0,0,1,176.86,506.05Zm12.07,0a4.75,4.75,0,1,0-4.73,5A4.62,4.62,0,0,0,188.93,506.05Z" transform="translate(-0.16)"/><path d="M193.75,506.05c0-4.2,3.11-7.18,7.44-7.18a6.31,6.31,0,0,1,5.75,3L205,503.12a4.41,4.41,0,0,0-3.83-2,5,5,0,0,0,0,9.92,4.39,4.39,0,0,0,3.83-2l1.94,1.23a6.33,6.33,0,0,1-5.75,3A7.06,7.06,0,0,1,193.75,506.05Z" transform="translate(-0.16)"/><path d="M208.72,506.05a7.33,7.33,0,1,1,7.34,7.21A7,7,0,0,1,208.72,506.05Zm12.07,0a4.75,4.75,0,1,0-4.73,5A4.62,4.62,0,0,0,220.79,506.05Z" transform="translate(-0.16)"/><path d="M225.13,511.61l1.06-2a9.07,9.07,0,0,0,4.95,1.46c2.36,0,3.35-.72,3.35-1.91,0-3.17-8.91-.43-8.91-6,0-2.53,2.26-4.23,5.88-4.23a10.23,10.23,0,0,1,5.13,1.28l-1.09,2a7.34,7.34,0,0,0-4.07-1.12c-2.24,0-3.33.82-3.33,1.94,0,3.33,8.94.61,8.94,6.09,0,2.56-2.34,4.18-6.09,4.18A10.16,10.16,0,0,1,225.13,511.61Z" transform="translate(-0.16)"/><path d="M247.38,493.36h2.56V513.1h-2.56Z" transform="translate(-0.16)"/><path d="M267.49,506.9H256.05c.32,2.47,2.32,4.12,5.11,4.12a5.24,5.24,0,0,0,4.07-1.7l1.41,1.65a7.08,7.08,0,0,1-5.56,2.29c-4.55,0-7.58-3-7.58-7.21a6.9,6.9,0,0,1,7.08-7.18c4.06,0,7,2.92,7,7.26A7.09,7.09,0,0,1,267.49,506.9Zm-11.44-1.83h9.05a4.55,4.55,0,0,0-9.05,0Z" transform="translate(-0.16)"/><path d="M284.38,493.36V513.1h-2.45v-2.24a5.94,5.94,0,0,1-5,2.4,7.2,7.2,0,0,1,0-14.39,6,6,0,0,1,4.92,2.26v-7.77Zm-2.53,12.69a4.75,4.75,0,1,0-4.73,5A4.64,4.64,0,0,0,281.85,506.05Z" transform="translate(-0.16)"/><path d="M87.85,525.28V545H85.41v-2.23a6,6,0,0,1-5,2.39,7.2,7.2,0,0,1,0-14.39A6,6,0,0,1,85.3,533v-7.76ZM85.33,538a4.76,4.76,0,1,0-4.74,5A4.64,4.64,0,0,0,85.33,538Z" transform="translate(-0.16)"/><path d="M92.24,526.55A1.67,1.67,0,0,1,94,524.88a1.66,1.66,0,1,1-1.73,1.67Zm.45,4.36h2.56V545H92.69Z" transform="translate(-0.16)"/><path d="M98.33,543.52l1.06-2a9.07,9.07,0,0,0,5,1.46c2.37,0,3.35-.72,3.35-1.91,0-3.17-8.91-.43-8.91-6,0-2.53,2.26-4.23,5.88-4.23a10.23,10.23,0,0,1,5.13,1.28l-1.09,2a7.29,7.29,0,0,0-4.07-1.12c-2.23,0-3.32.83-3.32,1.94,0,3.33,8.93.61,8.93,6.09,0,2.56-2.34,4.18-6.09,4.18A10.16,10.16,0,0,1,98.33,543.52Z" transform="translate(-0.16)"/><path d="M128,538a6.85,6.85,0,0,1-7.13,7.21,6,6,0,0,1-4.92-2.29v7.29h-2.56V530.91h2.45v2.24a6,6,0,0,1,5-2.37A6.84,6.84,0,0,1,128,538Zm-2.58,0a4.76,4.76,0,1,0-4.76,5A4.65,4.65,0,0,0,125.46,538Z" transform="translate(-0.16)"/><path d="M130.27,538a7.33,7.33,0,1,1,7.34,7.21A7,7,0,0,1,130.27,538Zm12.07,0a4.75,4.75,0,1,0-9.49,0,4.75,4.75,0,1,0,9.49,0Z" transform="translate(-0.16)"/><path d="M161.84,536.9V545h-2.56v-7.82c0-2.77-1.38-4.12-3.8-4.12-2.71,0-4.47,1.62-4.47,4.68V545h-2.55v-14.1h2.44V533a6.07,6.07,0,0,1,5.08-2.26C159.42,530.78,161.84,532.75,161.84,536.9Z" transform="translate(-0.16)"/><path d="M166.12,526.55a1.67,1.67,0,0,1,1.72-1.67,1.65,1.65,0,0,1,1.73,1.62,1.73,1.73,0,0,1-3.45,0Zm.45,4.36h2.55V545h-2.55Z" transform="translate(-0.16)"/><path d="M188.59,538a6.87,6.87,0,0,1-7.13,7.21,6,6,0,0,1-5-2.39V545H174V525.28h2.55V533a6,6,0,0,1,4.92-2.26A6.84,6.84,0,0,1,188.59,538ZM186,538a4.76,4.76,0,1,0-4.76,5A4.64,4.64,0,0,0,186,538Z" transform="translate(-0.16)"/><path d="M192.12,525.28h2.56V545h-2.56Z" transform="translate(-0.16)"/><path d="M212.23,538.81H200.79c.32,2.48,2.32,4.13,5.11,4.13a5.25,5.25,0,0,0,4.07-1.71l1.41,1.65a7.08,7.08,0,0,1-5.56,2.29c-4.55,0-7.58-3-7.58-7.21a6.9,6.9,0,0,1,7.07-7.18c4.07,0,7,2.93,7,7.26A7.09,7.09,0,0,1,212.23,538.81ZM200.79,537h9.05a4.55,4.55,0,0,0-9.05,0Z" transform="translate(-0.16)"/><path d="M214,543.52l1.06-2a9.07,9.07,0,0,0,5,1.46c2.36,0,3.35-.72,3.35-1.91,0-3.17-8.91-.43-8.91-6,0-2.53,2.26-4.23,5.88-4.23a10.23,10.23,0,0,1,5.13,1.28l-1.09,2a7.34,7.34,0,0,0-4.07-1.12c-2.23,0-3.33.83-3.33,1.94,0,3.33,8.94.61,8.94,6.09,0,2.56-2.34,4.18-6.09,4.18A10.16,10.16,0,0,1,214,543.52Z" transform="translate(-0.16)"/><path d="M227.94,543.33a1.78,1.78,0,0,1,1.81-1.8,1.75,1.75,0,0,1,1.76,1.8,1.78,1.78,0,0,1-1.76,1.84A1.8,1.8,0,0,1,227.94,543.33Z" transform="translate(-0.16)"/></g></g></g></svg>