<svg xmlns="http://www.w3.org/2000/svg" viewBox="0 0 299.4 303.19"><defs><style>.cls-1{fill:#bb4d00;}.cls-2{fill:#537ca5;}.cls-3{fill:#89b3e5;}.cls-4{fill:#fff;}.cls-5{fill:#f57c00;}</style></defs><title>Recurso 19svg</title><g id="Capa_2" data-name="Capa 2"><g id="Layer_1" data-name="Layer 1"><polygon class="cls-1" points="228.07 212.22 189.28 212.22 208.67 189.28 228.07 166.34 247.46 189.28 266.85 212.22 228.07 212.22"/><rect class="cls-1" x="203.84" y="212.22" width="48.45" height="75.92"/><polygon class="cls-1" points="243.79 288.14 252.29 288.14 257.55 280.92 241.28 281.72 243.79 288.14"/><polygon class="cls-1" points="266.85 212.22 272.11 205 253.76 202.62 262.94 208.49 266.85 212.22"/><circle class="cls-2" cx="67.11" cy="74.02" r="67.11"/><circle class="cls-3" cx="71.15" cy="67.11" r="67.11"/><circle class="cls-4" cx="71.15" cy="43.07" r="23.06"/><path class="cls-4" d="M71.15,134.22A67,67,0,0,0,123.52,109a59,59,0,0,0-104.74,0A67.08,67.08,0,0,0,71.15,134.22Z"/><circle class="cls-2" cx="228.19" cy="74.02" r="67.11"/><circle class="cls-3" cx="232.29" cy="67.11" r="67.11"/><circle class="cls-4" cx="232.29" cy="43.07" r="23.06"/><path class="cls-4" d="M232.29,134.22A67,67,0,0,0,284.65,109a58.95,58.95,0,0,0-104.73,0A66.9,66.9,0,0,0,232.29,134.22Z"/><circle class="cls-2" cx="69.13" cy="236.08" r="67.11"/><circle class="cls-3" cx="73.23" cy="229.17" r="67.11"/><circle class="cls-4" cx="73.23" cy="205.12" r="23.06"/><path class="cls-4" d="M73.23,296.28a67,67,0,0,0,52.37-25.21,59,59,0,0,0-104.74,0A66.87,66.87,0,0,0,73.23,296.28Z"/><polygon class="cls-5" points="233.33 205 194.54 205 213.93 182.06 233.33 159.12 252.72 182.06 272.11 205 233.33 205"/><rect class="cls-5" x="209.1" y="205" width="48.45" height="75.92"/></g></g></svg>