<?xml version="1.0" encoding="UTF-8" standalone="no"?>
<!DOCTYPE svg PUBLIC "-//W3C//DTD SVG 1.1//EN" "http://www.w3.org/Graphics/SVG/1.1/DTD/svg11.dtd">
<svg width="100%" height="100%" viewBox="0 0 418 520" version="1.1" xmlns="http://www.w3.org/2000/svg" xmlns:xlink="http://www.w3.org/1999/xlink" xml:space="preserve" xmlns:serif="http://www.serif.com/" style="fill-rule:evenodd;clip-rule:evenodd;stroke-linejoin:round;stroke-miterlimit:1.41421;">
    <g id="Layer_1">
        <clipPath id="_clip1">
            <rect x="0" y="0" width="417.51" height="519.622"/>
        </clipPath>
        <g clip-path="url(#_clip1)">
            <path d="M417.51,28.16C417.51,12.618 404.892,0 389.35,0L28.16,0C12.618,0 0,12.618 0,28.16L0,804.52C0,820.062 12.618,832.68 28.16,832.68L389.35,832.68C404.892,832.68 417.51,820.062 417.51,804.52L417.51,28.16Z" style="fill:rgb(181,181,181);"/>
            <path d="M415.22,32.73C415.22,17.188 402.602,4.57 387.06,4.57L31.32,4.57C15.778,4.57 3.16,17.188 3.16,32.73L3.16,798.21C3.16,813.752 15.778,826.37 31.32,826.37L387.06,826.37C402.602,826.37 415.22,813.752 415.22,798.21L415.22,32.73Z" style="fill:white;"/>
            <g transform="matrix(1,0,0,1,-1.18,-0.97)">
                <path d="M249.76,45.3L167.57,45.3C165.985,45.3 164.68,43.995 164.68,42.41C164.68,42.41 164.68,42.41 164.68,42.41C164.68,40.83 165.98,39.53 167.56,39.53C167.563,39.53 167.567,39.53 167.57,39.53L249.76,39.53C251.34,39.53 252.64,40.83 252.64,42.41C252.64,42.413 252.64,42.417 252.64,42.42C252.64,44 251.34,45.3 249.76,45.3C249.76,45.3 249.76,45.3 249.76,45.3Z" style="fill:rgb(83,83,83);fill-rule:nonzero;"/>
            </g>
            <rect x="14.88" y="152.2" width="387.75" height="603.38" style="fill:rgb(232,232,232);"/>
            <g transform="matrix(1,0,0,1,-1.18,-0.97)">
                <path d="M54.15,215.49L62.75,215.49L309.53,215.16C313.95,215.16 317.53,219.4 317.53,224.65L317.53,416.15C317.53,421.4 313.95,425.65 309.53,425.66L70.82,426C66.4,426 62.82,421.76 62.82,416.51L62.82,233.16L53.26,217.7C53.083,217.459 52.987,217.168 52.987,216.87C52.987,216.191 53.481,215.605 54.15,215.49Z" style="fill:rgb(39,36,37);fill-rule:nonzero;"/>
            </g>
            <g transform="matrix(1,0,0,1,-1.18,-0.97)">
                <path d="M54.14,213.23L62.75,213.23L309.53,212.9C313.95,212.9 317.53,217.24 317.53,222.61L317.53,413.84C317.53,419.2 313.96,423.56 309.53,423.56L70.76,423.88C66.34,423.88 62.76,419.54 62.76,414.18L62.76,231.28L53.2,215.47C52.66,214.54 53.2,213.24 54.14,213.23Z" style="fill:white;fill-rule:nonzero;"/>
            </g>
            <g transform="matrix(1,0,0,1,55.33,200.6)">
                <text x="0px" y="0px" style="font-family:'ArialMT', 'Arial', sans-serif;font-size:12.66px;fill:rgb(154,154,154);">H</text>
                <g transform="matrix(1,0,0,1,9.02,0)">
                    <text x="0px" y="0px" style="font-family:'ArialMT', 'Arial', sans-serif;font-size:12.66px;fill:rgb(154,154,154);">O</text>
                </g>
                <g transform="matrix(1,0,0,1,17.46,0)">
                    <text x="0px" y="0px" style="font-family:'ArialMT', 'Arial', sans-serif;font-size:12.66px;fill:rgb(154,154,154);">Y<tspan x="8.215px 11.733px " y="0px 0px "> 5</tspan>:18 PM</text>
                </g>
            </g>
            <g transform="matrix(1,0,0,1,73.42,256.71)">
                <text x="0px" y="0px" style="font-family:'LucidaGrande', 'Lucida Grande', sans-serif;font-weight:500;font-size:16.85px;">¡G</text>
                <g transform="matrix(1,0,0,1,17.52,0)">
                    <text x="0px" y="0px" style="font-family:'LucidaGrande', 'Lucida Grande', sans-serif;font-weight:500;font-size:16.85px;">r</text>
                </g>
                <g transform="matrix(1,0,0,1,24.29,0)">
                    <text x="0px" y="0px" style="font-family:'LucidaGrande', 'Lucida Grande', sans-serif;font-weight:500;font-size:16.85px;">a</text>
                </g>
                <g transform="matrix(1,0,0,1,34.42,0)">
                    <text x="0px" y="0px" style="font-family:'LucidaGrande', 'Lucida Grande', sans-serif;font-weight:500;font-size:16.85px;">cias por tu</text>
                </g>
                <g transform="matrix(1,0,0,1,128.33,0)">
                    <text x="0px" y="0px" style="font-family:'LucidaGrande', 'Lucida Grande', sans-serif;font-weight:500;font-size:16.85px;">c</text>
                </g>
                <g transform="matrix(1,0,0,1,137.82,0)">
                    <text x="0px" y="0px" style="font-family:'LucidaGrande', 'Lucida Grande', sans-serif;font-weight:500;font-size:16.85px;">omp</text>
                </g>
                <g transform="matrix(1,0,0,1,177.81,0)">
                    <text x="0px" y="0px" style="font-family:'LucidaGrande', 'Lucida Grande', sans-serif;font-weight:500;font-size:16.85px;">r</text>
                </g>
                <g transform="matrix(1,0,0,1,184.59,0)">
                    <text x="0px" y="0px" style="font-family:'LucidaGrande', 'Lucida Grande', sans-serif;font-weight:500;font-size:16.85px;">a el</text>
                </g>
                <g transform="matrix(1,0,0,1,0,20.22)">
                    <text x="0px" y="0px" style="font-family:'LucidaGrande', 'Lucida Grande', sans-serif;font-weight:500;font-size:16.85px;">28</text>
                </g>
                <g transform="matrix(1,0,0,1,20.52,20.22)">
                    <text x="0px" y="0px" style="font-family:'LucidaGrande', 'Lucida Grande', sans-serif;font-weight:500;font-size:16.85px;">/</text>
                </g>
                <g transform="matrix(1,0,0,1,26.11,20.22)">
                    <text x="0px" y="0px" style="font-family:'LucidaGrande', 'Lucida Grande', sans-serif;font-weight:500;font-size:16.85px;">0</text>
                </g>
                <g transform="matrix(1,0,0,1,37.3,20.22)">
                    <text x="0px" y="0px" style="font-family:'LucidaGrande', 'Lucida Grande', sans-serif;font-weight:500;font-size:16.85px;">2</text>
                </g>
                <g transform="matrix(1,0,0,1,47.14,20.22)">
                    <text x="0px" y="0px" style="font-family:'LucidaGrande', 'Lucida Grande', sans-serif;font-weight:500;font-size:16.85px;">/</text>
                </g>
                <g transform="matrix(1,0,0,1,53.58,20.22)">
                    <text x="0px" y="0px" style="font-family:'LucidaGrande', 'Lucida Grande', sans-serif;font-weight:500;font-size:16.85px;">19 por</text>
                </g>
                <g transform="matrix(1,0,0,1,108.37,20.22)">
                    <text x="0px" y="0px" style="font-family:'LucidaGrande', 'Lucida Grande', sans-serif;font-weight:500;font-size:16.85px;">$</text>
                </g>
                <g transform="matrix(1,0,0,1,118.66,20.22)">
                    <text x="0px" y="0px" style="font-family:'LucidaGrande', 'Lucida Grande', sans-serif;font-weight:500;font-size:16.85px;">100</text>
                </g>
                <g transform="matrix(1,0,0,1,147.37,20.22)">
                    <text x="0px" y="0px" style="font-family:'LucidaGrande', 'Lucida Grande', sans-serif;font-weight:500;font-size:16.85px;">0.</text>
                </g>
                <g transform="matrix(1,0,0,1,162.03,20.22)">
                    <text x="0px" y="0px" style="font-family:'LucidaGrande', 'Lucida Grande', sans-serif;font-weight:500;font-size:16.85px;">00</text>
                </g>
                <g transform="matrix(1,0,0,1,0,40.44)">
                    <text x="0px" y="0px" style="font-family:'LucidaGrande', 'Lucida Grande', sans-serif;font-weight:500;font-size:16.85px;">pesos en SU</text>
                </g>
                <g transform="matrix(1,0,0,1,104.02,40.44)">
                    <text x="0px" y="0px" style="font-family:'LucidaGrande', 'Lucida Grande', sans-serif;font-weight:500;font-size:16.85px;">P</text>
                </g>
                <g transform="matrix(1,0,0,1,116.02,40.44)">
                    <text x="0px" y="0px" style="font-family:'LucidaGrande', 'Lucida Grande', sans-serif;font-weight:500;font-size:16.85px;">ERMER</text>
                </g>
                <g transform="matrix(1,0,0,1,179.18,40.44)">
                    <text x="0px" y="0px" style="font-family:'LucidaGrande', 'Lucida Grande', sans-serif;font-weight:500;font-size:16.85px;">C</text>
                </g>
                <g transform="matrix(1,0,0,1,191.07,40.44)">
                    <text x="0px" y="0px" style="font-family:'LucidaGrande', 'Lucida Grande', sans-serif;font-weight:500;font-size:16.85px;">ADO</text>
                </g>
                <g transform="matrix(1,0,0,1,0,60.65)">
                    <text x="0px" y="0px" style="font-family:'LucidaGrande', 'Lucida Grande', sans-serif;font-weight:500;font-size:16.85px;">c</text>
                </g>
                <g transform="matrix(1,0,0,1,9.49,60.65)">
                    <text x="0px" y="0px" style="font-family:'LucidaGrande', 'Lucida Grande', sans-serif;font-weight:500;font-size:16.85px;">on tu tarjeta 8</text>
                </g>
                <g transform="matrix(1,0,0,1,130.59,60.65)">
                    <text x="0px" y="0px" style="font-family:'LucidaGrande', 'Lucida Grande', sans-serif;font-weight:500;font-size:16.85px;">7</text>
                </g>
                <g transform="matrix(1,0,0,1,140.36,60.65)">
                    <text x="0px" y="0px" style="font-family:'LucidaGrande', 'Lucida Grande', sans-serif;font-weight:500;font-size:16.85px;">5</text>
                </g>
                <g transform="matrix(1,0,0,1,150.03,60.65)">
                    <text x="0px" y="0px" style="font-family:'LucidaGrande', 'Lucida Grande', sans-serif;font-weight:500;font-size:16.85px;">6</text>
                </g>
                <g transform="matrix(1,0,0,1,160.6,60.65)">
                    <text x="0px" y="0px" style="font-family:'LucidaGrande', 'Lucida Grande', sans-serif;font-weight:500;font-size:16.85px;">.</text>
                </g>
                <g transform="matrix(1,0,0,1,0,80.87)">
                    <text x="0px" y="0px" style="font-family:'LucidaGrande', 'Lucida Grande', sans-serif;font-weight:500;font-size:16.85px;">A</text>
                </g>
                <g transform="matrix(1,0,0,1,12.25,80.87)">
                    <text x="0px" y="0px" style="font-family:'LucidaGrande', 'Lucida Grande', sans-serif;font-weight:500;font-size:16.85px;">c</text>
                </g>
                <g transform="matrix(1,0,0,1,21.75,80.87)">
                    <text x="0px" y="0px" style="font-family:'LucidaGrande', 'Lucida Grande', sans-serif;font-weight:500;font-size:16.85px;">la</text>
                </g>
                <g transform="matrix(1,0,0,1,36.53,80.87)">
                    <text x="0px" y="0px" style="font-family:'LucidaGrande', 'Lucida Grande', sans-serif;font-weight:500;font-size:16.85px;">r</text>
                </g>
                <g transform="matrix(1,0,0,1,43.3,80.87)">
                    <text x="0px" y="0px" style="font-family:'LucidaGrande', 'Lucida Grande', sans-serif;font-weight:500;font-size:16.85px;">a</text>
                </g>
                <g transform="matrix(1,0,0,1,53.43,80.87)">
                    <text x="0px" y="0px" style="font-family:'LucidaGrande', 'Lucida Grande', sans-serif;font-weight:500;font-size:16.85px;">cio</text>
                </g>
                <g transform="matrix(1,0,0,1,78.45,80.87)">
                    <text x="0px" y="0px" style="font-family:'LucidaGrande', 'Lucida Grande', sans-serif;font-weight:500;font-size:16.85px;">n</text>
                </g>
                <g transform="matrix(1,0,0,1,89.97,80.87)">
                    <text x="0px" y="0px" style="font-family:'LucidaGrande', 'Lucida Grande', sans-serif;font-weight:500;font-size:16.85px;">es</text>
                </g>
                <g transform="matrix(1,0,0,1,113.25,80.87)">
                    <text x="0px" y="0px" style="font-family:'LucidaGrande', 'Lucida Grande', sans-serif;font-weight:500;font-size:16.85px;">0</text>
                </g>
                <g transform="matrix(1,0,0,1,124.44,80.87)">
                    <text x="0px" y="0px" style="font-family:'LucidaGrande', 'Lucida Grande', sans-serif;font-weight:500;font-size:16.85px;">1 800</text>
                </g>
                <g transform="matrix(1,0,0,1,0,101.09)">
                    <text x="0px" y="0px" style="font-family:'LucidaGrande', 'Lucida Grande', sans-serif;font-weight:500;font-size:16.85px;">651</text>
                </g>
                <g transform="matrix(1,0,0,1,26.3,101.09)">
                    <text x="0px" y="0px" style="font-family:'LucidaGrande', 'Lucida Grande', sans-serif;font-weight:500;font-size:16.85px;">4</text>
                </g>
                <g transform="matrix(1,0,0,1,37.52,101.09)">
                    <text x="0px" y="0px" style="font-family:'LucidaGrande', 'Lucida Grande', sans-serif;font-weight:500;font-size:16.85px;">231682</text>
                </g>
            </g>
            <rect x="15.31" y="78.88" width="387.75" height="73.22" style="fill:rgb(249,249,249);"/>
            <path d="M50.47,112.21L37.77,112.21L43.3,105.86L41.64,104.41L33.84,113.35L41.66,121.68L43.28,120.16L37.89,114.42L50.47,114.42L50.47,112.21Z" style="fill-rule:nonzero;"/>
            <g transform="matrix(1,0,0,1,-1.18,-0.97)">
                <path d="M389.14,106C389.14,107.289 388.079,108.35 386.79,108.35C385.501,108.35 384.44,107.289 384.44,106C384.44,104.711 385.501,103.65 386.79,103.65C388.079,103.65 389.14,104.711 389.14,106Z" style="fill-rule:nonzero;"/>
            </g>
            <g transform="matrix(1,0,0,1,-1.18,-0.97)">
                <path d="M389.14,112.47C389.14,113.759 388.079,114.82 386.79,114.82C385.501,114.82 384.44,113.759 384.44,112.47C384.44,111.181 385.501,110.12 386.79,110.12C388.079,110.12 389.14,111.181 389.14,112.47Z" style="fill-rule:nonzero;"/>
            </g>
            <g transform="matrix(1,0,0,1,-1.18,-0.97)">
                <path d="M389.14,118.81C389.14,120.099 388.079,121.16 386.79,121.16C385.501,121.16 384.44,120.099 384.44,118.81C384.44,117.521 385.501,116.46 386.79,116.46C388.079,116.46 389.14,117.521 389.14,118.81Z" style="fill-rule:nonzero;"/>
            </g>
            <g transform="matrix(1,0,0,1,66.98,120.19)">
                <text x="0px" y="0px" style="font-family:'Roboto-Medium', 'Roboto';font-weight:500;font-size:19.46px;">BANCO</text>
            </g>
        </g>
    </g>
</svg>
