<svg xmlns="http://www.w3.org/2000/svg" viewBox="0 0 167.59 90.52"><title>Recurso 15svg</title><g id="Capa_2" data-name="Capa 2"><g id="Layer_1" data-name="Layer 1"><path d="M162.17,0H5.42A5.4,5.4,0,0,0,0,5.42V85.1a5.4,5.4,0,0,0,5.42,5.42H162.17a5.4,5.4,0,0,0,5.42-5.42V5.42A5.4,5.4,0,0,0,162.17,0ZM56,55.59a11.71,11.71,0,0,1-3,3.22,14.64,14.64,0,0,1-4.42,1.8,22,22,0,0,1-5.22.6A29.27,29.27,0,0,1,35.12,60,26.27,26.27,0,0,1,27.9,56.8l3.41-6.42a18.45,18.45,0,0,0,1.81,1.4c.8.4,1.8,1,2.81,1.41a15.46,15.46,0,0,0,3.61,1,27.24,27.24,0,0,0,4,.4c3.82,0,5.62-1,5.62-3a2.31,2.31,0,0,0-.6-1.61A5.45,5.45,0,0,0,47,48.77a17.86,17.86,0,0,0-2.6-1c-1-.2-2.21-.6-3.62-1-2-.6-3.81-1-5.22-1.6a15.65,15.65,0,0,1-3.61-2,6.07,6.07,0,0,1-2-2.61,9.19,9.19,0,0,1-.61-3.41,11.05,11.05,0,0,1,1-4.62,9.19,9.19,0,0,1,2.81-3.41,13.67,13.67,0,0,1,4.21-2,21.46,21.46,0,0,1,5.22-.61,20.76,20.76,0,0,1,7.22,1.21,24,24,0,0,1,5.62,2.61l-2.81,5.82a13.34,13.34,0,0,0-1.4-1,7.45,7.45,0,0,0-2.21-1,10.91,10.91,0,0,0-3-.8,17.69,17.69,0,0,0-3.41-.41,7.54,7.54,0,0,0-4,.81,2.62,2.62,0,0,0-1.4,2.41,2.27,2.27,0,0,0,.6,1.6,12,12,0,0,0,1.61,1.21,9.86,9.86,0,0,0,2.61.8c1,.2,2.2.6,3.41.8A27,27,0,0,1,50.18,42,23.3,23.3,0,0,1,54,44a7.7,7.7,0,0,1,3.21,6.83A8.57,8.57,0,0,1,56,55.59Zm45.55,5.22H94.13V39.54L84.29,55.19h-4L70.65,39.54V60.81H63.22V26.69h8L82.49,45.16,93.73,26.69h7.82Zm33.52-5.22a11.42,11.42,0,0,1-3,3.22,14.58,14.58,0,0,1-4.41,1.8,22,22,0,0,1-5.22.6A29.27,29.27,0,0,1,114.2,60,26.47,26.47,0,0,1,107,56.8l3.42-6.42a19.37,19.37,0,0,0,1.8,1.4c.81.4,1.81,1,2.81,1.41a15.75,15.75,0,0,0,3.61,1,27.37,27.37,0,0,0,4,.4c3.81,0,5.62-1,5.62-3a2.31,2.31,0,0,0-.6-1.61,5.59,5.59,0,0,0-1.61-1.2,17.59,17.59,0,0,0-2.61-1c-1-.2-2.21-.6-3.61-1-2-.6-3.81-1-5.22-1.6a15.45,15.45,0,0,1-3.61-2,6,6,0,0,1-2-2.61,9.4,9.4,0,0,1-.6-3.41,11.21,11.21,0,0,1,1-4.62,9.28,9.28,0,0,1,2.81-3.41,13.73,13.73,0,0,1,4.22-2,21.4,21.4,0,0,1,5.22-.61,20.84,20.84,0,0,1,7.22,1.21,24,24,0,0,1,5.62,2.61l-2.81,5.82a13.34,13.34,0,0,0-1.4-1,7.57,7.57,0,0,0-2.21-1,11,11,0,0,0-3-.8,17.79,17.79,0,0,0-3.41-.41,7.52,7.52,0,0,0-4,.81,2.62,2.62,0,0,0-1.4,2.41,2.27,2.27,0,0,0,.6,1.6,11.88,11.88,0,0,0,1.6,1.21,10.1,10.1,0,0,0,2.61.8c1,.2,2.21.6,3.41.8A26.54,26.54,0,0,1,129.25,42a23,23,0,0,1,3.82,2,7.76,7.76,0,0,1,3.21,6.83A8.48,8.48,0,0,1,135.07,55.59Z"/></g></g></svg>