<svg fill="#9B9B9B"  xmlns="http://www.w3.org/2000/svg" viewBox="0 0 88.95 146.68"><title>Recurso 8svg</title><g id="Capa_2" data-name="Capa 2"><g id="Layer_1" data-name="Layer 1"><path d="M80.06,146.68H8.9c-8.9,0-8.9-8.9-8.9-8.9V35.58A33.42,33.42,0,0,1,4.35,20C7.51,15.81,11.66,10.48,15,6.33A18.35,18.35,0,0,1,28.66,0H60.29C69,0,73.73,6.33,73.93,6.33,77.29,10.48,81.44,16,84.61,20A33.48,33.48,0,0,1,89,35.58v102.2S89,146.68,80.06,146.68ZM44.48,22.14A8.9,8.9,0,1,0,53.37,31,8.86,8.86,0,0,0,44.48,22.14Z"/></g></g></svg>