<?xml version="1.0" encoding="utf-8"?>
<!-- Generator: Adobe Illustrator 19.0.0, SVG Export Plug-In . SVG Version: 6.00 Build 0)  -->
<svg version="1.1" id="Layer_1" xmlns="http://www.w3.org/2000/svg" xmlns:xlink="http://www.w3.org/1999/xlink" x="0px" y="0px"
	 viewBox="-638 1064 139.6 139.7" style="enable-background:new -638 1064 139.6 139.7;" xml:space="preserve">
<style type="text/css">
	.st0{fill:#FFFFFF;stroke:#FCFCFC;stroke-miterlimit:10;}
</style>
<title>Recurso 16svg</title>
<g id="Capa_2">
	<g id="Layer_1_1_">
		<path class="st0" d="M-567.1,1064c-37.9,0-68.6,30.7-68.6,68.6c0,0,0,0,0,0.1c0,12,3.1,23.7,9,34.1l-11.2,33.7
			c-0.2,0.9,0,1.7,0.6,2.4c0.4,0.5,1,0.7,1.6,0.8h0.6l36.9-9.6c9.7,4.9,20.3,7.4,31.1,7.4c38,0,68.7-30.8,68.7-68.8
			C-498.4,1094.8-529.1,1064-567.1,1064z M-524.1,1164l-4,4c-5.2,5.2-10.8,7.8-17.1,7.8l0,0c-8.4,0-17.3-4.8-26.7-14.3l-23.8-23.7
			c-7.4-7.4-12-14.6-13.4-21.5c-2-8.2,0.4-15.8,7.2-22.5l4-4c2.7-2.6,6.8-3.2,10.2-1.6c6.2,3.2,12.6,14,13.3,15.3
			c1.1,2,1.6,4.3,1.2,6.6c-0.4,1.5-1.4,2.9-2.8,3.6c-1.8,1.6-4,3.6-4.4,4c-2.4,3.4-2,6.2,1,9.2l18.5,18.5c3,3,5.6,3.4,9.2,1
			c0.4-0.4,2.4-2.6,4-4.4c1.1-1.9,3.2-3.1,5.4-3c1.7,0,3.3,0.5,4.6,1.4c1.2,0.8,12,7.2,15.3,13.2
			C-520.9,1157.2-521.6,1161.2-524.1,1164L-524.1,1164z"/>
	</g>
</g>
</svg>
