<svg xmlns="http://www.w3.org/2000/svg" viewBox="0 0 295.97 204.58"><defs><style>.cls-1{fill:#537ca5;}.cls-2{fill:#f57c00;}</style></defs><title>Recurso 21svg</title><g id="Capa_2" data-name="Capa 2"><g id="Layer_1" data-name="Layer 1"><polygon class="cls-1" points="113.22 65.66 91.77 75.54 91.77 75.54 113.22 65.66"/><path class="cls-1" d="M122.24,78.28H93l-1.26-2.74,21.45-9.88a16.91,16.91,0,0,1,9,12.62Z"/><polygon class="cls-1" points="251.9 4.36 230.46 14.24 230.46 14.24 251.9 4.36 251.9 4.36"/><path class="cls-1" d="M265.72,21.7a17,17,0,0,1-30.4-.88,16.67,16.67,0,0,1-1.47-8.14,19.12,19.12,0,0,1,.42-2.8L255.72,0Z"/><path class="cls-1" d="M296,87.37,274,97.49a16.89,16.89,0,0,1-7.54-20.62,17,17,0,0,1,19.78-10.62Z"/><path class="cls-1" d="M262.53,75.41a20.92,20.92,0,0,0,7.05,24.12l-19,8.76v-30H222.63a28.9,28.9,0,0,0-57.46,0H126.46a20.73,20.73,0,0,0-8.7-14.71L229.73,12a21,21,0,0,0,13.71,21.61A21.13,21.13,0,0,0,259.67,33a20.92,20.92,0,0,0,8.12-6.75l16.37,35.5A21.21,21.21,0,0,0,262.53,75.41Z"/><path class="cls-1" d="M186.39,75.84a4.17,4.17,0,0,0,2.94,2.44h-7.05c-1.75-3.87-.35-8.07,3.57-10.73l-2.16-4.69,3-1.36,2.09,4.56a13.82,13.82,0,0,1,6.86-1.17l.25,3.63a12.37,12.37,0,0,0-6.67,1.09C185.57,71.27,185.51,73.92,186.39,75.84Z"/><rect class="cls-1" x="66.09" y="82.64" width="23.13" height="0.01"/><polygon class="cls-1" points="178.46 82.65 178.46 82.64 161.36 82.64 161.36 82.65 178.46 82.65"/><polygon class="cls-1" points="89.22 82.65 89.22 82.64 89.22 82.64 89.22 82.65 89.22 82.65"/><polygon class="cls-1" points="93.22 91.34 93.22 91.34 96.69 98.87 96.69 98.87 93.22 91.34"/><rect class="cls-1" x="118.42" y="82.64" width="4.22" height="0.01"/><polygon class="cls-1" points="161.36 82.65 161.36 82.64 122.64 82.64 122.64 82.65 161.36 82.65"/><path class="cls-1" d="M185.52,82.65h0Z"/><path class="cls-1" d="M66.09,178.92H89.91a.56.56,0,0,0,0-.08H66.09Z"/><path class="cls-1" d="M93.16,169a16.84,16.84,0,0,1-3.2,9.85H66.1V155.32A17,17,0,0,1,93.16,169Z"/><path class="cls-1" d="M93.32,93A17,17,0,0,1,66.1,106.55h0V82.65H89.22l4,8.69A15.77,15.77,0,0,1,93.32,93Z"/><polygon class="cls-1" points="89.22 82.65 89.22 82.65 93.22 91.34 93.22 91.34 89.22 82.65"/><path class="cls-1" d="M93.22,91.34l-4-8.69h.48A16.82,16.82,0,0,1,93.22,91.34Z"/><path class="cls-1" d="M246.6,82.64v23.9A16.92,16.92,0,0,1,223,82.64Z"/><path class="cls-1" d="M222.46,178.92H246.6v-.08H222.4Z"/><path class="cls-1" d="M246.6,155.59v23.25H222.4a17,17,0,0,1,24.2-23.25Z"/><path class="cls-1" d="M94.78,178.93h122.8a.36.36,0,0,1,0-.09H94.82A.36.36,0,0,1,94.78,178.93Z"/><path class="cls-1" d="M246.61,112.72V111.5A21.06,21.06,0,0,1,218,82.65H94.7A21.05,21.05,0,0,1,66.1,111.5v38.92a21,21,0,0,1,28.72,28.42H217.54a21.09,21.09,0,0,1,29.07-28.24V112.82l.13-.07v-.1ZM183,142l-.06.12a28.92,28.92,0,0,1-35.27,16.24l-.1,0a29,29,0,0,1-19.27-20.48,29.63,29.63,0,0,1-.76-4.12A28.94,28.94,0,1,1,183,142Z"/><path class="cls-1" d="M153,146.69a15.14,15.14,0,0,1-5.41-1.62c-.23-.36-.47-.73-.72-1.07l1.06-2.94a13.33,13.33,0,0,0,3,1.45,22,22,0,0,1,1.54,2.73C152.7,145.72,152.85,146.2,153,146.69Z"/><path class="cls-1" d="M147.62,145.07a7.83,7.83,0,0,1-.91-.55l.19-.52C147.15,144.34,147.39,144.71,147.62,145.07Z"/><path class="cls-1" d="M166,137.81c0,4.13-2.85,7.95-8.17,8.78V152h-3.25V146.8c-.51,0-1-.05-1.53-.11-.18-.49-.33-1-.55-1.45a22,22,0,0,0-1.54-2.73,13.38,13.38,0,0,0,4.41.78c3.66,0,5.81-2.12,5.81-5.07s-1.68-4.6-5.5-6.14c-5.28-2.08-8.52-4.51-8.52-9,0-4.28,3-7.54,7.74-8.32V109.6h3.26l0,5a14.06,14.06,0,0,1,6.73,1.81l-1.3,3.4a12.44,12.44,0,0,0-6.5-1.8c-4,0-5.15,2.38-5.15,4.5,0,2.63,1.58,4,6.08,5.88C163.3,130.58,166,133.21,166,137.81Z"/><path class="cls-2" d="M22.79,125.41c12.2-4.26,42.44-10.5,69.77-3.92,26.64,6.41,20.26,3,51.06,3.25l2.45,0c33.63.49,30.57,13.41,30.57,13.41,1.13,13.71-14.09,14.83-14.09,14.83l-54.91,5.58s-5.67,7-4.7,13.45c.18,1.23,2.5,1.28,6.11.57l37.27,6c-11.8,10-28.56,24.2-35.7,25.58-5.74,1.11-17,0-31.62-1.88-11.06-1.45-24-3.38-38-5.23-5.72-.76-30.73-1.27-40.95,1.1V131.38C9,126.07,14.3,128.37,22.79,125.41Z"/></g></g></svg>