<svg xmlns="http://www.w3.org/2000/svg" viewBox="0 0 144.33 144.99"><title>Recurso 11svg</title><g id="Capa_2" data-name="Capa 2"><g id="Layer_1" data-name="Layer 1"><path d="M58.26,116.52a58.26,58.26,0,1,1,58.26-58.26A58.34,58.34,0,0,1,58.26,116.52Zm0-107.25a49.32,49.32,0,1,0,49.32,49.32A49.45,49.45,0,0,0,58.26,9.27Z"/><rect x="113.52" y="87.42" width="8.94" height="61.9" transform="translate(-49.13 116.73) rotate(-44.53)"/><circle cx="140.02" cy="140.68" r="4.3"/><circle cx="83.09" cy="38.07" r="4.3"/><circle cx="29.13" cy="62.23" r="4.3"/><polygon points="44.03 81.76 25.82 65.21 31.78 58.59 44.03 69.85 79.78 35.09 86.07 41.38 44.03 81.76"/></g></g></svg>