<?xml version="1.0" encoding="utf-8"?>
<!-- Generator: Adobe Illustrator 19.0.0, SVG Export Plug-In . SVG Version: 6.00 Build 0)  -->
<svg version="1.1" id="Layer_1" xmlns="http://www.w3.org/2000/svg" xmlns:xlink="http://www.w3.org/1999/xlink" x="0px" y="0px"
	 viewBox="-646 1061.4 123.8 145.3" style="enable-background:new -646 1061.4 123.8 145.3;" xml:space="preserve">
<style type="text/css">
	.st0{fill:#9B9B9B;}
</style>
<title>Recurso 6svg</title>
<g id="Capa_2">
	<g id="Layer_1_1_">
		<path class="st0" d="M-524.6,1088.3c-23.5,0-35-7.9-35-24.1c0-1.5-1.1-2.7-2.6-2.8c0,0-0.1,0-0.1,0h-43.1c-1.5,0-2.7,1.1-2.8,2.6
			c0,0,0,0.1,0,0.1c0,16.2-11.5,24.1-35,24.1c-1.5,0-2.7,1.2-2.8,2.7c0,0,0,0.1,0,0.1v48.4c0,27.9,57.9,65.2,60.5,66.8
			c0.4,0.2,0.9,0.3,1.4,0.4c0.5,0,1-0.1,1.4-0.4c2.4-1.6,60.5-38.9,60.5-66.8v-48.4c0.3-1.2-0.4-2.4-1.6-2.7
			C-524.1,1088.3-524.4,1088.3-524.6,1088.3z M-591.8,1150.2v-13.4h-13.4c-1.5,0-2.7-1.2-2.7-2.7c0,0,0-0.1,0-0.1v-10.7
			c0-1.5,1.1-2.7,2.6-2.8c0,0,0.1,0,0.1,0h13.4v-13.4c0-1.5,1.1-2.7,2.6-2.8c0,0,0.1,0,0.1,0h10.9c1.5,0,2.7,1.1,2.8,2.6
			c0,0,0,0.1,0,0.1v13.4h13.4c1.5,0,2.7,1.1,2.8,2.6c0,0,0,0.1,0,0.1v10.7c0,1.5-1.1,2.7-2.6,2.8c0,0-0.1,0-0.1,0h-13.4v13.4
			c0,1.5-1.1,2.7-2.6,2.8c0,0-0.1,0-0.1,0h-11.1C-590.7,1152.8-591.8,1151.6-591.8,1150.2z"/>
	</g>
</g>
</svg>
