<svg xmlns="http://www.w3.org/2000/svg" xmlns:xlink="http://www.w3.org/1999/xlink" viewBox="0 0 416.6 830.87"><defs><style>.cls-1{fill:none;}.cls-2{clip-path:url(#clip-path);}.cls-3{fill:#b5b5b5;}.cls-21,.cls-4{fill:#fff;}.cls-5{fill:#535353;}.cls-6{fill:#1e1e1e;}.cls-17,.cls-7{opacity:0.1;}.cls-8{fill:#f5fdff;}.cls-9{fill:#d3d3d3;}.cls-10{fill:#005e53;}.cls-11,.cls-17{fill:#272425;}.cls-12{fill:#4d877b;}.cls-13{fill:#85898d;}.cls-14{fill:#babcbe;}.cls-15{fill:#004c42;}.cls-16{fill:#e8e8e8;}.cls-18{fill:#9a9a9a;}.cls-19{stroke:#020202;stroke-miterlimit:10;stroke-width:0.5px;opacity:0.05;}.cls-20{fill:#d32222;}.cls-21{font-size:8.83px;font-family:Raleway-Bold, Raleway;font-weight:700;}.cls-22{letter-spacing:-0.02em;}.cls-23{fill:#ef4545;}.cls-24{clip-path:url(#clip-path-2);}.cls-25{fill:#f5f5f5;}.cls-26{fill:#cfd1d2;}</style><clipPath id="clip-path" transform="translate(-2.09)"><rect class="cls-1" width="418.69" height="512.43"/></clipPath><clipPath id="clip-path-2" transform="translate(-2.09)"><path class="cls-1" d="M58.35,185.76H278.92a7.17,7.17,0,0,1,7.17,7.17V337.77a0,0,0,0,1,0,0H51.18a0,0,0,0,1,0,0V192.92A7.17,7.17,0,0,1,58.35,185.76Z"/></clipPath></defs><title>Recurso 24svg</title><g id="Capa_2" data-name="Capa 2"><g id="Layer_1" data-name="Layer 1"><g class="cls-2"><rect class="cls-3" width="416.6" height="830.87" rx="47.28"/><rect class="cls-4" x="3.15" y="4.56" width="411.16" height="820.02" rx="46.81"/><path class="cls-5" d="M250.12,44.23h-82a2.87,2.87,0,0,1-2.88-2.87h0a2.88,2.88,0,0,1,2.88-2.88h82A2.88,2.88,0,0,1,253,41.36h0A2.87,2.87,0,0,1,250.12,44.23Z" transform="translate(-2.09)"/><rect class="cls-6" x="77.2" y="781.64" width="15.59" height="2.13"/><path class="cls-6" d="M217.77,795.72h-12.2a.87.87,0,0,1-.87-.87v-12a.87.87,0,0,1,.87-.87h12.2a.87.87,0,0,1,.87.87v12A.87.87,0,0,1,217.77,795.72ZM206.43,794h10.48V783.68H206.43Z" transform="translate(-2.09)"/><path class="cls-6" d="M326.94,797.26a.87.87,0,0,1-.61-.26l-5.62-5.62a3,3,0,0,1,0-4.29l5.62-5.62a.87.87,0,0,1,1.23,1.22l-5.63,5.62a1.32,1.32,0,0,0,0,1.85l5.63,5.62a.87.87,0,0,1-.62,1.48Z" transform="translate(-2.09)"/><g class="cls-7"><path class="cls-8" d="M252.87,2.39,9.59,765.3,4.19,61.62A57.68,57.68,0,0,1,61.06,3.5C134.63,2.48,252.9,1.05,252.87,2.39Z" transform="translate(-2.09)"/></g><rect class="cls-9" x="14.85" y="70.26" width="386.91" height="683.67"/><rect class="cls-10" x="14.85" y="70.26" width="386.91" height="88.07"/><polygon class="cls-4" points="40.19 126.23 27.52 126.23 33.04 119.89 31.38 118.44 23.6 127.36 31.41 135.68 33.02 134.17 27.64 128.44 40.19 128.44 40.19 126.23"/><rect class="cls-4" x="270.11" y="120.18" width="15.94" height="13.88" rx="2.72"/><path class="cls-4" d="M293.23,122.49l-3.47,2.31a1,1,0,0,0-.42.79v3.06a1,1,0,0,0,.42.79l3.47,2.31a.91.91,0,0,0,1.42-.76v-7.74A.91.91,0,0,0,293.23,122.49Z" transform="translate(-2.09)"/><path class="cls-4" d="M327,117.47a1.67,1.67,0,0,0-1.66,1.88c.38,2.88,1.61,8.42,5.54,12,4.6,4.14,8.73,5.36,12.09,5.64a1.72,1.72,0,0,0,1.85-1.72V132a.72.72,0,0,0-.72-.73c-.61,0-1.51,0-2.23-.12a6.05,6.05,0,0,1-2.15-.85.7.7,0,0,0-.9.13l-2.27,2.42a17.86,17.86,0,0,1-4.28-3.06,23.8,23.8,0,0,1-3-4.1l2.58-2.22a.86.86,0,0,0,.24-1,11.79,11.79,0,0,1-.65-2.17,17,17,0,0,1-.22-2.07.86.86,0,0,0-.86-.82Z" transform="translate(-2.09)"/><path class="cls-4" d="M382.84,120.66a2.34,2.34,0,1,1-2.34-2.34A2.35,2.35,0,0,1,382.84,120.66Z" transform="translate(-2.09)"/><path class="cls-4" d="M382.84,127.18a2.34,2.34,0,1,1-2.34-2.35A2.34,2.34,0,0,1,382.84,127.18Z" transform="translate(-2.09)"/><path class="cls-4" d="M382.84,133.5a2.34,2.34,0,1,1-2.34-2.35A2.34,2.34,0,0,1,382.84,133.5Z" transform="translate(-2.09)"/><path class="cls-4" d="M96.63,118.47v5.12h-2.4V109.78h5.29a5.31,5.31,0,0,1,3.67,1.21,4,4,0,0,1,1.36,3.19,3.91,3.91,0,0,1-1.33,3.16,5.61,5.61,0,0,1-3.73,1.13Zm0-1.94h2.89a2.84,2.84,0,0,0,2-.6,2.2,2.2,0,0,0,.67-1.74,2.43,2.43,0,0,0-.68-1.79,2.65,2.65,0,0,0-1.88-.68h-3Z" transform="translate(-2.09)"/><path class="cls-4" d="M110.75,123.78a4.75,4.75,0,0,1-3.55-1.38,5,5,0,0,1-1.36-3.68v-.28a6.14,6.14,0,0,1,.59-2.75,4.53,4.53,0,0,1,1.66-1.88,4.4,4.4,0,0,1,2.39-.67,4,4,0,0,1,3.24,1.34,5.65,5.65,0,0,1,1.14,3.78v.93h-6.7a3.05,3.05,0,0,0,.85,2,2.55,2.55,0,0,0,1.87.74,3.12,3.12,0,0,0,2.58-1.28l1.24,1.18a4.14,4.14,0,0,1-1.64,1.43A5.16,5.16,0,0,1,110.75,123.78Zm-.28-8.79a2,2,0,0,0-1.53.66,3.4,3.4,0,0,0-.74,1.85h4.39v-.17a2.82,2.82,0,0,0-.62-1.75A1.94,1.94,0,0,0,110.47,115Z" transform="translate(-2.09)"/><path class="cls-4" d="M121.83,115.43a5.78,5.78,0,0,0-.94-.07,2.1,2.1,0,0,0-2.13,1.21v7h-2.31V113.33h2.2l.06,1.15a2.6,2.6,0,0,1,2.31-1.34,2.17,2.17,0,0,1,.82.13Z" transform="translate(-2.09)"/><path class="cls-4" d="M123.09,110.66a1.26,1.26,0,0,1,.34-.88,1.51,1.51,0,0,1,1.93,0,1.21,1.21,0,0,1,.34.88,1.18,1.18,0,0,1-.34.87,1.51,1.51,0,0,1-1.93,0A1.22,1.22,0,0,1,123.09,110.66Zm2.45,12.93h-2.3V113.33h2.3Z" transform="translate(-2.09)"/><path class="cls-4" d="M127.42,118.36a6,6,0,0,1,.6-2.71,4.35,4.35,0,0,1,1.68-1.86,4.75,4.75,0,0,1,2.48-.65,4.51,4.51,0,0,1,3.38,1.34A5.26,5.26,0,0,1,137,118v.54a6.14,6.14,0,0,1-.58,2.72,4.32,4.32,0,0,1-1.67,1.84,4.72,4.72,0,0,1-2.51.66,4.43,4.43,0,0,1-3.47-1.45,5.53,5.53,0,0,1-1.31-3.85Zm2.31.2a4.15,4.15,0,0,0,.65,2.48,2.14,2.14,0,0,0,1.82.9A2.1,2.1,0,0,0,134,121a4.61,4.61,0,0,0,.65-2.67,4.05,4.05,0,0,0-.67-2.46,2.26,2.26,0,0,0-3.61,0A4.53,4.53,0,0,0,129.73,118.56Zm3.09-9.54h2.63l-2.63,2.88H131Z" transform="translate(-2.09)"/><path class="cls-4" d="M138.29,118.38a6,6,0,0,1,1.1-3.8,3.51,3.51,0,0,1,3-1.44,3.34,3.34,0,0,1,2.63,1.14V109h2.31v14.57h-2.09l-.11-1.06a3.41,3.41,0,0,1-2.76,1.25,3.5,3.5,0,0,1-2.92-1.45A6.35,6.35,0,0,1,138.29,118.38Zm2.3.2a4.25,4.25,0,0,0,.6,2.44,1.94,1.94,0,0,0,1.71.88,2.17,2.17,0,0,0,2.07-1.26v-4.38a2.14,2.14,0,0,0-2.05-1.23,2,2,0,0,0-1.72.88A4.71,4.71,0,0,0,140.59,118.58Z" transform="translate(-2.09)"/><path class="cls-4" d="M149.49,110.66a1.21,1.21,0,0,1,.34-.88,1.27,1.27,0,0,1,1-.35,1.31,1.31,0,0,1,1,.35,1.26,1.26,0,0,1,.34.88,1.22,1.22,0,0,1-.34.87,1.31,1.31,0,0,1-1,.35,1.27,1.27,0,0,1-1-.35A1.18,1.18,0,0,1,149.49,110.66Zm2.45,12.93h-2.31V113.33h2.31Z" transform="translate(-2.09)"/><path class="cls-4" d="M158.47,121.94a2.11,2.11,0,0,0,1.43-.5,1.7,1.7,0,0,0,.6-1.25h2.18a3.45,3.45,0,0,1-.6,1.79,3.92,3.92,0,0,1-1.52,1.32,4.56,4.56,0,0,1-2.07.48,4.37,4.37,0,0,1-3.41-1.4,5.5,5.5,0,0,1-1.26-3.84v-.24a5.46,5.46,0,0,1,1.25-3.75,4.33,4.33,0,0,1,3.41-1.41,4.25,4.25,0,0,1,3,1.07,3.81,3.81,0,0,1,1.21,2.8H160.5a2.06,2.06,0,0,0-.6-1.45,1.91,1.91,0,0,0-1.43-.57,2,2,0,0,0-1.73.81,4.19,4.19,0,0,0-.62,2.46v.37a4.15,4.15,0,0,0,.61,2.49A2,2,0,0,0,158.47,121.94Z" transform="translate(-2.09)"/><path class="cls-4" d="M163.79,118.36a6,6,0,0,1,.6-2.71,4.35,4.35,0,0,1,1.68-1.86,4.75,4.75,0,0,1,2.48-.65,4.47,4.47,0,0,1,3.37,1.34,5.21,5.21,0,0,1,1.4,3.54v.54a6.14,6.14,0,0,1-.58,2.72,4.32,4.32,0,0,1-1.67,1.84,4.75,4.75,0,0,1-2.51.66,4.44,4.44,0,0,1-3.48-1.45,5.57,5.57,0,0,1-1.3-3.85Zm2.3.2a4.08,4.08,0,0,0,.66,2.48,2.28,2.28,0,0,0,3.64,0,4.61,4.61,0,0,0,.65-2.67,4.12,4.12,0,0,0-.67-2.46,2.26,2.26,0,0,0-3.61,0A4.52,4.52,0,0,0,166.09,118.56Z" transform="translate(-2.09)"/><path class="cls-4" d="M98.4,144.09a2.7,2.7,0,0,1-2.18.87,2.32,2.32,0,0,1-1.82-.69,3,3,0,0,1-.63-2.05v-4.86H95v4.82c0,1.13.46,1.7,1.38,1.7a1.91,1.91,0,0,0,2-1.09v-5.43h1.27v7.46H98.43Z" transform="translate(-2.09)"/><path class="cls-4" d="M103,144.82h-1.28V134.23H103Z" transform="translate(-2.09)"/><path class="cls-4" d="M106.74,135.56v1.8h1.39v1h-1.39V143a1,1,0,0,0,.19.68.8.8,0,0,0,.63.22,3.51,3.51,0,0,0,.61-.08v1a3.78,3.78,0,0,1-1,.13,1.6,1.6,0,0,1-1.29-.51,2.24,2.24,0,0,1-.44-1.47v-4.63h-1.35v-1h1.35v-1.8Z" transform="translate(-2.09)"/><path class="cls-4" d="M109.65,144.16a.83.83,0,0,1,.2-.56.76.76,0,0,1,.59-.22.78.78,0,0,1,.59.22.79.79,0,0,1,.21.56.74.74,0,0,1-.21.53.77.77,0,0,1-.59.21.76.76,0,0,1-.59-.21A.78.78,0,0,1,109.65,144.16Z" transform="translate(-2.09)"/><path class="cls-4" d="M119.3,143.09l1.85-5.73h1.3l-2.68,7.46h-1l-2.7-7.46h1.3Z" transform="translate(-2.09)"/><path class="cls-4" d="M126.77,145a3.25,3.25,0,0,1-2.46-1,3.7,3.7,0,0,1-1-2.67v-.23a4.55,4.55,0,0,1,.43-2,3.34,3.34,0,0,1,1.18-1.36,3,3,0,0,1,1.66-.5,2.79,2.79,0,0,1,2.26,1,4.16,4.16,0,0,1,.8,2.75v.53h-5.05a2.66,2.66,0,0,0,.64,1.78,2.06,2.06,0,0,0,1.57.68,2.28,2.28,0,0,0,1.15-.27,3,3,0,0,0,.82-.74l.78.61A3.14,3.14,0,0,1,126.77,145Zm-.15-6.69a1.72,1.72,0,0,0-1.3.56,2.73,2.73,0,0,0-.65,1.58h3.74v-.1a2.39,2.39,0,0,0-.53-1.5A1.58,1.58,0,0,0,126.62,138.27Z" transform="translate(-2.09)"/><path class="cls-4" d="M132.36,143.78h4.37v1H130.8v-.93l4.12-5.47h-4.06v-1.06h5.66v.91Z" transform="translate(-2.09)"/><path class="cls-4" d="M142.93,138.27a2.71,2.71,0,0,1,2.21-1.05c1.58,0,2.37.89,2.39,2.67v4.93h-1.28v-4.93a1.72,1.72,0,0,0-.37-1.2,1.51,1.51,0,0,0-1.13-.38,1.87,1.87,0,0,0-1.09.33,2.3,2.3,0,0,0-.73.87v5.31h-1.27V134.23h1.27Z" transform="translate(-2.09)"/><path class="cls-4" d="M149.1,141a4.38,4.38,0,0,1,.43-2,3.29,3.29,0,0,1,1.2-1.35,3.24,3.24,0,0,1,1.75-.48,3.17,3.17,0,0,1,2.47,1.06,4,4,0,0,1,.94,2.81v.09a4.43,4.43,0,0,1-.42,1.95,3.07,3.07,0,0,1-1.19,1.35,3.32,3.32,0,0,1-1.78.48,3.15,3.15,0,0,1-2.46-1.05,4.05,4.05,0,0,1-.94-2.8Zm1.28.16a3.16,3.16,0,0,0,.58,2,1.95,1.95,0,0,0,3.08,0,3.45,3.45,0,0,0,.58-2.14,3.2,3.2,0,0,0-.59-2,1.87,1.87,0,0,0-1.55-.76A1.83,1.83,0,0,0,151,139,3.47,3.47,0,0,0,150.38,141.18Z" transform="translate(-2.09)"/><path class="cls-4" d="M159.93,143l1.74-5.6H163L160,146q-.71,1.86-2.22,1.86l-.24,0-.47-.09v-1l.34,0a1.73,1.73,0,0,0,1-.26,2,2,0,0,0,.6-1l.28-.76-2.66-7.38h1.39Z" transform="translate(-2.09)"/><path class="cls-4" d="M172.28,144.82a2.22,2.22,0,0,1-.18-.78A2.86,2.86,0,0,1,170,145a2.69,2.69,0,0,1-1.81-.62,2,2,0,0,1-.7-1.58,2.1,2.1,0,0,1,.88-1.81,4.2,4.2,0,0,1,2.5-.65h1.24v-.59a1.45,1.45,0,0,0-.4-1.06,1.59,1.59,0,0,0-1.18-.4,1.87,1.87,0,0,0-1.15.35,1,1,0,0,0-.46.83h-1.28a1.74,1.74,0,0,1,.4-1.08,2.62,2.62,0,0,1,1.07-.82,3.64,3.64,0,0,1,1.49-.31,3,3,0,0,1,2,.65,2.32,2.32,0,0,1,.75,1.78v3.43a4.07,4.07,0,0,0,.27,1.63v.11Zm-2.12-1a2.22,2.22,0,0,0,1.14-.31,1.84,1.84,0,0,0,.78-.81V141.2h-1c-1.57,0-2.35.46-2.35,1.38a1.16,1.16,0,0,0,.4.93A1.52,1.52,0,0,0,170.16,143.85Z" transform="translate(-2.09)"/><path class="cls-4" d="M180.24,144.82H179V134.23h1.28Z" transform="translate(-2.09)"/><path class="cls-4" d="M186.88,144.82a2.54,2.54,0,0,1-.17-.78,2.89,2.89,0,0,1-2.13.92,2.67,2.67,0,0,1-1.81-.62,2,2,0,0,1-.71-1.58A2.11,2.11,0,0,1,183,141a4.17,4.17,0,0,1,2.49-.65h1.24v-.59a1.41,1.41,0,0,0-.4-1.06,1.55,1.55,0,0,0-1.17-.4,1.87,1.87,0,0,0-1.15.35,1,1,0,0,0-.46.83h-1.28a1.79,1.79,0,0,1,.39-1.08,2.73,2.73,0,0,1,1.08-.82,3.64,3.64,0,0,1,1.49-.31,3,3,0,0,1,2,.65,2.32,2.32,0,0,1,.76,1.78v3.43a4.27,4.27,0,0,0,.26,1.63v.11Zm-2.11-1a2.22,2.22,0,0,0,1.14-.31,1.87,1.87,0,0,0,.77-.81V141.2h-1q-2.34,0-2.34,1.38a1.13,1.13,0,0,0,.4.93A1.52,1.52,0,0,0,184.77,143.85Z" transform="translate(-2.09)"/><path class="cls-4" d="M194.31,142.85a.94.94,0,0,0-.39-.81,3.87,3.87,0,0,0-1.36-.49,6.17,6.17,0,0,1-1.54-.5,2.11,2.11,0,0,1-.84-.69,1.64,1.64,0,0,1-.27-1,1.92,1.92,0,0,1,.77-1.55,3.06,3.06,0,0,1,2-.64,3.09,3.09,0,0,1,2.06.66,2.08,2.08,0,0,1,.79,1.68h-1.28a1.15,1.15,0,0,0-.45-.91,1.67,1.67,0,0,0-1.12-.38,1.72,1.72,0,0,0-1.09.31.94.94,0,0,0-.39.79.77.77,0,0,0,.37.7,4.58,4.58,0,0,0,1.32.44,8,8,0,0,1,1.55.51,2.39,2.39,0,0,1,.88.72,1.77,1.77,0,0,1,.28,1,1.92,1.92,0,0,1-.8,1.6,3.35,3.35,0,0,1-2.07.6,3.79,3.79,0,0,1-1.59-.31,2.65,2.65,0,0,1-1.08-.89,2.14,2.14,0,0,1-.39-1.23h1.28a1.32,1.32,0,0,0,.51,1,2,2,0,0,0,1.27.37,2.1,2.1,0,0,0,1.16-.29A.92.92,0,0,0,194.31,142.85Z" transform="translate(-2.09)"/><path class="cls-4" d="M204.8,144.82h-1.28v-8.5l-2.57,1v-1.16l3.65-1.37h.2Z" transform="translate(-2.09)"/><path class="cls-4" d="M212.73,144.82h-1.28v-8.5l-2.57,1v-1.16l3.65-1.37h.2Z" transform="translate(-2.09)"/><path class="cls-4" d="M216.56,144.16a.83.83,0,0,1,.2-.56.76.76,0,0,1,.59-.22.78.78,0,0,1,.59.22.79.79,0,0,1,.21.56.74.74,0,0,1-.21.53.77.77,0,0,1-.59.21.76.76,0,0,1-.59-.21A.78.78,0,0,1,216.56,144.16Zm0-6.09a.83.83,0,0,1,.19-.56.79.79,0,0,1,.59-.22.8.8,0,0,1,.6.22.79.79,0,0,1,.2.56.73.73,0,0,1-.2.53.8.8,0,0,1-.6.21.79.79,0,0,1-.59-.21A.77.77,0,0,1,216.57,138.07Z" transform="translate(-2.09)"/><path class="cls-4" d="M226.19,140.54a5.8,5.8,0,0,1-.77,3.33A2.71,2.71,0,0,1,223,145a2.75,2.75,0,0,1-2.38-1.06,5.6,5.6,0,0,1-.8-3.19V139a5.7,5.7,0,0,1,.77-3.29,3.25,3.25,0,0,1,4.78,0,5.58,5.58,0,0,1,.79,3.21Zm-1.28-1.74a4.77,4.77,0,0,0-.45-2.37,1.59,1.59,0,0,0-1.44-.74,1.55,1.55,0,0,0-1.43.74,4.56,4.56,0,0,0-.46,2.27v2a4.72,4.72,0,0,0,.47,2.41,1.57,1.57,0,0,0,1.43.77,1.52,1.52,0,0,0,1.4-.73,4.48,4.48,0,0,0,.48-2.3Z" transform="translate(-2.09)"/><path class="cls-4" d="M234.12,140.54a5.8,5.8,0,0,1-.77,3.33A2.7,2.7,0,0,1,231,145a2.75,2.75,0,0,1-2.38-1.06,5.6,5.6,0,0,1-.8-3.19V139a5.7,5.7,0,0,1,.77-3.29,3.25,3.25,0,0,1,4.78,0,5.5,5.5,0,0,1,.79,3.21Zm-1.28-1.74a4.77,4.77,0,0,0-.45-2.37,1.59,1.59,0,0,0-1.44-.74,1.55,1.55,0,0,0-1.43.74,4.56,4.56,0,0,0-.46,2.27v2a4.72,4.72,0,0,0,.47,2.41,1.57,1.57,0,0,0,1.43.77,1.52,1.52,0,0,0,1.4-.73,4.48,4.48,0,0,0,.48-2.3Z" transform="translate(-2.09)"/><path class="cls-4" d="M244,144.82a2.22,2.22,0,0,1-.18-.78,2.86,2.86,0,0,1-2.13.92,2.69,2.69,0,0,1-1.81-.62,2,2,0,0,1-.7-1.58,2.1,2.1,0,0,1,.88-1.81,4.2,4.2,0,0,1,2.5-.65h1.24v-.59a1.45,1.45,0,0,0-.4-1.06,1.59,1.59,0,0,0-1.18-.4,1.87,1.87,0,0,0-1.15.35,1,1,0,0,0-.46.83h-1.28a1.74,1.74,0,0,1,.4-1.08,2.62,2.62,0,0,1,1.07-.82,3.64,3.64,0,0,1,1.49-.31,3,3,0,0,1,2,.65,2.32,2.32,0,0,1,.75,1.78v3.43a4.07,4.07,0,0,0,.27,1.63v.11Zm-2.12-1a2.22,2.22,0,0,0,1.14-.31,1.84,1.84,0,0,0,.78-.81V141.2h-1c-1.57,0-2.35.46-2.35,1.38a1.16,1.16,0,0,0,.4.93A1.52,1.52,0,0,0,241.87,143.85Z" transform="translate(-2.09)"/><path class="cls-4" d="M248.26,137.36l0,.83a2.76,2.76,0,0,1,2.21-1,2.12,2.12,0,0,1,2.13,1.2,2.84,2.84,0,0,1,2.38-1.2c1.64,0,2.47.87,2.5,2.6v5h-1.28V139.9a1.76,1.76,0,0,0-.36-1.2,1.65,1.65,0,0,0-1.23-.39,1.64,1.64,0,0,0-1.72,1.56v4.95h-1.29v-4.89a1.42,1.42,0,0,0-1.59-1.62,1.7,1.7,0,0,0-1.72,1.07v5.44h-1.27v-7.46Z" transform="translate(-2.09)"/><g class="cls-7"><rect class="cls-11" x="19.24" y="699.46" width="322.24" height="48.3" rx="8.77"/></g><g class="cls-7"><circle class="cls-11" cx="373.91" cy="723.61" r="24.15" transform="translate(-418.14 922.06) rotate(-76.78)"/></g><rect class="cls-4" x="19.24" y="697.7" width="322.24" height="48.3" rx="8.77"/><circle class="cls-12" cx="373.91" cy="721.84" r="24.15" transform="translate(-416.42 920.7) rotate(-76.78)"/><path class="cls-13" d="M276,731.42a6.26,6.26,0,0,1-4.44-1.83l-10.74-10.74a4.71,4.71,0,1,1,6.66-6.66l8.67,8.67a3.22,3.22,0,0,1,0,4.53,3.29,3.29,0,0,1-4.54,0L265.28,719a1,1,0,0,1,0-1.4,1,1,0,0,1,1.4,0l6.37,6.37a1.23,1.23,0,0,0,1.74-1.73l-8.67-8.67a2.8,2.8,0,0,0-3.86,0,2.72,2.72,0,0,0,0,3.86L273,728.19a4.31,4.31,0,0,0,7.36-3.05,4.27,4.27,0,0,0-1.27-3l-8-8a1,1,0,0,1,1.39-1.4l8,8A6.28,6.28,0,0,1,276,731.42Z" transform="translate(-2.09)"/><path class="cls-4" d="M382.67,721.37a1.32,1.32,0,0,0-1.22-1.4,1.29,1.29,0,0,0-1.41,1.21,5.38,5.38,0,0,1-5.66,5.05,5.81,5.81,0,0,1-6-5.12,1.3,1.3,0,0,0-1.47-1.14,1.32,1.32,0,0,0-1.14,1.47,8.44,8.44,0,0,0,7.29,7.29v3.58a1.32,1.32,0,0,0,2.64,0v-3.58A8,8,0,0,0,382.67,721.37Z" transform="translate(-2.09)"/><rect class="cls-4" x="368.75" y="710.73" width="6.86" height="13.06" rx="1.25"/><path class="cls-13" d="M44.53,733.11A11.15,11.15,0,1,1,55.68,722,11.16,11.16,0,0,1,44.53,733.11Zm0-20.32A9.17,9.17,0,1,0,53.71,722,9.18,9.18,0,0,0,44.53,712.79Z" transform="translate(-2.09)"/><path class="cls-13" d="M42.92,719.2c0,1.06-.64,1.92-1.42,1.92s-1.42-.86-1.42-1.92.64-1.92,1.42-1.92S42.92,718.14,42.92,719.2Z" transform="translate(-2.09)"/><path class="cls-13" d="M49,719.2c0,1.06-.63,1.92-1.42,1.92s-1.41-.86-1.41-1.92.63-1.92,1.41-1.92S49,718.14,49,719.2Z" transform="translate(-2.09)"/><path class="cls-13" d="M38.63,723.87a6.2,6.2,0,0,0,11.81,0Z" transform="translate(-2.09)"/><path class="cls-14" d="M79.56,717.29H75.32v11.76H73.59V717.29H69.36v-1.42h10.2Z" transform="translate(-2.09)"/><path class="cls-14" d="M84.45,726.6l2.28-7.35h1.8l-3.94,11.31C84,732.19,83,733,81.68,733l-.31,0-.63-.12V731.5l.45,0a2.24,2.24,0,0,0,1.33-.35,2.45,2.45,0,0,0,.78-1.25l.37-1-3.49-9.69H82Z" transform="translate(-2.09)"/><path class="cls-14" d="M98.29,724.26a5.87,5.87,0,0,1-1,3.6,3.29,3.29,0,0,1-2.77,1.37,3.62,3.62,0,0,1-2.81-1.13v4.71H90V719.25h1.53l.08,1.09a3.46,3.46,0,0,1,2.84-1.27,3.34,3.34,0,0,1,2.79,1.33,5.93,5.93,0,0,1,1,3.71Zm-1.67-.19a4.35,4.35,0,0,0-.71-2.62,2.28,2.28,0,0,0-1.94-1,2.47,2.47,0,0,0-2.28,1.35v4.68a2.46,2.46,0,0,0,2.3,1.34,2.3,2.3,0,0,0,1.92-1A4.78,4.78,0,0,0,96.62,724.07Z" transform="translate(-2.09)"/><path class="cls-14" d="M104.48,729.23a4.31,4.31,0,0,1-3.24-1.31,4.87,4.87,0,0,1-1.25-3.5v-.3a5.92,5.92,0,0,1,.56-2.61,4.32,4.32,0,0,1,1.56-1.79,3.92,3.92,0,0,1,2.17-.65,3.64,3.64,0,0,1,3,1.26,5.43,5.43,0,0,1,1.06,3.6v.7h-6.63a3.44,3.44,0,0,0,.84,2.34,2.65,2.65,0,0,0,2.06.89,2.94,2.94,0,0,0,1.51-.36,3.61,3.61,0,0,0,1.07-1l1,.8A4.13,4.13,0,0,1,104.48,729.23Zm-.2-8.78a2.26,2.26,0,0,0-1.71.74,3.58,3.58,0,0,0-.85,2.07h4.91v-.13a3.22,3.22,0,0,0-.69-2A2.08,2.08,0,0,0,104.28,720.45Z" transform="translate(-2.09)"/><path class="cls-14" d="M120.88,729.05a3.36,3.36,0,0,1-.24-1,3.74,3.74,0,0,1-2.79,1.21,3.44,3.44,0,0,1-2.37-.82,2.66,2.66,0,0,1-.93-2.08,2.76,2.76,0,0,1,1.16-2.37,5.46,5.46,0,0,1,3.27-.85h1.63v-.77a1.89,1.89,0,0,0-.52-1.4,2.15,2.15,0,0,0-1.55-.52,2.43,2.43,0,0,0-1.5.45,1.34,1.34,0,0,0-.61,1.1h-1.68a2.31,2.31,0,0,1,.52-1.42,3.69,3.69,0,0,1,1.41-1.08,4.83,4.83,0,0,1,2-.4,3.89,3.89,0,0,1,2.65.85,3.07,3.07,0,0,1,1,2.33v4.51a5.47,5.47,0,0,0,.34,2.14v.15Zm-2.78-1.28a2.86,2.86,0,0,0,1.49-.41,2.45,2.45,0,0,0,1-1.05v-2H119.3c-2,0-3.08.6-3.08,1.8a1.54,1.54,0,0,0,.53,1.23A2,2,0,0,0,118.1,727.77Z" transform="translate(-2.09)"/><path class="cls-14" d="M131.08,719.25l0,1.09a3.64,3.64,0,0,1,2.91-1.27,2.81,2.81,0,0,1,2.8,1.58,3.59,3.59,0,0,1,1.27-1.14,3.75,3.75,0,0,1,1.85-.44q3.23,0,3.27,3.42v6.56h-1.67v-6.46a2.23,2.23,0,0,0-.48-1.57,2.11,2.11,0,0,0-1.61-.53,2.17,2.17,0,0,0-2.26,2.06v6.5h-1.69v-6.42a1.87,1.87,0,0,0-2.09-2.14,2.23,2.23,0,0,0-2.25,1.41v7.15h-1.68v-9.8Z" transform="translate(-2.09)"/><path class="cls-14" d="M149.81,729.23a4.31,4.31,0,0,1-3.24-1.31,4.87,4.87,0,0,1-1.25-3.5v-.3a5.92,5.92,0,0,1,.56-2.61,4.32,4.32,0,0,1,1.56-1.79,3.92,3.92,0,0,1,2.17-.65,3.68,3.68,0,0,1,3,1.26,5.48,5.48,0,0,1,1,3.6v.7H147a3.45,3.45,0,0,0,.85,2.34,2.62,2.62,0,0,0,2.05.89,2.94,2.94,0,0,0,1.51-.36,3.61,3.61,0,0,0,1.07-1l1,.8A4.12,4.12,0,0,1,149.81,729.23Zm-.2-8.78a2.26,2.26,0,0,0-1.71.74,3.64,3.64,0,0,0-.85,2.07H152v-.13a3.22,3.22,0,0,0-.69-2A2.08,2.08,0,0,0,149.61,720.45Z" transform="translate(-2.09)"/><path class="cls-14" d="M161.27,726.45a1.23,1.23,0,0,0-.51-1.05,4.86,4.86,0,0,0-1.78-.65,8.56,8.56,0,0,1-2-.65,2.84,2.84,0,0,1-1.1-.91,2.14,2.14,0,0,1-.36-1.25,2.52,2.52,0,0,1,1-2,3.94,3.94,0,0,1,2.6-.84,4.1,4.1,0,0,1,2.7.86,2.75,2.75,0,0,1,1,2.2h-1.69a1.49,1.49,0,0,0-.58-1.18,2.2,2.2,0,0,0-1.47-.5,2.25,2.25,0,0,0-1.43.4,1.26,1.26,0,0,0-.52,1,1,1,0,0,0,.48.91,5.85,5.85,0,0,0,1.74.59,9.26,9.26,0,0,1,2,.67,2.91,2.91,0,0,1,1.15.94,2.29,2.29,0,0,1,.38,1.33,2.51,2.51,0,0,1-1,2.11,4.4,4.4,0,0,1-2.73.79,4.92,4.92,0,0,1-2.08-.42,3.3,3.3,0,0,1-1.41-1.16,2.76,2.76,0,0,1-.52-1.62h1.68a1.73,1.73,0,0,0,.67,1.34,2.62,2.62,0,0,0,1.66.49,2.75,2.75,0,0,0,1.53-.38A1.19,1.19,0,0,0,161.27,726.45Z" transform="translate(-2.09)"/><path class="cls-14" d="M170.83,726.45a1.23,1.23,0,0,0-.51-1.05,4.86,4.86,0,0,0-1.78-.65,8.56,8.56,0,0,1-2-.65,3,3,0,0,1-1.11-.91,2.21,2.21,0,0,1-.35-1.25,2.52,2.52,0,0,1,1-2,3.92,3.92,0,0,1,2.6-.84,4.1,4.1,0,0,1,2.7.86,2.75,2.75,0,0,1,1,2.2h-1.69a1.49,1.49,0,0,0-.58-1.18,2.2,2.2,0,0,0-1.47-.5,2.25,2.25,0,0,0-1.43.4,1.23,1.23,0,0,0-.52,1,1,1,0,0,0,.48.91,5.85,5.85,0,0,0,1.74.59,9.26,9.26,0,0,1,2,.67,2.91,2.91,0,0,1,1.15.94,2.29,2.29,0,0,1,.38,1.33,2.51,2.51,0,0,1-1,2.11,4.4,4.4,0,0,1-2.73.79,4.89,4.89,0,0,1-2.08-.42,3.33,3.33,0,0,1-1.42-1.16,2.83,2.83,0,0,1-.51-1.62h1.68a1.73,1.73,0,0,0,.67,1.34,2.6,2.6,0,0,0,1.66.49,2.77,2.77,0,0,0,1.53-.38A1.19,1.19,0,0,0,170.83,726.45Z" transform="translate(-2.09)"/><path class="cls-14" d="M180.73,729.05a3.78,3.78,0,0,1-.23-1,3.74,3.74,0,0,1-2.79,1.21,3.42,3.42,0,0,1-2.37-.82,2.66,2.66,0,0,1-.93-2.08,2.76,2.76,0,0,1,1.16-2.37,5.46,5.46,0,0,1,3.27-.85h1.63v-.77a1.89,1.89,0,0,0-.52-1.4,2.15,2.15,0,0,0-1.55-.52,2.43,2.43,0,0,0-1.5.45,1.34,1.34,0,0,0-.61,1.1h-1.68a2.31,2.31,0,0,1,.52-1.42,3.54,3.54,0,0,1,1.41-1.08,4.83,4.83,0,0,1,2-.4,3.89,3.89,0,0,1,2.65.85,3.07,3.07,0,0,1,1,2.33v4.51a5.47,5.47,0,0,0,.34,2.14v.15ZM178,727.77a2.86,2.86,0,0,0,1.49-.41,2.45,2.45,0,0,0,1-1.05v-2h-1.31c-2,0-3.08.6-3.08,1.8a1.54,1.54,0,0,0,.53,1.23A2,2,0,0,0,178,727.77Z" transform="translate(-2.09)"/><path class="cls-14" d="M184.37,724.07a5.77,5.77,0,0,1,1.06-3.64,3.65,3.65,0,0,1,5.61-.09l.08-1.09h1.53v9.56a4,4,0,0,1-1.13,3,4.16,4.16,0,0,1-3,1.09,5.08,5.08,0,0,1-2.07-.45,3.53,3.53,0,0,1-1.55-1.24l.87-1a3.3,3.3,0,0,0,2.63,1.33,2.57,2.57,0,0,0,1.91-.69,2.61,2.61,0,0,0,.68-1.94v-.84a3.44,3.44,0,0,1-2.74,1.16,3.32,3.32,0,0,1-2.78-1.39A6,6,0,0,1,184.37,724.07Zm1.69.19a4.34,4.34,0,0,0,.68,2.6,2.2,2.2,0,0,0,1.9.95,2.45,2.45,0,0,0,2.32-1.44V721.9a2.47,2.47,0,0,0-2.3-1.41,2.22,2.22,0,0,0-1.91,1A4.81,4.81,0,0,0,186.06,724.26Z" transform="translate(-2.09)"/><path class="cls-14" d="M199.24,729.23a4.28,4.28,0,0,1-3.24-1.31,4.83,4.83,0,0,1-1.25-3.5v-.3a5.92,5.92,0,0,1,.55-2.61,4.32,4.32,0,0,1,1.56-1.79,3.94,3.94,0,0,1,2.17-.65,3.68,3.68,0,0,1,3,1.26,5.48,5.48,0,0,1,1.06,3.6v.7h-6.64a3.5,3.5,0,0,0,.85,2.34,2.63,2.63,0,0,0,2.06.89,2.92,2.92,0,0,0,1.5-.36,3.78,3.78,0,0,0,1.08-1l1,.8A4.11,4.11,0,0,1,199.24,729.23Zm-.21-8.78a2.23,2.23,0,0,0-1.7.74,3.51,3.51,0,0,0-.85,2.07h4.9v-.13a3.22,3.22,0,0,0-.69-2A2.08,2.08,0,0,0,199,720.45Z" transform="translate(-2.09)"/><rect class="cls-15" x="14.85" y="70.26" width="386.91" height="17.08"/><path class="cls-13" d="M320.49,710.6h-9.87a6,6,0,0,0-6.05,6v9.27a6,6,0,0,0,6.05,6h9.87a6,6,0,0,0,6-6v-9.27A6,6,0,0,0,320.49,710.6Zm-4.94,16.88a6.15,6.15,0,1,1,6.15-6.15A6.15,6.15,0,0,1,315.55,727.48Z" transform="translate(-2.09)"/><circle class="cls-13" cx="313.47" cy="721.28" r="4.06"/><circle class="cls-16" cx="63.82" cy="127.34" r="19.21"/><path d="M74.15,114.38H59.51a.78.78,0,0,0-.77.76v.71h-2a.78.78,0,0,0-.77.77v8.15a1.76,1.76,0,0,0,1.77,1.65H72.85a1.9,1.9,0,0,0,2-1.83v-9.45A.6.6,0,0,0,74.15,114.38ZM58.74,124.65c0,.06-.11.18-.29.18h-.71c-.18,0-.24-.12-.24-.18v-7.38h1.24Zm14.71-.12c0,.18-.24.36-.48.36H60.22v-9H73.45Z" transform="translate(-2.09)"/><path d="M62.94,122.82h7.79a.77.77,0,0,0,0-1.54H62.94a.77.77,0,0,0,0,1.54Z" transform="translate(-2.09)"/><path d="M62.94,119.34h7.79a.77.77,0,1,0,0-1.54H62.94a.77.77,0,0,0,0,1.54Z" transform="translate(-2.09)"/><path d="M58.7,136.43v3H57.17v-8H58.7v.73a2.22,2.22,0,0,1,1.79-.88c1.49,0,2.57,1.11,2.57,3s-1.08,3-2.57,3A2.23,2.23,0,0,1,58.7,136.43Zm2.78-2.16A1.51,1.51,0,0,0,60,132.59a1.66,1.66,0,0,0-1.31.66v2A1.71,1.71,0,0,0,60,136,1.51,1.51,0,0,0,61.48,134.27Z" transform="translate(-2.09)"/><path d="M63.8,134.27a3,3,0,0,1,3-3,2.9,2.9,0,0,1,2.91,3.18v.36H65.4a1.55,1.55,0,0,0,1.67,1.3,2.4,2.4,0,0,0,1.53-.56l.69,1a3.67,3.67,0,0,1-2.39.8A2.94,2.94,0,0,1,63.8,134.27Zm3-1.79a1.33,1.33,0,0,0-1.41,1.24h2.85A1.32,1.32,0,0,0,66.8,132.48Z" transform="translate(-2.09)"/><path d="M70.81,137.18v-5.8h1.53v.78a2.53,2.53,0,0,1,1.85-.93v1.49a2.21,2.21,0,0,0-.42,0,1.91,1.91,0,0,0-1.43.67v3.83Z" transform="translate(-2.09)"/><path class="cls-17" d="M27.47,183.68l8.58,0,246.24-.32c4.42,0,8,4.23,8,9.46l0,312.81c0,5.23-3.56,9.48-8,9.49l-238.25.32c-4.41,0-8-4.24-8-9.47l0-304.67-9.54-15.43A1.39,1.39,0,0,1,27.47,183.68Z" transform="translate(-2.09)"/><path class="cls-4" d="M29.86,177.89h8.59l246.24-.33c4.41,0,8,4.33,8,9.68l0,315.18c0,5.35-3.56,9.7-8,9.7l-238.25.32c-4.41,0-8-4.33-8-9.68l0-306.86-9.54-15.78C28.38,179.19,28.92,177.89,29.86,177.89Z" transform="translate(-2.09)"/><path class="cls-18" d="M223.59,507h-1.15v-7.61l-2.3.85v-1L223.4,498h.18Z" transform="translate(-2.09)"/><path class="cls-18" d="M230.68,507h-1.14V499.4l-2.3.85v-1l3.26-1.24h.18Z" transform="translate(-2.09)"/><path class="cls-18" d="M234.1,501a.73.73,0,0,1,.18-.5.67.67,0,0,1,.53-.19.69.69,0,0,1,.53.19.71.71,0,0,1,.18.5.66.66,0,0,1-.18.47.69.69,0,0,1-.53.19.67.67,0,0,1-.53-.19A.64.64,0,0,1,234.1,501Zm0,5.44a.71.71,0,0,1,.18-.49.68.68,0,0,1,.53-.2.65.65,0,0,1,.71.69.68.68,0,0,1-.18.48.73.73,0,0,1-.53.19.67.67,0,0,1-.53-.19A.73.73,0,0,1,234.1,506.4Z" transform="translate(-2.09)"/><path class="cls-18" d="M242.71,503.16a5.27,5.27,0,0,1-.68,3,2.84,2.84,0,0,1-4.27,0,5,5,0,0,1-.72-2.85V501.8a5.15,5.15,0,0,1,.68-2.94,2.44,2.44,0,0,1,2.15-1,2.48,2.48,0,0,1,2.13.93,4.94,4.94,0,0,1,.71,2.86Zm-1.14-1.56a4.3,4.3,0,0,0-.41-2.11,1.42,1.42,0,0,0-1.29-.66,1.38,1.38,0,0,0-1.28.66,4.09,4.09,0,0,0-.41,2v1.83a4.21,4.21,0,0,0,.43,2.14,1.39,1.39,0,0,0,1.28.7,1.37,1.37,0,0,0,1.25-.66,4,4,0,0,0,.43-2.06Z" transform="translate(-2.09)"/><path class="cls-18" d="M249.8,503.15a5.19,5.19,0,0,1-.68,3,2.43,2.43,0,0,1-2.14,1,2.46,2.46,0,0,1-2.13-.95,5,5,0,0,1-.72-2.85v-1.52a5.15,5.15,0,0,1,.68-2.94,2.89,2.89,0,0,1,4.28,0,4.86,4.86,0,0,1,.71,2.86Zm-1.14-1.56a4.19,4.19,0,0,0-.41-2.11,1.4,1.4,0,0,0-1.29-.66,1.38,1.38,0,0,0-1.28.66,4.2,4.2,0,0,0-.41,2v1.83a4.22,4.22,0,0,0,.42,2.14,1.39,1.39,0,0,0,1.28.7,1.37,1.37,0,0,0,1.25-.66,4,4,0,0,0,.43-2.06Z" transform="translate(-2.09)"/><path class="cls-18" d="M259.65,504.62h-3.77L255,507h-1.22l3.42-9h1l3.45,9h-1.21Zm-3.41-1h3.05l-1.53-4.2Z" transform="translate(-2.09)"/><path class="cls-18" d="M264.45,498l2.94,7.32,2.93-7.33h1.53l0,9h-1.19v-3.49l.1-3.78L267.84,507h-.9L264,499.71l.12,3.75V507h-1.18v-9Z" transform="translate(-2.09)"/><path d="M54.55,395.41a1.05,1.05,0,0,1-1.08,1.06,1.07,1.07,0,0,1-1.11-1.06,1.08,1.08,0,0,1,1.11-1.09A1.07,1.07,0,0,1,54.55,395.41Zm-.14,10.49h-1.9l.31-7.78h1.27Z" transform="translate(-2.09)"/><path d="M67.59,400.14c0,2-1.53,3.17-4.5,3.17H57.47V391.55h5.28c2.71,0,4.22,1.14,4.22,3a2.77,2.77,0,0,1-1.58,2.62A2.84,2.84,0,0,1,67.59,400.14Zm-8.44-7.23v3.76H62.6c1.72,0,2.69-.64,2.69-1.88s-1-1.88-2.69-1.88ZM65.9,400c0-1.36-1-2-2.88-2H59.15V402H63C64.89,402,65.9,401.36,65.9,400Z" transform="translate(-2.09)"/><path d="M78.27,394.4v8.91H76.74V402a3.66,3.66,0,0,1-3,1.45c-2.3,0-3.83-1.27-3.83-3.89V394.4h1.61v5c0,1.75.88,2.62,2.41,2.62s2.75-1,2.75-3V394.4Z" transform="translate(-2.09)"/><path d="M89.36,399.4H82.13a3,3,0,0,0,3.23,2.6,3.31,3.31,0,0,0,2.57-1.07l.9,1a4.86,4.86,0,0,1-8.31-3.11A4.36,4.36,0,0,1,85,394.32a4.3,4.3,0,0,1,4.41,4.59A4.4,4.4,0,0,1,89.36,399.4Zm-7.23-1.16h5.72a2.88,2.88,0,0,0-5.72,0Z" transform="translate(-2.09)"/><path d="M100.09,398.19v5.12H98.48v-4.94c0-1.75-.88-2.6-2.41-2.6a2.64,2.64,0,0,0-2.82,3v4.59H91.63V394.4h1.55v1.35a3.82,3.82,0,0,1,3.21-1.43C98.56,394.32,100.09,395.56,100.09,398.19Z" transform="translate(-2.09)"/><path d="M102.31,398.86a4.63,4.63,0,1,1,4.64,4.56A4.43,4.43,0,0,1,102.31,398.86Zm7.63,0a3,3,0,1,0-3,3.14A2.93,2.93,0,0,0,109.94,398.86Z" transform="translate(-2.09)"/><path d="M112.68,402.37l.67-1.27a5.81,5.81,0,0,0,3.13.92c1.5,0,2.12-.45,2.12-1.21,0-2-5.63-.27-5.63-3.82,0-1.59,1.43-2.67,3.71-2.67a6.46,6.46,0,0,1,3.25.81l-.69,1.27a4.66,4.66,0,0,0-2.57-.7c-1.42,0-2.11.52-2.11,1.23,0,2.1,5.65.38,5.65,3.85,0,1.61-1.48,2.64-3.85,2.64A6.41,6.41,0,0,1,112.68,402.37Z" transform="translate(-2.09)"/><path d="M135.16,390.84v12.47h-1.55V401.9a3.76,3.76,0,0,1-3.18,1.52,4.55,4.55,0,0,1,0-9.1,3.79,3.79,0,0,1,3.11,1.43v-4.91Zm-1.6,8a3,3,0,1,0-3,3.14A2.93,2.93,0,0,0,133.56,398.86Z" transform="translate(-2.09)"/><path d="M140.05,390.92h2l-2.82,2.19h-1.52Zm-1.83,3.48h1.61v8.91h-1.61Z" transform="translate(-2.09)"/><path d="M150,397.93v5.38h-1.53v-1.17a3.33,3.33,0,0,1-2.93,1.28c-2,0-3.29-1.08-3.29-2.63s.92-2.6,3.58-2.6h2.55v-.32c0-1.36-.79-2.15-2.38-2.15a4.57,4.57,0,0,0-2.83.95l-.67-1.21a5.93,5.93,0,0,1,3.68-1.14C148.59,394.32,150,395.5,150,397.93Zm-1.62,2.66v-1.24h-2.48c-1.6,0-2.05.62-2.05,1.38s.74,1.44,2,1.44A2.57,2.57,0,0,0,148.35,400.59Z" transform="translate(-2.09)"/><path d="M151.83,402.37l.68-1.27a5.75,5.75,0,0,0,3.12.92c1.5,0,2.12-.45,2.12-1.21,0-2-5.63-.27-5.63-3.82,0-1.59,1.43-2.67,3.72-2.67a6.4,6.4,0,0,1,3.24.81l-.69,1.27a4.66,4.66,0,0,0-2.57-.7c-1.41,0-2.1.52-2.1,1.23,0,2.1,5.65.38,5.65,3.85,0,1.61-1.48,2.64-3.85,2.64A6.45,6.45,0,0,1,151.83,402.37Z" transform="translate(-2.09)"/><path d="M161,402.34a1.07,1.07,0,0,1,1.11-1.08,1.05,1.05,0,0,1,1.08,1.08,1.06,1.06,0,0,1-1.08,1.08A1.08,1.08,0,0,1,161,402.34Zm.16-10.79h1.89l-.31,8.05h-1.28Z" transform="translate(-2.09)"/><path d="M55.3,413.18h-4v-1.46H61v1.46H57v10.31H55.3Z" transform="translate(-2.09)"/><path d="M69.69,419.57H62.47a3,3,0,0,0,3.22,2.61,3.35,3.35,0,0,0,2.58-1.08l.89,1A4.86,4.86,0,0,1,60.85,419a4.36,4.36,0,0,1,4.47-4.54,4.3,4.3,0,0,1,4.41,4.59A4.22,4.22,0,0,1,69.69,419.57Zm-7.22-1.16h5.71a2.87,2.87,0,0,0-5.71,0Z" transform="translate(-2.09)"/><path d="M91.28,418.36v5.13H89.67v-4.94c0-1.75-.84-2.61-2.31-2.61s-2.67,1-2.67,3v4.59H83.08v-4.94c0-1.75-.84-2.61-2.31-2.61s-2.67,1-2.67,3v4.59H76.49v-8.91H78v1.33a3.61,3.61,0,0,1,3.08-1.42,3.3,3.3,0,0,1,3.09,1.65,4,4,0,0,1,3.43-1.65C89.8,414.49,91.28,415.74,91.28,418.36Z" transform="translate(-2.09)"/><path d="M101.32,418.11v5.38H99.79v-1.18a3.31,3.31,0,0,1-2.93,1.28c-2,0-3.29-1.08-3.29-2.62s.92-2.61,3.58-2.61H99.7V418c0-1.36-.79-2.15-2.38-2.15a4.51,4.51,0,0,0-2.83,1l-.67-1.21a5.92,5.92,0,0,1,3.68-1.15C99.94,414.49,101.32,415.67,101.32,418.11Zm-1.62,2.65v-1.24H97.22c-1.6,0-2.06.62-2.06,1.38s.74,1.44,2,1.44A2.57,2.57,0,0,0,99.7,420.76Z" transform="translate(-2.09)"/><path d="M112.77,418.36v5.13h-1.62v-4.94c0-1.75-.87-2.61-2.4-2.61a2.65,2.65,0,0,0-2.83,3v4.59h-1.61v-8.91h1.55v1.34a3.82,3.82,0,0,1,3.21-1.43C111.24,414.49,112.77,415.74,112.77,418.36Z" transform="translate(-2.09)"/><path d="M124.21,411v12.48h-1.54v-1.41a3.8,3.8,0,0,1-3.18,1.51,4.55,4.55,0,0,1,0-9.1,3.79,3.79,0,0,1,3.11,1.43V411Zm-1.59,8a3,3,0,1,0-3,3.15A2.93,2.93,0,0,0,122.62,419Z" transform="translate(-2.09)"/><path d="M134.33,418.11v5.38H132.8v-1.18a3.29,3.29,0,0,1-2.92,1.28c-2,0-3.3-1.08-3.3-2.62s.93-2.61,3.59-2.61h2.55V418c0-1.36-.79-2.15-2.39-2.15a4.48,4.48,0,0,0-2.82,1l-.67-1.21a5.92,5.92,0,0,1,3.68-1.15C133,414.49,134.33,415.67,134.33,418.11Zm-1.61,2.65v-1.24h-2.49c-1.59,0-2,.62-2,1.38s.74,1.44,2,1.44A2.57,2.57,0,0,0,132.72,420.76Z" transform="translate(-2.09)"/><path d="M152.12,418.36v5.13h-1.61v-4.94c0-1.75-.84-2.61-2.31-2.61s-2.67,1-2.67,3v4.59h-1.61v-4.94c0-1.75-.84-2.61-2.31-2.61s-2.67,1-2.67,3v4.59h-1.61v-8.91h1.54v1.33a3.63,3.63,0,0,1,3.08-1.42,3.29,3.29,0,0,1,3.09,1.65,4,4,0,0,1,3.43-1.65C150.64,414.49,152.12,415.74,152.12,418.36Z" transform="translate(-2.09)"/><path d="M154.32,419a4.64,4.64,0,1,1,4.64,4.56A4.44,4.44,0,0,1,154.32,419Zm7.64,0a3,3,0,1,0-6,0,3,3,0,1,0,6,0Z" transform="translate(-2.09)"/><path d="M164.7,422.55l.67-1.28a5.7,5.7,0,0,0,3.13.92c1.49,0,2.11-.45,2.11-1.21,0-2-5.63-.27-5.63-3.81,0-1.6,1.43-2.68,3.72-2.68a6.5,6.5,0,0,1,3.24.81l-.69,1.28a4.65,4.65,0,0,0-2.57-.71c-1.41,0-2.1.52-2.1,1.23,0,2.1,5.65.39,5.65,3.85,0,1.61-1.48,2.64-3.85,2.64A6.41,6.41,0,0,1,164.7,422.55Z" transform="translate(-2.09)"/><path d="M178.77,411h1.61v12.48h-1.61Z" transform="translate(-2.09)"/><path d="M190.52,418.11v5.38H189v-1.18a3.31,3.31,0,0,1-2.93,1.28c-2,0-3.29-1.08-3.29-2.62s.92-2.61,3.58-2.61h2.55V418c0-1.36-.79-2.15-2.38-2.15a4.51,4.51,0,0,0-2.83,1l-.67-1.21a5.92,5.92,0,0,1,3.68-1.15C189.14,414.49,190.52,415.67,190.52,418.11Zm-1.62,2.65v-1.24h-2.48c-1.6,0-2.06.62-2.06,1.38s.74,1.44,2,1.44A2.57,2.57,0,0,0,188.9,420.76Z" transform="translate(-2.09)"/><path d="M192.38,422.55l.68-1.28a5.67,5.67,0,0,0,3.12.92c1.5,0,2.12-.45,2.12-1.21,0-2-5.63-.27-5.63-3.81,0-1.6,1.43-2.68,3.72-2.68a6.5,6.5,0,0,1,3.24.81l-.69,1.28a4.68,4.68,0,0,0-2.57-.71c-1.41,0-2.1.52-2.1,1.23,0,2.1,5.65.39,5.65,3.85,0,1.61-1.48,2.64-3.85,2.64A6.45,6.45,0,0,1,192.38,422.55Z" transform="translate(-2.09)"/><path d="M214.76,414.58v8.91h-1.53v-1.35a3.63,3.63,0,0,1-3,1.45c-2.3,0-3.83-1.26-3.83-3.88v-5.13H208v4.94c0,1.75.88,2.62,2.41,2.62a2.62,2.62,0,0,0,2.76-3v-4.6Zm-3.93-1.3h-1.52l2.29-2.18h2.05Z" transform="translate(-2.09)"/><path d="M217.84,411h1.61v12.48h-1.61Z" transform="translate(-2.09)"/><path d="M227.75,423a3,3,0,0,1-1.95.62A2.54,2.54,0,0,1,223,420.8v-4.89h-1.51v-1.33H223v-1.95h1.61v1.95h2.56v1.33h-2.56v4.82a1.32,1.32,0,0,0,1.4,1.5,2,2,0,0,0,1.26-.42Z" transform="translate(-2.09)"/><path d="M229.42,411.82a1.06,1.06,0,0,1,1.09-1.06,1.05,1.05,0,1,1-1.09,1.06Zm.28,2.76h1.62v8.91H229.7Z" transform="translate(-2.09)"/><path d="M249.19,418.36v5.13h-1.62v-4.94c0-1.75-.84-2.61-2.3-2.61-1.61,0-2.67,1-2.67,3v4.59H241v-4.94c0-1.75-.84-2.61-2.3-2.61-1.61,0-2.67,1-2.67,3v4.59h-1.62v-8.91h1.55v1.33a3.61,3.61,0,0,1,3.08-1.42,3.3,3.3,0,0,1,3.09,1.65,4,4,0,0,1,3.43-1.65C247.71,414.49,249.19,415.74,249.19,418.36Z" transform="translate(-2.09)"/><path d="M259.23,418.11v5.38H257.7v-1.18a3.31,3.31,0,0,1-2.93,1.28c-2,0-3.29-1.08-3.29-2.62s.92-2.61,3.58-2.61h2.55V418c0-1.36-.79-2.15-2.39-2.15a4.48,4.48,0,0,0-2.82,1l-.67-1.21a5.92,5.92,0,0,1,3.68-1.15C257.85,414.49,259.23,415.67,259.23,418.11Zm-1.62,2.65v-1.24h-2.49c-1.59,0-2.05.62-2.05,1.38s.74,1.44,2,1.44A2.57,2.57,0,0,0,257.61,420.76Z" transform="translate(-2.09)"/><path d="M261.09,422.55l.67-1.28a5.73,5.73,0,0,0,3.13.92c1.5,0,2.12-.45,2.12-1.21,0-2-5.63-.27-5.63-3.81,0-1.6,1.43-2.68,3.71-2.68a6.57,6.57,0,0,1,3.25.81l-.69,1.28a4.68,4.68,0,0,0-2.57-.71c-1.42,0-2.11.52-2.11,1.23,0,2.1,5.65.39,5.65,3.85,0,1.61-1.48,2.64-3.85,2.64A6.41,6.41,0,0,1,261.09,422.55Z" transform="translate(-2.09)"/><path d="M61.19,438.53v5.13H59.57v-4.94c0-1.75-.87-2.61-2.4-2.61a2.65,2.65,0,0,0-2.82,3v4.59H52.73v-8.91h1.55v1.35a3.81,3.81,0,0,1,3.21-1.43C59.66,434.67,61.19,435.91,61.19,438.53Z" transform="translate(-2.09)"/><path d="M63.41,439.21a4.63,4.63,0,1,1,4.64,4.55A4.43,4.43,0,0,1,63.41,439.21Zm7.63,0a3,3,0,1,0-3,3.14A2.93,2.93,0,0,0,71,439.21Z" transform="translate(-2.09)"/><path d="M79.92,443.14a3.05,3.05,0,0,1-2,.62A2.55,2.55,0,0,1,75.14,441v-4.89H73.63v-1.33h1.51V432.8h1.62v1.95h2.55v1.33H76.76v4.82a1.31,1.31,0,0,0,1.39,1.5,2,2,0,0,0,1.26-.42Z" transform="translate(-2.09)"/><path d="M81.58,432a1.06,1.06,0,0,1,1.09-1.05,1,1,0,0,1,1.1,1,1.1,1.1,0,0,1-2.19,0Zm.29,2.76h1.61v8.91H81.87Z" transform="translate(-2.09)"/><path d="M85.73,439.21a4.45,4.45,0,0,1,4.71-4.54,4,4,0,0,1,3.63,1.9l-1.23.79a2.76,2.76,0,0,0-2.42-1.28,3.14,3.14,0,0,0,0,6.27,2.76,2.76,0,0,0,2.42-1.28l1.23.78a4,4,0,0,1-3.63,1.91A4.47,4.47,0,0,1,85.73,439.21Z" transform="translate(-2.09)"/><path d="M95.87,432A1.1,1.1,0,1,1,97,433,1.06,1.06,0,0,1,95.87,432Zm.29,2.76h1.61v8.91H96.16Z" transform="translate(-2.09)"/><path d="M107.91,438.28v5.38h-1.53v-1.18a3.31,3.31,0,0,1-2.93,1.28c-2,0-3.29-1.07-3.29-2.62s.92-2.61,3.58-2.61h2.55v-.31c0-1.37-.79-2.16-2.38-2.16a4.51,4.51,0,0,0-2.83,1l-.67-1.21a5.91,5.91,0,0,1,3.68-1.14C106.53,434.67,107.91,435.84,107.91,438.28Zm-1.62,2.66v-1.25H103.8c-1.59,0-2,.63-2,1.38s.74,1.45,2,1.45A2.59,2.59,0,0,0,106.29,440.94Z" transform="translate(-2.09)"/><path d="M109.77,442.72l.68-1.28a5.67,5.67,0,0,0,3.12.93c1.5,0,2.12-.46,2.12-1.21,0-2-5.63-.27-5.63-3.82,0-1.6,1.43-2.67,3.71-2.67a6.54,6.54,0,0,1,3.25.8l-.69,1.28a4.66,4.66,0,0,0-2.57-.7c-1.42,0-2.1.52-2.1,1.22,0,2.11,5.64.39,5.64,3.85,0,1.62-1.48,2.64-3.85,2.64A6.41,6.41,0,0,1,109.77,442.72Z" transform="translate(-2.09)"/><path d="M133.07,439.21a4.32,4.32,0,0,1-4.5,4.55,3.83,3.83,0,0,1-3.11-1.44v4.6h-1.62V434.75h1.55v1.41a3.8,3.8,0,0,1,3.18-1.49A4.32,4.32,0,0,1,133.07,439.21Zm-1.63,0a3,3,0,1,0-3,3.14A2.94,2.94,0,0,0,131.44,439.21Z" transform="translate(-2.09)"/><path d="M142.29,438.28v5.38h-1.53v-1.18a3.31,3.31,0,0,1-2.93,1.28c-2,0-3.29-1.07-3.29-2.62s.92-2.61,3.58-2.61h2.55v-.31c0-1.37-.79-2.16-2.39-2.16a4.51,4.51,0,0,0-2.82,1l-.67-1.21a5.91,5.91,0,0,1,3.68-1.14C140.91,434.67,142.29,435.84,142.29,438.28Zm-1.62,2.66v-1.25h-2.49c-1.59,0-2.05.63-2.05,1.38s.74,1.45,2,1.45A2.59,2.59,0,0,0,140.67,440.94Z" transform="translate(-2.09)"/><path d="M150.07,434.67v1.56a2.36,2.36,0,0,0-.37,0c-1.73,0-2.81,1.06-2.81,3v4.44h-1.61v-8.91h1.55v1.5A3.4,3.4,0,0,1,150.07,434.67Z" transform="translate(-2.09)"/><path d="M159.1,438.28v5.38h-1.53v-1.18a3.31,3.31,0,0,1-2.93,1.28c-2,0-3.29-1.07-3.29-2.62s.92-2.61,3.58-2.61h2.55v-.31c0-1.37-.79-2.16-2.38-2.16a4.51,4.51,0,0,0-2.83,1l-.67-1.21a5.91,5.91,0,0,1,3.68-1.14C157.72,434.67,159.1,435.84,159.1,438.28Zm-1.62,2.66v-1.25H155c-1.6,0-2.06.63-2.06,1.38s.74,1.45,2,1.45A2.59,2.59,0,0,0,157.48,440.94Z" transform="translate(-2.09)"/><path d="M175,434.75v12.17H173.4v-4.6a3.83,3.83,0,0,1-3.11,1.44,4.55,4.55,0,0,1,0-9.09,3.8,3.8,0,0,1,3.18,1.49v-1.41Zm-1.6,4.46a3,3,0,1,0-3,3.14A2.94,2.94,0,0,0,173.42,439.21Z" transform="translate(-2.09)"/><path d="M186.38,434.75v8.91h-1.53v-1.34a3.62,3.62,0,0,1-3,1.44c-2.31,0-3.84-1.26-3.84-3.88v-5.13h1.62v4.94c0,1.75.87,2.63,2.4,2.63a2.63,2.63,0,0,0,2.76-3v-4.61Z" transform="translate(-2.09)"/><path d="M197.48,439.75h-7.23a3,3,0,0,0,3.23,2.6,3.31,3.31,0,0,0,2.57-1.08l.89,1.05a4.86,4.86,0,0,1-8.31-3.11,4.37,4.37,0,0,1,4.48-4.54,4.29,4.29,0,0,1,4.4,4.59C197.51,439.39,197.49,439.59,197.48,439.75Zm-7.23-1.16H196a2.87,2.87,0,0,0-5.71,0Z" transform="translate(-2.09)"/><path d="M212.68,431.19v12.47h-1.55v-1.41a3.76,3.76,0,0,1-3.18,1.51,4.55,4.55,0,0,1,0-9.09,3.79,3.79,0,0,1,3.11,1.43v-4.91Zm-1.6,8a3,3,0,1,0-3,3.14A2.94,2.94,0,0,0,211.08,439.21Z" transform="translate(-2.09)"/><path d="M215.45,432a1.06,1.06,0,0,1,1.09-1.05,1,1,0,0,1,1.09,1,1.09,1.09,0,0,1-2.18,0Zm.28,2.76h1.62v8.91h-1.62Z" transform="translate(-2.09)"/><path d="M219.3,442.72l.67-1.28a5.73,5.73,0,0,0,3.13.93c1.49,0,2.12-.46,2.12-1.21,0-2-5.64-.27-5.64-3.82,0-1.6,1.43-2.67,3.72-2.67a6.5,6.5,0,0,1,3.24.8l-.68,1.28a4.68,4.68,0,0,0-2.58-.7c-1.41,0-2.1.52-2.1,1.22,0,2.11,5.65.39,5.65,3.85,0,1.62-1.48,2.64-3.85,2.64A6.41,6.41,0,0,1,219.3,442.72Z" transform="translate(-2.09)"/><path d="M230.66,434v.77h2.59v1.33H230.7v7.58h-1.62v-7.58h-1.51v-1.33h1.51V434a2.68,2.68,0,0,1,2.94-2.87,3,3,0,0,1,1.82.52l-.49,1.23a2,2,0,0,0-1.24-.42C231.15,432.42,230.66,433,230.66,434Z" transform="translate(-2.09)"/><path d="M240.92,434.67v1.56a2.42,2.42,0,0,0-.37,0c-1.73,0-2.81,1.06-2.81,3v4.44h-1.61v-8.91h1.54v1.5A3.41,3.41,0,0,1,240.92,434.67Z" transform="translate(-2.09)"/><path d="M251.32,434.75v8.91h-1.53v-1.34a3.62,3.62,0,0,1-3,1.44c-2.31,0-3.83-1.26-3.83-3.88v-5.13h1.61v4.94c0,1.75.87,2.63,2.4,2.63a2.63,2.63,0,0,0,2.76-3v-4.61Z" transform="translate(-2.09)"/><path d="M259.41,443.14a3.05,3.05,0,0,1-2,.62,2.54,2.54,0,0,1-2.82-2.79v-4.89h-1.52v-1.33h1.52V432.8h1.61v1.95h2.56v1.33h-2.56v4.82a1.31,1.31,0,0,0,1.4,1.5,2,2,0,0,0,1.26-.42Z" transform="translate(-2.09)"/><path d="M269.08,439.75h-7.23a3,3,0,0,0,3.23,2.6,3.31,3.31,0,0,0,2.57-1.08l.89,1.05a4.86,4.86,0,0,1-8.31-3.11,4.37,4.37,0,0,1,4.48-4.54,4.29,4.29,0,0,1,4.4,4.59C269.11,439.39,269.09,439.59,269.08,439.75Zm-7.23-1.16h5.71a2.87,2.87,0,0,0-5.71,0Z" transform="translate(-2.09)"/><path d="M270.22,442.72l.67-1.28a5.73,5.73,0,0,0,3.13.93c1.5,0,2.12-.46,2.12-1.21,0-2-5.63-.27-5.63-3.82,0-1.6,1.42-2.67,3.71-2.67a6.57,6.57,0,0,1,3.25.8l-.69,1.28a4.68,4.68,0,0,0-2.58-.7c-1.41,0-2.1.52-2.1,1.22,0,2.11,5.65.39,5.65,3.85,0,1.62-1.48,2.64-3.85,2.64A6.41,6.41,0,0,1,270.22,442.72Z" transform="translate(-2.09)"/><path d="M51.91,459.38a4.45,4.45,0,0,1,4.71-4.54,4,4,0,0,1,3.63,1.9l-1.23.79a2.79,2.79,0,0,0-2.42-1.28,3.14,3.14,0,0,0,0,6.27A2.78,2.78,0,0,0,59,461.25l1.23.77a4,4,0,0,1-3.63,1.92A4.47,4.47,0,0,1,51.91,459.38Z" transform="translate(-2.09)"/><path d="M61.37,459.38A4.64,4.64,0,1,1,66,463.94,4.43,4.43,0,0,1,61.37,459.38Zm7.64,0a3,3,0,1,0-3,3.14A2.93,2.93,0,0,0,69,459.38Z" transform="translate(-2.09)"/><path d="M81.33,458.71v5.13H79.71v-4.95c0-1.75-.87-2.6-2.4-2.6a2.64,2.64,0,0,0-2.82,3v4.59H72.87v-8.91h1.55v1.34a3.81,3.81,0,0,1,3.21-1.43C79.8,454.84,81.33,456.09,81.33,458.71Z" transform="translate(-2.09)"/><path d="M97.15,454.93v8.91H95.62v-1.35a3.63,3.63,0,0,1-3,1.45c-2.3,0-3.83-1.26-3.83-3.89v-5.12h1.61v4.94c0,1.75.88,2.62,2.41,2.62s2.75-1,2.75-3v-4.6Z" transform="translate(-2.09)"/><path d="M108.68,458.71v5.13h-1.61v-4.95c0-1.75-.88-2.6-2.41-2.6a2.64,2.64,0,0,0-2.82,3v4.59h-1.62v-8.91h1.55v1.34a3.82,3.82,0,0,1,3.21-1.43C107.15,454.84,108.68,456.09,108.68,458.71Z" transform="translate(-2.09)"/><path d="M115.37,459.38a4.45,4.45,0,0,1,4.71-4.54,4,4,0,0,1,3.63,1.9l-1.23.79a2.78,2.78,0,0,0-2.42-1.28,3.14,3.14,0,0,0,0,6.27,2.77,2.77,0,0,0,2.42-1.27l1.23.77a4,4,0,0,1-3.63,1.92A4.47,4.47,0,0,1,115.37,459.38Z" transform="translate(-2.09)"/><path d="M132.86,458.46v5.38h-1.53v-1.18a3.31,3.31,0,0,1-2.93,1.28c-2,0-3.29-1.08-3.29-2.63s.92-2.6,3.58-2.6h2.55v-.32c0-1.36-.79-2.15-2.39-2.15a4.51,4.51,0,0,0-2.82,1l-.67-1.22a6,6,0,0,1,3.68-1.14C131.48,454.84,132.86,456,132.86,458.46Zm-1.62,2.65v-1.24h-2.49c-1.59,0-2,.62-2,1.38s.74,1.44,2,1.44A2.57,2.57,0,0,0,131.24,461.11Z" transform="translate(-2.09)"/><path d="M137.66,454.15v.78h2.59v1.32H137.7v7.59h-1.62v-7.59h-1.51v-1.32h1.51v-.79a2.68,2.68,0,0,1,2.95-2.88,3,3,0,0,1,1.81.52l-.49,1.23a2.08,2.08,0,0,0-1.24-.42C138.15,452.59,137.66,453.13,137.66,454.15Z" transform="translate(-2.09)"/><path d="M149.67,459.92h-7.23a3,3,0,0,0,3.23,2.6,3.34,3.34,0,0,0,2.57-1.07l.89,1a4.86,4.86,0,0,1-8.31-3.11,4.37,4.37,0,0,1,4.48-4.54,4.29,4.29,0,0,1,4.4,4.59C149.7,459.57,149.68,459.77,149.67,459.92Zm-7.23-1.16h5.71a2.87,2.87,0,0,0-5.71,0Z" transform="translate(-2.09)"/><path d="M164.34,454.93l-4.32,9.8c-.79,1.88-1.81,2.47-3.17,2.47a3.34,3.34,0,0,1-2.29-.83l.69-1.21a2.29,2.29,0,0,0,1.6.66c.77,0,1.26-.35,1.69-1.38l.29-.62-3.93-8.89h1.68l3.11,7.12,3.07-7.12Z" transform="translate(-2.09)"/><path d="M169.55,459.38a4.45,4.45,0,0,1,4.71-4.54,4,4,0,0,1,3.63,1.9l-1.22.79a2.8,2.8,0,0,0-2.42-1.28,3.14,3.14,0,0,0,0,6.27,2.79,2.79,0,0,0,2.42-1.27l1.22.77a4,4,0,0,1-3.63,1.92A4.47,4.47,0,0,1,169.55,459.38Z" transform="translate(-2.09)"/><path d="M179,459.38a4.63,4.63,0,1,1,4.64,4.56A4.43,4.43,0,0,1,179,459.38Zm7.63,0a3,3,0,1,0-3,3.14A2.93,2.93,0,0,0,186.65,459.38Z" transform="translate(-2.09)"/><path d="M205.31,458.71v5.13H203.7v-4.95c0-1.75-.84-2.6-2.3-2.6-1.62,0-2.68,1-2.68,3v4.59h-1.61v-4.95c0-1.75-.84-2.6-2.3-2.6-1.62,0-2.68,1-2.68,3v4.59h-1.61v-8.91h1.55v1.32a3.61,3.61,0,0,1,3.07-1.41,3.29,3.29,0,0,1,3.09,1.65,4,4,0,0,1,3.43-1.65C203.83,454.84,205.31,456.09,205.31,458.71Z" transform="translate(-2.09)"/><path d="M208,452.17a1.06,1.06,0,0,1,1.1-1.06,1,1,0,0,1,1.09,1,1.1,1.1,0,0,1-2.19,0Zm.29,2.76h1.61v8.91h-1.61Z" transform="translate(-2.09)"/><path d="M221,459.92h-7.23a3,3,0,0,0,3.23,2.6,3.34,3.34,0,0,0,2.57-1.07l.89,1a4.86,4.86,0,0,1-8.31-3.11,4.37,4.37,0,0,1,4.48-4.54,4.29,4.29,0,0,1,4.4,4.59C221,459.57,221,459.77,221,459.92Zm-7.23-1.16h5.71a2.87,2.87,0,0,0-5.71,0Z" transform="translate(-2.09)"/><path d="M231.72,458.71v5.13h-1.61v-4.95c0-1.75-.87-2.6-2.4-2.6a2.65,2.65,0,0,0-2.83,3v4.59h-1.61v-8.91h1.54v1.34a3.82,3.82,0,0,1,3.21-1.43C230.19,454.84,231.72,456.09,231.72,458.71Z" transform="translate(-2.09)"/><path d="M233.94,459.38a4.45,4.45,0,0,1,4.71-4.54,4,4,0,0,1,3.63,1.9l-1.23.79a2.78,2.78,0,0,0-2.42-1.28,3.14,3.14,0,0,0,0,6.27,2.77,2.77,0,0,0,2.42-1.27l1.23.77a4,4,0,0,1-3.63,1.92A4.47,4.47,0,0,1,233.94,459.38Z" transform="translate(-2.09)"/><path d="M252.25,459.92H245a3,3,0,0,0,3.23,2.6,3.32,3.32,0,0,0,2.57-1.07l.89,1a4.85,4.85,0,0,1-8.3-3.11,4.36,4.36,0,0,1,4.47-4.54,4.29,4.29,0,0,1,4.4,4.59A4.15,4.15,0,0,1,252.25,459.92ZM245,458.76h5.72a2.88,2.88,0,0,0-5.72,0Z" transform="translate(-2.09)"/><path d="M253.39,462.89l.68-1.27a5.75,5.75,0,0,0,3.12.92c1.5,0,2.12-.45,2.12-1.21,0-2-5.63-.27-5.63-3.82,0-1.59,1.43-2.67,3.71-2.67a6.44,6.44,0,0,1,3.25.81l-.69,1.28a4.68,4.68,0,0,0-2.57-.71c-1.41,0-2.1.52-2.1,1.23,0,2.1,5.64.38,5.64,3.85,0,1.61-1.47,2.64-3.85,2.64A6.44,6.44,0,0,1,253.39,462.89Z" transform="translate(-2.09)"/><path d="M275.48,459.92h-7.23a3,3,0,0,0,3.23,2.6,3.32,3.32,0,0,0,2.57-1.07l.9,1a4.86,4.86,0,0,1-8.31-3.11,4.36,4.36,0,0,1,4.47-4.54,4.3,4.3,0,0,1,4.41,4.59A4.22,4.22,0,0,1,275.48,459.92Zm-7.23-1.16H274a2.88,2.88,0,0,0-5.72,0Z" transform="translate(-2.09)"/><path d="M277.75,451.36h1.62v12.48h-1.62Z" transform="translate(-2.09)"/><path d="M61.14,471.54V484H59.59V482.6a3.76,3.76,0,0,1-3.18,1.51,4.55,4.55,0,0,1,0-9.09,3.81,3.81,0,0,1,3.11,1.42v-4.9Zm-1.6,8a3,3,0,1,0-6,0,3,3,0,1,0,6,0Z" transform="translate(-2.09)"/><path d="M66,471.62h2l-2.82,2.19H63.74ZM64.2,475.1h1.61V484H64.2Z" transform="translate(-2.09)"/><path d="M76,478.63V484H74.42v-1.18a3.31,3.31,0,0,1-2.93,1.28c-2,0-3.29-1.08-3.29-2.62s.92-2.61,3.58-2.61h2.55v-.32c0-1.36-.79-2.15-2.38-2.15a4.51,4.51,0,0,0-2.83,1l-.67-1.21A5.93,5.93,0,0,1,72.13,475C74.57,475,76,476.19,76,478.63Zm-1.62,2.66V480H71.85c-1.6,0-2,.62-2,1.38s.74,1.45,2,1.45A2.59,2.59,0,0,0,74.33,481.29Z" transform="translate(-2.09)"/><path d="M91.87,471.54V484H90.32V482.6a3.75,3.75,0,0,1-3.18,1.51,4.55,4.55,0,0,1,0-9.09,3.78,3.78,0,0,1,3.11,1.42v-4.9Zm-1.6,8a3,3,0,1,0-6,0,3,3,0,1,0,6,0Z" transform="translate(-2.09)"/><path d="M103,480.09H95.72A3,3,0,0,0,99,482.7a3.31,3.31,0,0,0,2.57-1.08l.89,1a4.86,4.86,0,0,1-8.31-3.11A4.36,4.36,0,0,1,98.58,475a4.29,4.29,0,0,1,4.4,4.58C103,479.74,103,479.94,103,480.09Zm-7.23-1.16h5.71a2.87,2.87,0,0,0-5.71,0Z" transform="translate(-2.09)"/><path d="M109.74,471.54h1.61V484h-1.61Z" transform="translate(-2.09)"/><path d="M121.49,478.63V484H120v-1.18a3.3,3.3,0,0,1-2.92,1.28c-2,0-3.3-1.08-3.3-2.62s.93-2.61,3.58-2.61h2.56v-.32c0-1.36-.79-2.15-2.39-2.15a4.46,4.46,0,0,0-2.82,1l-.68-1.21a6,6,0,0,1,3.68-1.14C120.11,475,121.49,476.19,121.49,478.63Zm-1.61,2.66V480h-2.49c-1.6,0-2,.62-2,1.38s.74,1.45,2,1.45A2.61,2.61,0,0,0,119.88,481.29Z" transform="translate(-2.09)"/><path d="M143.8,478.88V484h-1.61v-4.94c0-1.75-.85-2.61-2.31-2.61s-2.67,1-2.67,3V484H135.6v-4.94c0-1.75-.85-2.61-2.31-2.61s-2.67,1-2.67,3V484H129V475.1h1.54v1.33a3.61,3.61,0,0,1,3.08-1.41,3.29,3.29,0,0,1,3.09,1.64,4,4,0,0,1,3.43-1.64C142.32,475,143.8,476.26,143.8,478.88Z" transform="translate(-2.09)"/><path d="M154.84,480.09h-7.22a3,3,0,0,0,3.22,2.61,3.32,3.32,0,0,0,2.58-1.08l.89,1a4.86,4.86,0,0,1-8.31-3.11,4.36,4.36,0,0,1,4.47-4.53,4.29,4.29,0,0,1,4.41,4.58A4.22,4.22,0,0,1,154.84,480.09Zm-7.22-1.16h5.71a2.87,2.87,0,0,0-5.71,0Z" transform="translate(-2.09)"/><path d="M154,486.83l.52-1.24a2,2,0,0,0,1.31.42c.86,0,1.33-.54,1.33-1.56V475.1h1.61v9.31a2.66,2.66,0,0,1-2.84,3A3.15,3.15,0,0,1,154,486.83Zm2.87-14.49a1.1,1.1,0,1,1,1.09,1A1,1,0,0,1,156.91,472.34Z" transform="translate(-2.09)"/><path d="M161.06,479.55a4.64,4.64,0,1,1,4.64,4.56A4.43,4.43,0,0,1,161.06,479.55Zm7.64,0a3,3,0,1,0-6,0,3,3,0,1,0,6,0Z" transform="translate(-2.09)"/><path d="M177.35,475v1.56a2.36,2.36,0,0,0-.37,0c-1.73,0-2.8,1.06-2.8,3V484h-1.62V475.1h1.55v1.5A3.38,3.38,0,0,1,177.35,475Z" transform="translate(-2.09)"/><path d="M198.77,478.88V484h-1.61v-4.94c0-1.75-.84-2.61-2.3-2.61-1.62,0-2.68,1-2.68,3V484h-1.61v-4.94c0-1.75-.84-2.61-2.3-2.61-1.62,0-2.68,1-2.68,3V484H184V475.1h1.54v1.33A3.62,3.62,0,0,1,188.6,475a3.28,3.28,0,0,1,3.09,1.64,4,4,0,0,1,3.43-1.64C197.29,475,198.77,476.26,198.77,478.88Z" transform="translate(-2.09)"/><path d="M208.81,478.63V484h-1.53v-1.18a3.31,3.31,0,0,1-2.93,1.28c-2,0-3.29-1.08-3.29-2.62s.92-2.61,3.58-2.61h2.55v-.32c0-1.36-.79-2.15-2.38-2.15a4.51,4.51,0,0,0-2.83,1l-.67-1.21A5.93,5.93,0,0,1,205,475C207.43,475,208.81,476.19,208.81,478.63Zm-1.62,2.66V480h-2.48c-1.6,0-2.05.62-2.05,1.38s.74,1.45,2,1.45A2.59,2.59,0,0,0,207.19,481.29Z" transform="translate(-2.09)"/><path d="M220.26,478.88V484h-1.62v-4.94c0-1.75-.87-2.61-2.4-2.61a2.65,2.65,0,0,0-2.83,3V484H211.8V475.1h1.55v1.34a3.83,3.83,0,0,1,3.21-1.42C218.73,475,220.26,476.26,220.26,478.88Z" transform="translate(-2.09)"/><path d="M231.32,480.09h-7.23a3,3,0,0,0,3.23,2.61,3.31,3.31,0,0,0,2.57-1.08l.89,1a4.85,4.85,0,0,1-8.3-3.11A4.36,4.36,0,0,1,227,475a4.29,4.29,0,0,1,4.4,4.58A4.15,4.15,0,0,1,231.32,480.09Zm-7.23-1.16h5.72a2.88,2.88,0,0,0-5.72,0Z" transform="translate(-2.09)"/><path d="M238.38,475v1.56a2.36,2.36,0,0,0-.37,0c-1.73,0-2.81,1.06-2.81,3V484h-1.61V475.1h1.55v1.5A3.38,3.38,0,0,1,238.38,475Z" transform="translate(-2.09)"/><path d="M247.41,478.63V484h-1.53v-1.18a3.31,3.31,0,0,1-2.93,1.28c-2,0-3.29-1.08-3.29-2.62s.92-2.61,3.58-2.61h2.55v-.32c0-1.36-.79-2.15-2.38-2.15a4.51,4.51,0,0,0-2.83,1l-.67-1.21a5.91,5.91,0,0,1,3.68-1.14C246,475,247.41,476.19,247.41,478.63Zm-1.62,2.66V480h-2.48c-1.6,0-2.06.62-2.06,1.38s.74,1.45,2,1.45A2.59,2.59,0,0,0,245.79,481.29Z" transform="translate(-2.09)"/><path d="M249.64,483a1.12,1.12,0,0,1,1.15-1.14A1.11,1.11,0,0,1,251.9,483a1.13,1.13,0,0,1-1.11,1.16A1.14,1.14,0,0,1,249.64,483Z" transform="translate(-2.09)"/><rect class="cls-19" x="49.77" y="185.76" width="234.9" height="198.88" rx="8.22"/><polygon class="cls-20" points="89.89 352.16 89.89 372.75 68.18 372.75 68.18 347.17 85.35 347.17 89.89 352.16"/><text class="cls-21" transform="translate(70.51 366.92)">PD<tspan class="cls-22" x="11.82" y="0">F</tspan></text><polygon class="cls-23" points="89.89 352.16 85.35 352.16 85.35 347.12 89.89 352.16"/><path d="M98.63,362.62l.44-.94a4.33,4.33,0,0,0,2.78,1c1.45,0,2.08-.57,2.08-1.3,0-2.05-5.1-.76-5.1-3.88,0-1.3,1-2.4,3.22-2.4a5,5,0,0,1,2.71.74l-.4,1a4.4,4.4,0,0,0-2.31-.68c-1.43,0-2,.6-2,1.33,0,2.06,5.09.77,5.09,3.86,0,1.28-1,2.39-3.25,2.39A5,5,0,0,1,98.63,362.62Z" transform="translate(-2.09)"/><path d="M112.62,357.22v6.36h-1.09v-1a2.59,2.59,0,0,1-2.16,1,2.5,2.5,0,0,1-2.74-2.77v-3.66h1.15v3.53c0,1.25.63,1.87,1.72,1.87a1.87,1.87,0,0,0,2-2.11v-3.29Z" transform="translate(-2.09)"/><path d="M114,362.91l.48-.91a4.14,4.14,0,0,0,2.24.66c1.07,0,1.51-.33,1.51-.87,0-1.43-4-.19-4-2.72,0-1.15,1-1.91,2.65-1.91a4.63,4.63,0,0,1,2.32.57l-.49.92a3.29,3.29,0,0,0-1.84-.51c-1,0-1.5.37-1.5.88,0,1.5,4,.27,4,2.75,0,1.15-1,1.88-2.75,1.88A4.62,4.62,0,0,1,114,362.91Z" transform="translate(-2.09)"/><path d="M120.24,360.4a3.18,3.18,0,0,1,3.37-3.24,2.82,2.82,0,0,1,2.59,1.35l-.88.57a2,2,0,0,0-1.72-.91,2.24,2.24,0,0,0,0,4.47,2,2,0,0,0,1.72-.91l.88.55a2.84,2.84,0,0,1-2.59,1.37A3.19,3.19,0,0,1,120.24,360.4Z" transform="translate(-2.09)"/><path d="M131.11,357.16v1.11h-.26a1.9,1.9,0,0,0-2,2.15v3.17h-1.15v-6.36h1.1v1.06A2.45,2.45,0,0,1,131.11,357.16Z" transform="translate(-2.09)"/><path d="M132.33,355.25a.76.76,0,0,1,.78-.76.75.75,0,0,1,.78.73.76.76,0,0,1-.78.77A.74.74,0,0,1,132.33,355.25Zm.2,2h1.15v6.36h-1.15Z" transform="translate(-2.09)"/><path d="M142.47,360.4a3.08,3.08,0,0,1-3.22,3.25,2.7,2.7,0,0,1-2.22-1v3.29h-1.15v-8.69H137v1a2.72,2.72,0,0,1,2.27-1.07A3.08,3.08,0,0,1,142.47,360.4Zm-1.16,0a2.15,2.15,0,1,0-2.15,2.24A2.1,2.1,0,0,0,141.31,360.4Z" transform="translate(-2.09)"/><path d="M143.48,360.4a3.18,3.18,0,0,1,3.36-3.24,2.85,2.85,0,0,1,2.6,1.35l-.88.57a2,2,0,0,0-1.73-.91,2.24,2.24,0,0,0,0,4.47,2,2,0,0,0,1.73-.91l.88.55a2.86,2.86,0,0,1-2.6,1.37A3.19,3.19,0,0,1,143.48,360.4Z" transform="translate(-2.09)"/><path d="M150.72,355.25a.76.76,0,0,1,.78-.76.74.74,0,0,1,.78.73.78.78,0,0,1-1.56,0Zm.21,2h1.15v6.36h-1.15Z" transform="translate(-2.09)"/><path d="M153.69,360.4a3.31,3.31,0,1,1,3.31,3.25A3.16,3.16,0,0,1,153.69,360.4Zm5.45,0a2.15,2.15,0,1,0-4.29,0,2.15,2.15,0,1,0,4.29,0Zm-1.42-5.67h1.47l-2,1.56h-1.08Z" transform="translate(-2.09)"/><path d="M167.94,359.92v3.66h-1.15v-3.53c0-1.25-.63-1.86-1.72-1.86a1.89,1.89,0,0,0-2,2.11v3.28H161.9v-6.36H163v1a2.7,2.7,0,0,1,2.29-1A2.46,2.46,0,0,1,167.94,359.92Z" transform="translate(-2.09)"/><path d="M169,363.58h6v.75h-6Z" transform="translate(-2.09)"/><path d="M181.86,362.54v1h-6v-.82l3.42-3.3c.89-.86,1.06-1.39,1.06-1.92,0-.86-.61-1.39-1.79-1.39a2.66,2.66,0,0,0-2.15.91l-.82-.71a3.9,3.9,0,0,1,3.08-1.27c1.75,0,2.88.9,2.88,2.34a3.4,3.4,0,0,1-1.38,2.64l-2.57,2.48Z" transform="translate(-2.09)"/><path d="M182.81,359.38c0-2.74,1.46-4.3,3.43-4.3s3.43,1.56,3.43,4.3-1.47,4.3-3.43,4.3S182.81,362.12,182.81,359.38Zm5.65,0c0-2.15-.91-3.23-2.22-3.23s-2.23,1.08-2.23,3.23.91,3.23,2.23,3.23S188.46,361.53,188.46,359.38Z" transform="translate(-2.09)"/><path d="M193.39,355.17v8.41H192.2v-7.36h-1.9v-1.05Z" transform="translate(-2.09)"/><path d="M201.85,361.2c0,1.53-1.29,2.48-3.35,2.48s-3.32-.95-3.32-2.48a2.08,2.08,0,0,1,1.47-2,1.89,1.89,0,0,1-1.17-1.81c0-1.4,1.21-2.28,3-2.28s3.05.88,3.05,2.28a1.9,1.9,0,0,1-1.19,1.81A2.1,2.1,0,0,1,201.85,361.2Zm-1.2,0c0-.93-.81-1.5-2.15-1.5s-2.12.57-2.12,1.5.79,1.53,2.12,1.53S200.65,362.12,200.65,361.17Zm-4-3.76c0,.83.69,1.34,1.84,1.34s1.88-.51,1.88-1.34-.75-1.36-1.88-1.36S196.66,356.57,196.66,357.41Z" transform="translate(-2.09)"/><path d="M203.05,362.82a.8.8,0,0,1,.82-.81.78.78,0,0,1,.79.81.8.8,0,0,1-.79.83A.81.81,0,0,1,203.05,362.82Z" transform="translate(-2.09)"/><path d="M205.78,362.82a.8.8,0,0,1,.82-.81.78.78,0,0,1,.79.81.8.8,0,0,1-.79.83A.81.81,0,0,1,205.78,362.82Z" transform="translate(-2.09)"/><path d="M208.5,362.82a.8.8,0,0,1,.82-.81.78.78,0,0,1,.79.81.8.8,0,0,1-.79.83A.81.81,0,0,1,208.5,362.82Z" transform="translate(-2.09)"/><g class="cls-24"><rect class="cls-25" x="42.94" y="175.64" width="248.55" height="343.04"/><rect class="cls-14" x="56.75" y="189.28" width="220.94" height="51.83"/><rect class="cls-14" x="56.75" y="260.55" width="220.94" height="1.94"/><rect class="cls-26" x="206.42" y="245.65" width="71.27" height="11.66"/><rect class="cls-26" x="56.75" y="245.65" width="145.78" height="11.66"/><rect class="cls-14" x="142.83" y="356.24" width="132.91" height="51.74"/><rect class="cls-26" x="232.87" y="412.51" width="42.87" height="3.03"/><rect class="cls-26" x="142.83" y="412.51" width="87.7" height="3.03"/><rect class="cls-26" x="232.87" y="419.48" width="42.87" height="3.03"/><rect class="cls-26" x="142.83" y="419.48" width="87.7" height="3.03"/><rect class="cls-26" x="232.87" y="426.46" width="42.87" height="3.03"/><rect class="cls-26" x="142.83" y="426.46" width="87.7" height="3.03"/><rect class="cls-26" x="232.87" y="433.43" width="42.87" height="3.03"/><rect class="cls-26" x="142.83" y="433.43" width="87.7" height="3.03"/><rect class="cls-26" x="232.87" y="440.41" width="42.87" height="3.03"/><rect class="cls-26" x="142.83" y="440.41" width="87.7" height="3.03"/><rect class="cls-26" x="232.87" y="447.38" width="42.87" height="3.03"/><rect class="cls-26" x="142.83" y="447.38" width="87.7" height="3.03"/><rect class="cls-26" x="232.87" y="454.35" width="42.87" height="3.03"/><rect class="cls-26" x="142.83" y="454.35" width="87.7" height="3.03"/><rect class="cls-26" x="57.71" y="264.66" width="82.04" height="240.39"/><rect class="cls-26" x="142.83" y="264.66" width="42.26" height="2.87"/><rect class="cls-26" x="142.83" y="269.89" width="42.26" height="2.87"/><rect class="cls-26" x="142.83" y="275.12" width="42.26" height="2.87"/><rect class="cls-26" x="142.83" y="280.35" width="42.26" height="2.87"/><rect class="cls-26" x="142.83" y="285.58" width="42.26" height="2.87"/><rect class="cls-26" x="142.83" y="290.81" width="42.26" height="2.87"/><rect class="cls-26" x="142.83" y="296.04" width="42.26" height="2.87"/><rect class="cls-26" x="142.83" y="301.27" width="42.26" height="2.87"/><rect class="cls-26" x="142.83" y="306.5" width="42.26" height="2.87"/><rect class="cls-26" x="142.83" y="311.73" width="42.26" height="2.87"/><rect class="cls-26" x="142.83" y="316.96" width="42.26" height="2.87"/><rect class="cls-26" x="142.83" y="322.19" width="42.26" height="2.87"/><rect class="cls-26" x="142.83" y="327.42" width="42.26" height="2.87"/><rect class="cls-26" x="142.83" y="332.65" width="42.26" height="2.87"/><rect class="cls-26" x="142.83" y="337.89" width="42.26" height="2.87"/><rect class="cls-26" x="142.83" y="343.12" width="42.26" height="2.87"/><rect class="cls-26" x="142.83" y="348.35" width="42.26" height="2.87"/><rect class="cls-26" x="188.16" y="311.73" width="42.26" height="2.87"/><rect class="cls-26" x="188.16" y="316.96" width="42.26" height="2.87"/><rect class="cls-26" x="188.16" y="322.19" width="42.26" height="2.87"/><rect class="cls-26" x="188.16" y="327.42" width="42.26" height="2.87"/><rect class="cls-26" x="188.16" y="332.65" width="42.26" height="2.87"/><rect class="cls-26" x="188.16" y="337.89" width="42.26" height="2.87"/><rect class="cls-26" x="188.16" y="343.12" width="42.26" height="2.87"/><rect class="cls-26" x="188.16" y="348.35" width="42.26" height="2.87"/><rect class="cls-26" x="233.49" y="264.66" width="42.26" height="2.87"/><rect class="cls-26" x="233.49" y="269.89" width="42.26" height="2.87"/><rect class="cls-26" x="233.49" y="275.12" width="42.26" height="2.87"/><rect class="cls-26" x="233.49" y="280.35" width="42.26" height="2.87"/><rect class="cls-26" x="233.49" y="285.58" width="42.26" height="2.87"/><rect class="cls-26" x="233.49" y="290.81" width="42.26" height="2.87"/><rect class="cls-26" x="233.49" y="296.04" width="42.26" height="2.87"/><rect class="cls-26" x="233.49" y="301.27" width="42.26" height="2.87"/><rect class="cls-26" x="233.49" y="306.5" width="42.26" height="2.87"/><rect class="cls-26" x="233.49" y="311.73" width="42.26" height="2.87"/><rect class="cls-26" x="233.49" y="316.96" width="42.26" height="2.87"/><rect class="cls-26" x="233.49" y="322.19" width="42.26" height="2.87"/><rect class="cls-26" x="233.49" y="327.42" width="42.26" height="2.87"/><rect class="cls-26" x="233.49" y="332.65" width="42.26" height="2.87"/><rect class="cls-26" x="233.49" y="337.89" width="42.26" height="2.87"/><rect class="cls-26" x="233.49" y="343.12" width="42.26" height="2.87"/><rect class="cls-26" x="233.49" y="348.35" width="42.26" height="2.87"/><rect class="cls-26" x="233.49" y="460.34" width="42.26" height="2.87"/><rect class="cls-26" x="233.49" y="465.57" width="42.26" height="2.87"/><rect class="cls-26" x="233.49" y="470.8" width="42.26" height="2.87"/><rect class="cls-26" x="233.49" y="476.03" width="42.26" height="2.87"/><rect class="cls-26" x="233.49" y="481.26" width="42.26" height="2.87"/><rect class="cls-26" x="233.49" y="486.49" width="42.26" height="2.87"/><rect class="cls-26" x="233.49" y="491.72" width="42.26" height="2.87"/><rect class="cls-26" x="233.49" y="496.95" width="42.26" height="2.87"/><rect class="cls-26" x="233.49" y="502.18" width="42.26" height="2.87"/><rect class="cls-26" x="188.16" y="460.34" width="42.26" height="2.87"/><rect class="cls-26" x="188.16" y="465.57" width="42.26" height="2.87"/><rect class="cls-26" x="188.16" y="470.8" width="42.26" height="2.87"/><rect class="cls-26" x="188.16" y="476.03" width="42.26" height="2.87"/><rect class="cls-26" x="188.16" y="481.26" width="42.26" height="2.87"/><rect class="cls-26" x="188.16" y="486.49" width="42.26" height="2.87"/><rect class="cls-26" x="188.16" y="491.72" width="42.26" height="2.87"/><rect class="cls-26" x="188.16" y="496.95" width="42.26" height="2.87"/><rect class="cls-26" x="188.16" y="502.18" width="42.26" height="2.87"/><rect class="cls-26" x="188.16" y="264.66" width="42.26" height="43.69"/><rect class="cls-26" x="142.83" y="460.34" width="42.26" height="44.71"/></g></g></g></g></svg>