<svg xmlns="http://www.w3.org/2000/svg" xmlns:xlink="http://www.w3.org/1999/xlink" viewBox="0 0 400.95 798.28"><defs><style>.cls-1,.cls-4{fill:none;}.cls-2{clip-path:url(#clip-path);}.cls-3{fill:#1e1e1e;}.cls-4{stroke:#1e1e1e;stroke-linecap:round;stroke-linejoin:round;stroke-width:4px;}.cls-5{fill:#f5fdff;}.cls-15,.cls-5,.cls-7{opacity:0.1;}.cls-6{fill:#e8e8e8;}.cls-16,.cls-7{fill:#272425;}.cls-8{fill:#fff;}.cls-9{fill:#4d877b;}.cls-10{fill:#85898d;}.cls-11{font-size:18.58px;fill:#babcbe;font-family:Roboto-Regular, Roboto;}.cls-12{letter-spacing:-0.04em;}.cls-13{fill:#f9f9f9;}.cls-14{font-size:19.46px;fill:#b7b7b7;font-family:Roboto-Medium, Roboto;font-weight:500;letter-spacing:-0.01em;}</style><clipPath id="clip-path" transform="translate(-2.27 -1.85)"><rect class="cls-1" width="418.69" height="512.43"/></clipPath></defs><title>Recurso 25svg</title><g id="Capa_2" data-name="Capa 2"><g id="Layer_1" data-name="Layer 1"><g class="cls-2"><rect class="cls-3" x="75.25" y="781.49" width="15.62" height="2.14"/><rect class="cls-4" x="201.81" y="782.67" width="12.24" height="12.06"/><path class="cls-4" d="M325.73,783.78l-5.63,5.64a2.17,2.17,0,0,0,0,3.07l5.63,5.64" transform="translate(-2.27 -1.85)"/><path class="cls-5" d="M251.49,2.4,7.69,767,2.28,61.76a57.79,57.79,0,0,1,57-58.25C133,2.49,251.52,1.06,251.49,2.4Z" transform="translate(-2.27 -1.85)"/><rect class="cls-6" x="12.77" y="150.34" width="387.75" height="603.38"/><rect class="cls-7" x="17.17" y="699.13" width="322.95" height="48.4" rx="8.77"/><circle class="cls-7" cx="372.8" cy="725.19" r="24.2" transform="translate(-420.72 920.34) rotate(-76.78)"/><rect class="cls-8" x="17.17" y="697.36" width="322.95" height="48.4" rx="8.77"/><circle class="cls-9" cx="372.8" cy="723.42" r="24.2" transform="translate(-418.99 918.98) rotate(-76.78)"/><path class="cls-10" d="M274.72,733a6.27,6.27,0,0,1-4.46-1.84L259.5,720.42a4.72,4.72,0,0,1,6.67-6.68l8.69,8.69a3.22,3.22,0,0,1,0,4.54,3.28,3.28,0,0,1-4.54,0l-6.39-6.39a1,1,0,0,1,1.4-1.4l6.39,6.39a1.25,1.25,0,0,0,1.74,0,1.23,1.23,0,0,0,0-1.74l-8.69-8.68a2.79,2.79,0,0,0-3.87,0,2.73,2.73,0,0,0,0,3.87l10.76,10.76a4.32,4.32,0,0,0,7.38-3.06,4.27,4.27,0,0,0-1.27-3.05l-8-8a1,1,0,0,1,0-1.4,1,1,0,0,1,1.4,0l8,8A6.3,6.3,0,0,1,274.72,733Z" transform="translate(-2.27 -1.85)"/><path class="cls-8" d="M381.57,722.94a1.31,1.31,0,0,0-1.22-1.4,1.29,1.29,0,0,0-1.41,1.21,5.39,5.39,0,0,1-5.67,5.07,5.82,5.82,0,0,1-6-5.14,1.3,1.3,0,0,0-1.47-1.14,1.32,1.32,0,0,0-1.15,1.47,8.46,8.46,0,0,0,7.31,7.31v3.59a1.32,1.32,0,0,0,2.64,0v-3.59A8,8,0,0,0,381.57,722.94Z" transform="translate(-2.27 -1.85)"/><rect class="cls-8" x="367.45" y="710.42" width="6.88" height="13.09" rx="1.25"/><path class="cls-10" d="M42.7,734.71a11.18,11.18,0,1,1,11.17-11.18A11.19,11.19,0,0,1,42.7,734.71Zm0-20.37a9.2,9.2,0,1,0,9.19,9.19A9.2,9.2,0,0,0,42.7,714.34Z" transform="translate(-2.27 -1.85)"/><path class="cls-10" d="M41.08,720.77c0,1.06-.63,1.92-1.42,1.92s-1.42-.86-1.42-1.92.64-1.93,1.42-1.93S41.08,719.7,41.08,720.77Z" transform="translate(-2.27 -1.85)"/><path class="cls-10" d="M47.16,720.77c0,1.06-.64,1.92-1.42,1.92s-1.42-.86-1.42-1.92.64-1.93,1.42-1.93S47.16,719.7,47.16,720.77Z" transform="translate(-2.27 -1.85)"/><path class="cls-10" d="M36.78,725.45a6.22,6.22,0,0,0,11.84,0Z" transform="translate(-2.27 -1.85)"/><text class="cls-11" transform="translate(64.87 728.78)"><tspan class="cls-12">T</tspan><tspan x="10.43" y="0">ype a message</tspan></text><path class="cls-10" d="M319.26,712.15h-9.9a6.05,6.05,0,0,0-6.05,6.06v9.29a6.05,6.05,0,0,0,6.05,6h9.9a6.05,6.05,0,0,0,6.06-6v-9.29A6.06,6.06,0,0,0,319.26,712.15Zm-4.95,16.92a6.17,6.17,0,1,1,6.17-6.16A6.16,6.16,0,0,1,314.31,729.07Z" transform="translate(-2.27 -1.85)"/><circle class="cls-10" cx="312.04" cy="721" r="4.06"/><rect class="cls-13" x="13.2" y="77.03" width="387.75" height="73.22"/><text class="cls-14" transform="translate(64.87 118.34)">COMERCIO</text><path class="cls-8" d="M73.21,217V215.1a5.56,5.56,0,0,0-5.56-5.55h-7.4v-4.22a3.72,3.72,0,1,0-3.7,0v4.22H49.14a5.56,5.56,0,0,0-5.55,5.55v9.26a5.56,5.56,0,0,0,5.55,5.55H67.65a5.56,5.56,0,0,0,5.56-5.55V217ZM54.7,219.73A2.78,2.78,0,1,1,51.92,217h0A2.79,2.79,0,0,1,54.7,219.73Zm13,0A2.78,2.78,0,1,1,64.88,217h0A2.78,2.78,0,0,1,67.65,219.73Z" transform="translate(-2.27 -1.85)"/><g class="cls-15"><path class="cls-16" d="M99.26,212.46h8.61l246.78-.33c4.42,0,8,4.24,8,9.49l0,115.61c0,5.25-3.57,9.51-8,9.51l-238.77.32c-4.42,0-8-4.24-8-9.49l0-107.46-9.56-15.46A1.4,1.4,0,0,1,99.26,212.46Z" transform="translate(-2.27 -1.85)"/></g><path class="cls-8" d="M99.26,210.21l8.61,0,246.77-.32c4.43,0,8,4.33,8,9.7l0,115.34c0,5.37-3.57,9.72-8,9.73L115.93,345c-4.42,0-8-4.33-8-9.7l0-107-9.56-15.82C97.77,211.51,98.31,210.21,99.26,210.21Z" transform="translate(-2.27 -1.85)"/><path class="cls-8" d="M378.37,406.38a9.47,9.47,0,1,1-9.47-9.47A9.47,9.47,0,0,1,378.37,406.38Z" transform="translate(-2.27 -1.85)"/><path class="cls-8" d="M368.9,443.77a27.49,27.49,0,0,0,21.49-10.33,24.19,24.19,0,0,0-43,0A27.48,27.48,0,0,0,368.9,443.77Z" transform="translate(-2.27 -1.85)"/><g class="cls-15"><path class="cls-16" d="M325,410.94H316.4L69.62,410.6c-4.42,0-8,4.24-8,9.49l0,145.07c0,5.25,3.57,9.5,8,9.51l238.77.32c4.43,0,8-4.24,8-9.49l0-136.92,9.56-15.46A1.4,1.4,0,0,0,325,410.94Z" transform="translate(-2.27 -1.85)"/></g><path class="cls-8" d="M325,408.69h-8.6l-246.78-.33c-4.42,0-8,4.34-8,9.7l0,144.8c0,5.36,3.57,9.72,8,9.72l238.77.32c4.42,0,8-4.34,8-9.7l0-136.46,9.56-15.81C326.5,410,326,408.69,325,408.69Z" transform="translate(-2.27 -1.85)"/></g></g></g></svg>