<svg xmlns="http://www.w3.org/2000/svg" viewBox="0 0 186.37 137.04"><title>Recurso 12svg</title><g id="Capa_2" data-name="Capa 2"><g id="Layer_1" data-name="Layer 1"><circle cx="182.06" cy="132.41" r="4.3"/><circle cx="5.63" cy="132.41" r="4.3" transform="translate(-50.24 12.23) rotate(-22.5)"/><circle cx="4.3" cy="102.95" r="4.3" transform="translate(-39.07 9.48) rotate(-22.5)"/><rect x="5.63" y="128.11" width="176.44" height="8.94"/><circle cx="167.5" cy="57.6" r="4.3"/><rect x="163.19" y="57.6" width="8.94" height="74.48"/><circle cx="120.82" cy="74.81" r="4.3"/><rect x="116.52" y="75.14" width="8.94" height="56.94"/><circle cx="74.15" cy="111.22" r="4.3"/><rect x="69.85" y="111.55" width="8.94" height="20.52"/><circle cx="27.47" cy="124.8" r="4.3"/><rect x="23.17" y="125.13" width="8.94" height="6.95"/><path d="M7.28,107.25H4l.66-8.94c.67,0,78.79,4.31,149.63-92.68l7.28,5.29C95.33,102,23.83,107.25,7.28,107.25Z"/><circle cx="161.51" cy="36.93" r="4.3"/><circle cx="127.36" cy="11.4" r="4.3" transform="translate(102.63 136.85) rotate(-83.96)"/><polygon points="165.84 37.08 156.91 37.08 157.24 10.59 128.11 15.89 126.45 7.28 166.17 0 165.84 37.08"/></g></g></svg>