<svg xmlns="http://www.w3.org/2000/svg" viewBox="0 0 155.91 145.32"><title>Recurso 10svg</title><g id="Capa_2" data-name="Capa 2"><g id="Layer_1" data-name="Layer 1"><path d="M67.86,145.32a67.86,67.86,0,0,1,0-135.72,66.24,66.24,0,0,1,26.48,5.3l4,1.65L74.48,73.16h61.24v4.3C136.05,114.86,105.6,145.32,67.86,145.32Zm0-127.11a58.92,58.92,0,1,0,58.92,63.22H61.24L86.73,20.85A70.44,70.44,0,0,0,67.86,18.21Z"/><path d="M155.58,68.85H81.1L110.23,0l4,1.66a67.87,67.87,0,0,1,41.71,62.56l-.33,4.63ZM94.34,59.92h52.3a58.92,58.92,0,0,0-31.78-48Z"/></g></g></svg>