<svg xmlns="http://www.w3.org/2000/svg" viewBox="0 0 139.56 139.69"><title>Recurso 16svg</title><g id="Capa_2" data-name="Capa 2"><g id="Layer_1" data-name="Layer 1"><path d="M70.92,0A68.61,68.61,0,0,0,2.28,68.64a69.93,69.93,0,0,0,9,34.12L.08,136.48a2.76,2.76,0,0,0,.6,2.41,2.47,2.47,0,0,0,1.6.8h.6l36.93-9.64a69.59,69.59,0,0,0,31.11,7.43A68.74,68.74,0,0,0,70.92,0Zm43,100-4,4c-5.22,5.22-10.84,7.83-17.06,7.83h0c-8.43,0-17.26-4.82-26.69-14.25L42.42,73.86C35,66.43,30.38,59.21,29,52.38c-2-8.23.4-15.85,7.22-22.48l4-4a9.15,9.15,0,0,1,10.23-1.61c6.22,3.22,12.65,14,13.25,15.26a10.07,10.07,0,0,1,1.2,6.62,5.63,5.63,0,0,1-2.81,3.61c-1.8,1.61-4,3.62-4.41,4-2.41,3.41-2,6.22,1,9.23L77.14,81.48c3,3,5.62,3.42,9.24,1,.4-.4,2.41-2.61,4-4.42a5.92,5.92,0,0,1,5.42-3,7.78,7.78,0,0,1,4.62,1.41c1.2.8,12,7.22,15.25,13.24A9.65,9.65,0,0,1,113.87,100Z"/></g></g></svg>