<svg xmlns="http://www.w3.org/2000/svg" viewBox="0 0 298.46 403.39"><defs><style>.cls-1{fill:#89b3e5;}.cls-2{fill:#bb4d00;}.cls-3{fill:#f57c00;}.cls-4{fill:#fff;}.cls-5{fill:#aaa;opacity:0.5;isolation:isolate;}</style></defs><title>Recurso 18svg</title><g id="Capa_2" data-name="Capa 2"><g id="Layer_1" data-name="Layer 1"><circle class="cls-1" cx="149.23" cy="254.16" r="149.23"/><circle class="cls-2" cx="55.06" cy="170.09" r="49.07"/><circle class="cls-3" cx="62.53" cy="163.3" r="49.07"/><circle class="cls-2" cx="142.23" cy="55.87" r="49.07"/><circle class="cls-3" cx="149.7" cy="49.07" r="49.07"/><circle class="cls-2" cx="215.46" cy="184.83" r="49.07"/><circle class="cls-3" cx="222.93" cy="178.04" r="49.07" transform="translate(8.92 366.7) rotate(-80.01)"/><path class="cls-4" d="M84.27,300.34l.14,4.64-2.09-.2L65.83,343.22l-13.6,31.63H33.05V337s-5.18-3.1-14.61-14.21c-3.63-4.3-5.79-10.16-7-16.15-2.82-13.6-.94-28.14-.94-28.14l5.86-1.95,30.76.41-.41-4.11,9-4.11,5.86-2.62L63,211.15v-.06a9.4,9.4,0,0,1,9.36-9.43,8.74,8.74,0,0,1,1.88.2,9.44,9.44,0,0,1,7.47,8.55l2.16,74.72.27,8.75.07,3,.53,1.41.21.47Z"/><path class="cls-5" d="M84.27,300.34l.14,4.64-2.09-.2L65.83,343.22c-9.29,2.82-17.84,3.23-20.6-3.1-7.06-15.82.47-26.05.47-26.05-20.73,2.09-30.35-3.77-34.26-7.54-2.82-13.59-.94-28.13-.94-28.13l5.86-2,30.76.41-.41-4.11,9-4.1-1.81,20.53,12.65,6.05,17.57-1.41.07,3,.74,1.89Z"/><path class="cls-4" d="M62.8,299.33a10.19,10.19,0,0,1-3.43,5.79,11.15,11.15,0,0,1-2.16,1.35,12.22,12.22,0,0,1-3.9,1.14c-4.85.61-7-3-8-6.13a8.72,8.72,0,0,0,.2-2.22L44,288.56l-3-21.27a15.69,15.69,0,0,1,16.7-4,22.72,22.72,0,0,1,4.17,1.88L62.4,286l.06,2.16Z"/><path class="cls-4" d="M25.11,307.14a10.22,10.22,0,0,1-4.58.87c-7.67,0-7.67-4.78-10.1-29.55,0,0,1.48-7.67,9.63-7.2a16.85,16.85,0,0,1,4,.81l4,31C28.07,303.1,28.14,305.72,25.11,307.14Z"/><path class="cls-4" d="M45.57,299.26s.07,4.18-2.22,6.94a6.57,6.57,0,0,1-4,2.35c-5.79,1-9.49-.67-11.24-5.45l-4-31A11.68,11.68,0,0,1,37,265.94a19.14,19.14,0,0,1,4,1.35Z"/><path class="cls-5" d="M83.8,289.91a48.85,48.85,0,0,1-3.43,5.45c-2.76,3.84-6.93,8.75-12.25,11.71-2-.74-3.91-2.49-5.59-5.86a9.69,9.69,0,0,1-2.83,4.31,8.31,8.31,0,0,1-1.48,1.15,4.3,4.3,0,0,1-.94-.27,12,12,0,0,1-3.9,1.14c-4.85.61-7-3-8-6.12a8.74,8.74,0,0,0,.2-2.22L44,288.49a9.91,9.91,0,0,1,.74-2A2.55,2.55,0,0,1,47.32,285c4.91.54,9.22.81,12.92.88H62.4c7.74.07,12.72-.54,16.08-.61a5.25,5.25,0,0,1,1.08.07,4.5,4.5,0,0,1,4.17,4.17A1.84,1.84,0,0,1,83.8,289.91Z"/><path class="cls-5" d="M45.57,299.26s.07,4.18-2.22,6.94L37,265.94a19.14,19.14,0,0,1,4,1.35Z"/><path class="cls-5" d="M25.11,307.14l-5.05-35.88a16.85,16.85,0,0,1,4,.81l4,31C28.07,303.1,28.14,305.72,25.11,307.14Z"/><path class="cls-5" d="M62.8,299.33a10.19,10.19,0,0,1-3.43,5.79l-1.68-41.8a22.72,22.72,0,0,1,4.17,1.88Z"/><path class="cls-4" d="M91.54,308.75l-18.1,26.79v39.31H44.36v-48.6c2-15.21,17.43-19,17.43-19a27.42,27.42,0,0,1-3.57-.54,4.3,4.3,0,0,1-.94-.27c-11.44-3-11.64-12.39-11-17a2.58,2.58,0,0,1,2.9-2.23,85.59,85.59,0,0,0,13.39.81,81.07,81.07,0,0,0,15.28-1.55A5.39,5.39,0,0,1,83.53,289l.27.47L91.74,303A5.58,5.58,0,0,1,91.54,308.75Z"/><path class="cls-4" d="M123.45,60.65H176a1.81,1.81,0,0,0,1.81-1.82V32.11A1.81,1.81,0,0,0,176,30.29H123.45a1.81,1.81,0,0,0-1.82,1.82V58.83A1.81,1.81,0,0,0,123.45,60.65Z"/><path class="cls-4" d="M177.83,53.51V67.85s-2.62-3.77-5.58-5.25c-4.65-2.42-14.2-1.82-14.2-1.82Z"/><path class="cls-3" d="M139.27,42.41a3.48,3.48,0,0,0-.48-.34,2.4,2.4,0,0,0-.74-.34,3.86,3.86,0,0,0-1-.27,6.5,6.5,0,0,0-1.14-.13,2.55,2.55,0,0,0-1.35.27.89.89,0,0,0-.47.81.76.76,0,0,0,.2.53,4.22,4.22,0,0,0,.54.41,3.63,3.63,0,0,0,.88.27c.33.06.74.2,1.14.27a8.92,8.92,0,0,1,1.62.47,7.76,7.76,0,0,1,1.28.67,2.69,2.69,0,0,1,.8.94,2.61,2.61,0,0,1,.27,1.35,2.84,2.84,0,0,1-.4,1.61,3.86,3.86,0,0,1-1,1.08,5,5,0,0,1-1.48.61,7.56,7.56,0,0,1-1.75.2,10.12,10.12,0,0,1-2.76-.4A8.77,8.77,0,0,1,131,49.34l1.14-2.16a7.76,7.76,0,0,0,.61.48c.27.13.6.33.94.47a5.15,5.15,0,0,0,1.21.33,8.83,8.83,0,0,0,1.35.14c1.28,0,1.88-.34,1.88-1a.78.78,0,0,0-.2-.54,1.79,1.79,0,0,0-.54-.4,5.1,5.1,0,0,0-.87-.34c-.34-.07-.74-.2-1.22-.34a17,17,0,0,1-1.75-.54,5.15,5.15,0,0,1-1.21-.67,2.09,2.09,0,0,1-.67-.87,3.27,3.27,0,0,1-.2-1.15,3.83,3.83,0,0,1,.33-1.55,3.14,3.14,0,0,1,1-1.14,4.39,4.39,0,0,1,1.41-.67,7.37,7.37,0,0,1,4.17.2,8.6,8.6,0,0,1,1.89.87Z"/><path class="cls-3" d="M153.2,50.68V43.55l-3.3,5.25h-1.35l-3.23-5.25v7.13h-2.49V39.24h2.7l3.76,6.19,3.77-6.19h2.63V50.68Z"/><path class="cls-3" d="M165.79,42.41a3.48,3.48,0,0,0-.48-.34,2.4,2.4,0,0,0-.74-.34,3.75,3.75,0,0,0-1-.27,6.5,6.5,0,0,0-1.14-.13,2.55,2.55,0,0,0-1.35.27.89.89,0,0,0-.47.81.72.72,0,0,0,.21.53,3.49,3.49,0,0,0,.53.41,3.63,3.63,0,0,0,.88.27c.34.06.74.2,1.14.27a8.92,8.92,0,0,1,1.62.47,7.76,7.76,0,0,1,1.28.67,2.69,2.69,0,0,1,.8.94,2.61,2.61,0,0,1,.27,1.35,2.84,2.84,0,0,1-.4,1.61,3.86,3.86,0,0,1-1,1.08,5,5,0,0,1-1.48.61,7.56,7.56,0,0,1-1.75.2,10.12,10.12,0,0,1-2.76-.4,8.9,8.9,0,0,1-2.42-1.08l1.14-2.16a7.76,7.76,0,0,0,.61.48c.27.13.6.33.94.47a5.15,5.15,0,0,0,1.21.33,8.83,8.83,0,0,0,1.35.14c1.28,0,1.88-.34,1.88-1a.78.78,0,0,0-.2-.54,1.79,1.79,0,0,0-.54-.4,5.1,5.1,0,0,0-.87-.34c-.34-.07-.74-.2-1.22-.34a17,17,0,0,1-1.75-.54,5.15,5.15,0,0,1-1.21-.67,2.09,2.09,0,0,1-.67-.87,3.27,3.27,0,0,1-.2-1.15,3.83,3.83,0,0,1,.33-1.55,3.14,3.14,0,0,1,.95-1.14,4.39,4.39,0,0,1,1.41-.67,7.37,7.37,0,0,1,4.17.2,8.6,8.6,0,0,1,1.89.87Z"/><path class="cls-4" d="M68.79,139.87a23,23,0,0,0-23,23,23.45,23.45,0,0,0,3,11.44L45,185.64a.93.93,0,0,0,.2.81.88.88,0,0,0,.54.27H46l12.39-3.23A23.42,23.42,0,0,0,68.79,186a23.06,23.06,0,0,0,0-46.11ZM83.2,173.39l-1.35,1.35a7.94,7.94,0,0,1-5.72,2.62h0c-2.83,0-5.79-1.61-8.95-4.78l-8-7.94c-2.49-2.49-4-4.91-4.51-7.2a7.56,7.56,0,0,1,2.43-7.54l1.34-1.35a3.08,3.08,0,0,1,3.44-.53c2.08,1.07,4.24,4.71,4.44,5.11a3.36,3.36,0,0,1,.4,2.22,1.86,1.86,0,0,1-.94,1.21c-.61.54-1.35,1.22-1.48,1.35a2.12,2.12,0,0,0,.34,3.1l6.19,6.19a2.11,2.11,0,0,0,3.09.34c.14-.14.81-.88,1.35-1.48a2,2,0,0,1,1.82-1,2.61,2.61,0,0,1,1.55.47c.4.27,4,2.42,5.11,4.44A3.24,3.24,0,0,1,83.2,173.39Z"/><path class="cls-4" d="M246.09,181.6v-2.89A8.71,8.71,0,0,0,237.4,170H225.83v-6.6a5.81,5.81,0,1,0-8-2.09,5.66,5.66,0,0,0,2.09,2.09V170H208.39a8.7,8.7,0,0,0-8.68,8.68v14.47a8.7,8.7,0,0,0,8.68,8.68h29a8.7,8.7,0,0,0,8.68-8.68v-2.89l.07-8.69Zm-29,4.38a4.38,4.38,0,1,1-4.37-4.38h0A4.37,4.37,0,0,1,217.14,186Zm20.26,0A4.38,4.38,0,1,1,233,181.6h0A4.37,4.37,0,0,1,237.4,186Z"/></g></g></svg>