<svg xmlns="http://www.w3.org/2000/svg" viewBox="0 0 138.28 146.86"><title>Recurso 17svg</title><g id="Capa_2" data-name="Capa 2"><g id="Layer_1" data-name="Layer 1"><path d="M138.28,86.45V77.82a26,26,0,0,0-25.89-25.89H77.87V32.26A17.31,17.31,0,1,0,54.19,26a16.8,16.8,0,0,0,6.22,6.22V51.93H25.89A26,26,0,0,0,0,77.82V121a26,26,0,0,0,25.89,25.89h86.3A26,26,0,0,0,138.08,121v-8.63l.2-25.89ZM52,99.5a13,13,0,1,1-13-13h0A13,13,0,0,1,52,99.5Zm60.41,0a13,13,0,1,1-13-13h0A13,13,0,0,1,112.39,99.5Z"/></g></g></svg>