<svg xmlns="http://www.w3.org/2000/svg" viewBox="0 0 161.91 161.45"><title>Recurso 13svg</title><g id="Capa_2" data-name="Capa 2"><g id="Layer_1" data-name="Layer 1"><path d="M59.05,137.94a3.77,3.77,0,0,1-2.65-1L25,105.5a4.35,4.35,0,0,1-1-4A210.26,210.26,0,0,1,71.63,28.38l1-1A93,93,0,0,1,157,1.89a3.91,3.91,0,0,1,3,3,92.44,92.44,0,0,1-25.49,84.41l-1,1a210.33,210.33,0,0,1-73.16,47.66ZM31.91,101.86,59.71,130A204,204,0,0,0,127.9,85l1-1A85.49,85.49,0,0,0,153.06,8.85,85.46,85.46,0,0,0,77.92,33l-1,1c-19.53,18.87-34.75,42.37-45,67.86Z"/><path d="M112.34,34.33a15.32,15.32,0,0,1,10.6,4.31,15,15,0,1,1-21.19,0,15.94,15.94,0,0,1,10.59-4.31m0-7.61a22.51,22.51,0,1,0,22.51,22.51,22.6,22.6,0,0,0-22.51-22.51Z"/><path d="M24.62,140.92a3.75,3.75,0,0,1-2.64-1,4,4,0,0,1,0-5.3L59.71,96.9a3.75,3.75,0,0,1,5.63,5l-.33.33L27.27,139.93A4.39,4.39,0,0,1,24.62,140.92Z"/><path d="M97.78,147.87a4.78,4.78,0,0,1-2-.66L70.3,131.65a3.87,3.87,0,0,1,4-6.62l21.84,13.25,17.55-40.06a3.78,3.78,0,0,1,7,3l-19.53,44a3.48,3.48,0,0,1-2.32,2C98.77,147.54,98.44,147.87,97.78,147.87Z"/><path d="M33.23,93.26a4.09,4.09,0,0,1-3.31-1.66L14.69,66.11A4.14,4.14,0,0,1,16,60.82a.33.33,0,0,0,.33-.34L60.37,41a3.54,3.54,0,0,1,5,2c1,2,0,4-2,5h0l-40,17.54L36.21,87.3a3.65,3.65,0,0,1-1,5C34.88,93.26,33.89,93.26,33.23,93.26Z"/><path d="M3.77,140.26a3.77,3.77,0,0,1-2.65-1,3.7,3.7,0,0,1,0-5.3h0l17.54-17.54a3.69,3.69,0,0,1,5.3.33,3.58,3.58,0,0,1,0,5L6.42,139.27A3.79,3.79,0,0,1,3.77,140.26Z"/><path d="M25.29,161.45a3.72,3.72,0,0,1-2.65-1,4,4,0,0,1,0-5.29l17.54-17.55a3.74,3.74,0,0,1,5,1.33,4.23,4.23,0,0,1,0,4L27.27,160.45A2,2,0,0,1,25.29,161.45Z"/></g></g></svg>