<svg fill="#9B9B9B" xmlns="http://www.w3.org/2000/svg" viewBox="0 0 198.94 123.91"><title>Recurso 4svg</title><g id="Capa_2" data-name="Capa 2"><g id="Layer_1" data-name="Layer 1"><path d="M7.54,100.22c-1,.2-2-1-2.17-2.37L0,54.36c-.2-1.38.59-2.77,1.58-2.77l32.82-4.35c1-.19,2,1,2.17,2.38l5.14,45.86c.2,1.38-.59,2.77-1.58,2.77Z"/><path d="M50.44,117.22a12.63,12.63,0,0,1-14-10.87v-.79l-6.72-1a11.15,11.15,0,0,0,.2,2.57,19,19,0,0,0,21.35,16.61,19.29,19.29,0,0,0,16-13.25l-6.72-1A12.53,12.53,0,0,1,50.44,117.22Z"/><path d="M148.29,115.64,134.45,2.57A2.84,2.84,0,0,0,133.07.4a2.93,2.93,0,0,0-1.78-.4c-.2,0-.6.2-.79.2L17.43,48a2.93,2.93,0,0,0-1.78,3l5.73,46.06a3.19,3.19,0,0,0,2.37,2.57L144.93,118.8h.79a2.43,2.43,0,0,0,1.58-.79A2.26,2.26,0,0,0,148.29,115.64ZM34.62,53.77c-1.38.59-2.57.59-2.76,0l-.4-1c-.2-.59.79-1.38,2.18-2Z"/><path d="M158.57,62.47a5.37,5.37,0,0,1-3.36-1.19,5,5,0,0,1-2-3.56l-.59-5.34a5.23,5.23,0,0,1,4.74-5.93l35-4.34H193a5.34,5.34,0,0,1,3.36,1.18,5,5,0,0,1,2,3.56l.59,5.34a5.23,5.23,0,0,1-4.74,5.93l-35,4.35Z"/><path d="M177.74,87.18h-.59l-20-2.38a5.8,5.8,0,0,1-3.55-2,7.07,7.07,0,0,1-1.19-4l.59-5.33a5.35,5.35,0,0,1,5.34-4.75H159l20,2.37a5.34,5.34,0,0,1,4.74,5.93l-.59,5.34a5.84,5.84,0,0,1-2,3.56A5.37,5.37,0,0,1,177.74,87.18Z"/><path d="M152.83,41.31a5.73,5.73,0,0,1-5.13-3.55l-2-5.14a5,5,0,0,1,.2-4.15,4.86,4.86,0,0,1,3.16-2.77l19.57-6.92a5.66,5.66,0,0,1,1.78-.4,5.76,5.76,0,0,1,5.14,3.56l2,5.14a5,5,0,0,1-.19,4.15A4.91,4.91,0,0,1,174.18,34l-19.57,6.92A3,3,0,0,1,152.83,41.31Z"/></g></g></svg>