<svg xmlns="http://www.w3.org/2000/svg" viewBox="0 0 2947.24 889.75" preserveAspectRatio="xMinYMin meet">
	<defs><style>.cls-1,.cls-2{fill:#e6ecf1;}.cls-2,.cls-4{opacity:0.29;isolation:isolate;}.cls-3,.cls-4{fill:#c2d0de;}.cls-5{fill:#4f83cc;}.cls-6{fill:#002f6c;}.cls-7{fill:#f57c00;}.cls-8{fill:#fff;}.cls-9{fill:#ffad42;}.cls-10{fill:#01579b;}.cls-11{fill:#bb4d00;}.cls-12{fill:none;stroke:#01579b;stroke-miterlimit:10;}</style></defs><title>Recurso 1svg</title><g id="Capa_2" data-name="Capa 2"><g id="Layer_1" data-name="Layer 1"><rect class="cls-1" x="98.94" y="291.65" width="122.1" height="485.98"/><rect class="cls-1" x="118.89" y="256.89" width="82.21" height="204.31"/><rect class="cls-1" x="137.32" y="234.83" width="45.64" height="113.33"/><polygon class="cls-1" points="175.4 293.16 144.57 293.16 144.57 215.79 155.76 215.79 166.94 215.79 175.4 215.79 175.4 293.16"/><polygon class="cls-1" points="157.87 259.31 154.55 259.31 154.55 182.24 155.76 182.24 156.97 182.24 157.87 182.24 157.87 259.31"/><polygon class="cls-1" points="165.43 232.71 162.1 232.71 162.1 155.65 163.31 155.65 164.52 155.65 165.43 155.65 165.43 232.71"/><rect class="cls-1" x="95.61" y="290.44" width="128.75" height="5.14"/><rect class="cls-1" x="115.86" y="254.48" width="88.25" height="4.84"/><rect class="cls-1" x="134" y="232.71" width="50.77" height="3.93"/><rect class="cls-2" x="126.44" y="265.05" width="3.93" height="21.46"/><rect class="cls-2" x="137.02" y="265.05" width="3.93" height="21.46"/><rect class="cls-2" x="147.6" y="265.05" width="3.93" height="21.46"/><rect class="cls-2" x="158.17" y="265.05" width="3.93" height="21.46"/><rect class="cls-2" x="168.75" y="265.05" width="3.93" height="21.46"/><rect class="cls-2" x="179.33" y="265.05" width="3.93" height="21.46"/><rect class="cls-2" x="189.91" y="265.05" width="3.93" height="21.46"/><rect class="cls-1" x="109.82" y="310.99" width="9.37" height="25.39"/><rect class="cls-2" x="127.95" y="310.99" width="9.37" height="25.39"/><rect class="cls-1" x="146.39" y="310.99" width="9.37" height="25.39"/><rect class="cls-1" x="164.52" y="310.99" width="9.37" height="25.39"/><rect class="cls-1" x="182.96" y="310.99" width="9.37" height="25.39"/><rect class="cls-1" x="201.09" y="310.99" width="9.37" height="25.39"/><rect class="cls-1" x="109.82" y="350.58" width="9.37" height="25.39"/><rect class="cls-1" x="127.95" y="350.58" width="9.37" height="25.39"/><rect class="cls-1" x="146.39" y="350.58" width="9.37" height="25.39"/><rect class="cls-2" x="164.52" y="350.58" width="9.37" height="25.39"/><rect class="cls-1" x="182.96" y="350.58" width="9.37" height="25.39"/><rect class="cls-1" x="201.09" y="350.58" width="9.37" height="25.39"/><rect class="cls-1" x="109.82" y="390.17" width="9.37" height="25.39"/><rect class="cls-1" x="127.95" y="390.17" width="9.37" height="25.39"/><rect class="cls-1" x="146.39" y="390.17" width="9.37" height="25.39"/><rect class="cls-1" x="164.52" y="390.17" width="9.37" height="25.39"/><rect class="cls-2" x="182.96" y="390.17" width="9.37" height="25.39"/><rect class="cls-2" x="201.09" y="390.17" width="9.37" height="25.39"/><rect class="cls-2" x="109.82" y="429.77" width="9.37" height="25.39"/><rect class="cls-1" x="127.95" y="429.77" width="9.37" height="25.39"/><rect class="cls-1" x="146.39" y="429.77" width="9.37" height="25.39"/><rect class="cls-1" x="164.52" y="429.77" width="9.37" height="25.39"/><rect class="cls-1" x="182.96" y="429.77" width="9.37" height="25.39"/><rect class="cls-1" x="201.09" y="429.77" width="9.37" height="25.39"/><rect class="cls-1" x="109.82" y="469.36" width="9.37" height="25.39"/><rect class="cls-2" x="127.95" y="469.36" width="9.37" height="25.39"/><rect class="cls-1" x="146.39" y="469.36" width="9.37" height="25.39"/><rect class="cls-2" x="164.52" y="469.36" width="9.37" height="25.39"/><rect class="cls-1" x="182.96" y="469.36" width="9.37" height="25.39"/><rect class="cls-1" x="201.09" y="469.36" width="9.37" height="25.39"/><rect class="cls-1" x="109.82" y="508.95" width="9.37" height="25.39"/><rect class="cls-1" x="127.95" y="508.95" width="9.37" height="25.39"/><rect class="cls-1" x="146.39" y="508.95" width="9.37" height="25.39"/><rect class="cls-1" x="164.52" y="508.95" width="9.37" height="25.39"/><rect class="cls-1" x="182.96" y="508.95" width="9.37" height="25.39"/><rect class="cls-2" x="201.09" y="508.95" width="9.37" height="25.39"/><rect class="cls-1" x="109.82" y="548.54" width="9.37" height="25.39"/><rect class="cls-2" x="127.95" y="548.54" width="9.37" height="25.39"/><rect class="cls-2" x="146.39" y="548.54" width="9.37" height="25.39"/><rect class="cls-1" x="164.52" y="548.54" width="9.37" height="25.39"/><rect class="cls-1" x="182.96" y="548.54" width="9.37" height="25.39"/><rect class="cls-1" x="201.09" y="548.54" width="9.37" height="25.39"/><rect class="cls-1" x="109.82" y="588.13" width="9.37" height="25.39"/><rect class="cls-1" x="127.95" y="588.13" width="9.37" height="25.39"/><rect class="cls-1" x="146.39" y="588.13" width="9.37" height="25.39"/><rect class="cls-1" x="164.52" y="588.13" width="9.37" height="25.39"/><rect class="cls-2" x="182.96" y="588.13" width="9.37" height="25.39"/><rect class="cls-1" x="201.09" y="588.13" width="9.37" height="25.39"/><rect class="cls-1" x="109.82" y="627.72" width="9.37" height="25.39"/><rect class="cls-2" x="127.95" y="627.72" width="9.37" height="25.39"/><rect class="cls-1" x="146.39" y="627.72" width="9.37" height="25.39"/><rect class="cls-1" x="164.52" y="627.72" width="9.37" height="25.39"/><rect class="cls-1" x="182.96" y="627.72" width="9.37" height="25.39"/><rect class="cls-1" x="201.09" y="627.72" width="9.37" height="25.39"/><rect class="cls-1" x="109.82" y="667.32" width="9.37" height="25.39"/><rect class="cls-1" x="127.95" y="667.32" width="9.37" height="25.39"/><rect class="cls-1" x="146.39" y="667.32" width="9.37" height="25.39"/><rect class="cls-2" x="164.52" y="667.32" width="9.37" height="25.39"/><rect class="cls-1" x="182.96" y="667.32" width="9.37" height="25.39"/><rect class="cls-2" x="201.09" y="667.32" width="9.37" height="25.39"/><rect class="cls-2" x="109.82" y="706.91" width="9.37" height="25.39"/><rect class="cls-1" x="127.95" y="706.91" width="9.37" height="25.39"/><rect class="cls-2" x="146.39" y="706.91" width="9.37" height="25.39"/><rect class="cls-1" x="164.52" y="706.91" width="9.37" height="25.39"/><rect class="cls-1" x="182.96" y="706.91" width="9.37" height="25.39"/><rect class="cls-1" x="201.09" y="706.91" width="9.37" height="25.39"/><polygon class="cls-1" points="628.74 407.1 628.74 205.82 594.89 205.82 594.89 152.02 582.8 152.02 582.8 72.84 516.62 72.84 516.62 14.81 510.57 14.81 510.57 72.84 497.57 72.84 497.57 0 491.83 0 491.83 72.84 449.82 72.84 449.82 205.82 428.06 205.82 428.06 407.1 409.63 407.1 409.63 773.7 641.74 773.7 641.74 407.1 628.74 407.1"/><rect class="cls-1" x="2412.53" y="338.84" width="120.28" height="478.74"/><rect class="cls-1" x="2432.18" y="304.6" width="80.98" height="201.26"/><rect class="cls-1" x="2450.34" y="282.86" width="44.96" height="111.65"/><polygon class="cls-1" points="2487.85 340.32 2457.48 340.32 2457.48 264.11 2468.5 264.11 2479.52 264.11 2487.85 264.11 2487.85 340.32"/><polygon class="cls-1" points="2470.58 306.98 2467.31 306.98 2467.31 231.06 2468.5 231.06 2469.69 231.06 2470.58 231.06 2470.58 306.98"/><polygon class="cls-1" points="2478.03 280.78 2474.75 280.78 2474.75 204.86 2475.94 204.86 2477.13 204.86 2478.03 204.86 2478.03 280.78"/><rect class="cls-1" x="2409.25" y="337.64" width="126.83" height="5.06"/><rect class="cls-1" x="2429.2" y="302.22" width="86.94" height="4.76"/><rect class="cls-1" x="2447.06" y="280.78" width="50.02" height="3.87"/><rect class="cls-2" x="2439.62" y="312.64" width="3.87" height="21.14"/><rect class="cls-2" x="2450.04" y="312.64" width="3.87" height="21.14"/><rect class="cls-2" x="2460.46" y="312.64" width="3.87" height="21.14"/><rect class="cls-2" x="2470.88" y="312.64" width="3.87" height="21.14"/><rect class="cls-2" x="2481.3" y="312.64" width="3.87" height="21.14"/><rect class="cls-2" x="2491.72" y="312.64" width="3.87" height="21.14"/><rect class="cls-2" x="2502.14" y="312.64" width="3.87" height="21.14"/><rect class="cls-1" x="2423.25" y="357.89" width="9.23" height="25.01"/><rect class="cls-2" x="2441.11" y="357.89" width="9.23" height="25.01"/><rect class="cls-1" x="2459.27" y="357.89" width="9.23" height="25.01"/><rect class="cls-1" x="2477.13" y="357.89" width="9.23" height="25.01"/><rect class="cls-1" x="2495.3" y="357.89" width="9.23" height="25.01"/><rect class="cls-1" x="2513.16" y="357.89" width="9.23" height="25.01"/><rect class="cls-1" x="2423.25" y="396.89" width="9.23" height="25.01"/><rect class="cls-1" x="2441.11" y="396.89" width="9.23" height="25.01"/><rect class="cls-1" x="2459.27" y="396.89" width="9.23" height="25.01"/><rect class="cls-2" x="2477.13" y="396.89" width="9.23" height="25.01"/><rect class="cls-1" x="2495.3" y="396.89" width="9.23" height="25.01"/><rect class="cls-1" x="2513.16" y="396.89" width="9.23" height="25.01"/><rect class="cls-1" x="2423.25" y="435.89" width="9.23" height="25.01"/><rect class="cls-1" x="2441.11" y="435.89" width="9.23" height="25.01"/><rect class="cls-1" x="2459.27" y="435.89" width="9.23" height="25.01"/><rect class="cls-1" x="2477.13" y="435.89" width="9.23" height="25.01"/><rect class="cls-2" x="2495.3" y="435.89" width="9.23" height="25.01"/><rect class="cls-2" x="2513.16" y="435.89" width="9.23" height="25.01"/><rect class="cls-2" x="2423.25" y="474.9" width="9.23" height="25.01"/><rect class="cls-1" x="2441.11" y="474.9" width="9.23" height="25.01"/><rect class="cls-1" x="2459.27" y="474.9" width="9.23" height="25.01"/><rect class="cls-1" x="2477.13" y="474.9" width="9.23" height="25.01"/><rect class="cls-1" x="2495.3" y="474.9" width="9.23" height="25.01"/><rect class="cls-1" x="2513.16" y="474.9" width="9.23" height="25.01"/><rect class="cls-1" x="2423.25" y="513.9" width="9.23" height="25.01"/><rect class="cls-2" x="2441.11" y="513.9" width="9.23" height="25.01"/><rect class="cls-1" x="2459.27" y="513.9" width="9.23" height="25.01"/><rect class="cls-2" x="2477.13" y="513.9" width="9.23" height="25.01"/><rect class="cls-1" x="2495.3" y="513.9" width="9.23" height="25.01"/><rect class="cls-1" x="2513.16" y="513.9" width="9.23" height="25.01"/><rect class="cls-1" x="2423.25" y="552.9" width="9.23" height="25.01"/><rect class="cls-1" x="2441.11" y="552.9" width="9.23" height="25.01"/><rect class="cls-1" x="2459.27" y="552.9" width="9.23" height="25.01"/><rect class="cls-1" x="2477.13" y="552.9" width="9.23" height="25.01"/><rect class="cls-1" x="2495.3" y="552.9" width="9.23" height="25.01"/><rect class="cls-2" x="2513.16" y="552.9" width="9.23" height="25.01"/><rect class="cls-1" x="2423.25" y="591.9" width="9.23" height="25.01"/><rect class="cls-2" x="2441.11" y="591.9" width="9.23" height="25.01"/><rect class="cls-2" x="2459.27" y="591.9" width="9.23" height="25.01"/><rect class="cls-1" x="2477.13" y="591.9" width="9.23" height="25.01"/><rect class="cls-1" x="2495.3" y="591.9" width="9.23" height="25.01"/><rect class="cls-1" x="2513.16" y="591.9" width="9.23" height="25.01"/><rect class="cls-1" x="2423.25" y="630.91" width="9.23" height="25.01"/><rect class="cls-1" x="2441.11" y="630.91" width="9.23" height="25.01"/><rect class="cls-1" x="2459.27" y="630.91" width="9.23" height="25.01"/><rect class="cls-1" x="2477.13" y="630.91" width="9.23" height="25.01"/><rect class="cls-2" x="2495.3" y="630.91" width="9.23" height="25.01"/><rect class="cls-1" x="2513.16" y="630.91" width="9.23" height="25.01"/><rect class="cls-1" x="2423.25" y="669.91" width="9.23" height="25.01"/><rect class="cls-2" x="2441.11" y="669.91" width="9.23" height="25.01"/><rect class="cls-1" x="2459.27" y="669.91" width="9.23" height="25.01"/><rect class="cls-1" x="2477.13" y="669.91" width="9.23" height="25.01"/><rect class="cls-1" x="2495.3" y="669.91" width="9.23" height="25.01"/><rect class="cls-1" x="2513.16" y="669.91" width="9.23" height="25.01"/><rect class="cls-1" x="2423.25" y="708.91" width="9.23" height="25.01"/><rect class="cls-1" x="2441.11" y="708.91" width="9.23" height="25.01"/><rect class="cls-1" x="2459.27" y="708.91" width="9.23" height="25.01"/><rect class="cls-2" x="2477.13" y="708.91" width="9.23" height="25.01"/><rect class="cls-1" x="2495.3" y="708.91" width="9.23" height="25.01"/><rect class="cls-2" x="2513.16" y="708.91" width="9.23" height="25.01"/><rect class="cls-2" x="2423.25" y="747.91" width="9.23" height="25.01"/><rect class="cls-1" x="2441.11" y="747.91" width="9.23" height="25.01"/><rect class="cls-2" x="2459.27" y="747.91" width="9.23" height="25.01"/><rect class="cls-1" x="2477.13" y="747.91" width="9.23" height="25.01"/><rect class="cls-1" x="2495.3" y="747.91" width="9.23" height="25.01"/><rect class="cls-1" x="2513.16" y="747.91" width="9.23" height="25.01"/><rect class="cls-1" x="2063.29" y="357" width="193.22" height="403.42"/><rect class="cls-1" x="2057.64" y="350.15" width="204.24" height="11.31"/><rect class="cls-1" x="2069.84" y="335.56" width="180.42" height="54.19"/><rect class="cls-1" x="2083.54" y="313.53" width="71.45" height="59.25"/><polygon class="cls-1" points="2124.92 330.2 2083.54 330.2 2083.54 298.94 2113.31 298.94 2124.92 330.2"/><rect class="cls-1" x="2100.21" y="273.04" width="3.87" height="69.37"/><circle class="cls-1" cx="2102.3" cy="269.47" r="3.57"/><polygon class="cls-1" points="2934.44 452.57 2934.44 254.28 2901.1 254.28 2901.1 201.29 2889.19 201.29 2889.19 123.28 2823.99 123.28 2823.99 66.12 2818.03 66.12 2818.03 123.28 2805.23 123.28 2805.23 51.53 2799.57 51.53 2799.57 123.28 2758.19 123.28 2758.19 254.28 2736.75 254.28 2736.75 452.57 2718.59 452.57 2718.59 813.71 2947.24 813.71 2947.24 452.57 2934.44 452.57"/><rect class="cls-3" y="816.63" width="2941.96" height="64.93"/><rect class="cls-3" x="275.46" y="403.23" width="132.49" height="427.29"/><rect class="cls-3" x="265.62" y="405.76" width="152.46" height="4.22"/><rect class="cls-3" x="269.56" y="465.68" width="144.02" height="4.22"/><rect class="cls-3" x="269.56" y="523.62" width="144.02" height="4.22"/><rect class="cls-3" x="269.56" y="581.85" width="144.02" height="4.22"/><rect class="cls-3" x="269.56" y="640.08" width="144.02" height="4.22"/><rect class="cls-3" x="269.56" y="698.03" width="144.02" height="4.22"/><rect class="cls-3" x="269.56" y="756.26" width="144.02" height="4.22"/><rect class="cls-3" x="260.55" y="393.94" width="162.31" height="11.82"/><rect class="cls-4" x="287.28" y="424.04" width="13.78" height="34.04"/><rect class="cls-3" x="318.22" y="424.04" width="13.78" height="34.04"/><rect class="cls-3" x="348.88" y="424.04" width="13.78" height="34.04"/><rect class="cls-3" x="379.82" y="424.04" width="13.78" height="34.04"/><rect class="cls-3" x="287.28" y="479.74" width="13.78" height="34.04"/><rect class="cls-4" x="318.22" y="479.74" width="13.78" height="34.04"/><rect class="cls-3" x="348.88" y="479.74" width="13.78" height="34.04"/><rect class="cls-3" x="379.82" y="479.74" width="13.78" height="34.04"/><rect class="cls-3" x="287.28" y="537.97" width="13.78" height="34.04"/><rect class="cls-3" x="318.22" y="537.97" width="13.78" height="34.04"/><rect class="cls-3" x="348.88" y="537.97" width="13.78" height="34.04"/><rect class="cls-4" x="379.82" y="537.97" width="13.78" height="34.04"/><rect class="cls-3" x="287.28" y="595.92" width="13.78" height="34.04"/><rect class="cls-4" x="318.22" y="595.92" width="13.78" height="34.04"/><rect class="cls-4" x="348.88" y="595.92" width="13.78" height="34.04"/><rect class="cls-3" x="379.82" y="595.92" width="13.78" height="34.04"/><rect class="cls-4" x="287.28" y="654.14" width="13.78" height="34.04"/><rect class="cls-3" x="318.22" y="654.14" width="13.78" height="34.04"/><rect class="cls-3" x="348.88" y="654.14" width="13.78" height="34.04"/><rect class="cls-3" x="379.82" y="654.14" width="13.78" height="34.04"/><rect class="cls-3" x="287.28" y="712.37" width="13.78" height="34.04"/><rect class="cls-3" x="318.22" y="712.37" width="13.78" height="34.04"/><rect class="cls-4" x="348.88" y="712.37" width="13.78" height="34.04"/><rect class="cls-3" x="379.82" y="712.37" width="13.78" height="34.04"/><rect class="cls-3" x="287.28" y="770.32" width="13.78" height="34.04"/><rect class="cls-4" x="318.22" y="770.32" width="13.78" height="34.04"/><rect class="cls-3" x="348.88" y="770.32" width="13.78" height="34.04"/><rect class="cls-4" x="379.82" y="770.32" width="13.78" height="34.04"/><rect class="cls-3" x="283.9" y="377.63" width="45.01" height="22.22"/><rect class="cls-3" x="280.81" y="376.78" width="51.2" height="3.66"/><rect class="cls-3" x="114.28" y="634.74" width="129.12" height="195.78"/><rect class="cls-3" x="73.77" y="758.23" width="147.12" height="72.01"/><rect class="cls-3" x="236.08" y="804.64" width="95.64" height="25.88"/><rect class="cls-3" x="383.76" y="758.23" width="155.56" height="72.01"/><rect class="cls-3" x="445.67" y="569.23" width="193.81" height="261.04"/><rect class="cls-3" x="440.71" y="559.35" width="210.13" height="10.13"/><rect class="cls-3" x="545.54" y="532.16" width="85.23" height="52.88"/><rect class="cls-3" x="503.57" y="532.24" width="14.35" height="32.07"/><rect class="cls-3" x="473.64" y="532.24" width="15.75" height="32.07"/><rect class="cls-3" x="772.71" y="449.09" width="153.31" height="381.16"/><rect class="cls-3" x="768.21" y="442.92" width="162.03" height="10.69"/><rect class="cls-3" x="777.78" y="429.04" width="142.9" height="51.2"/><rect class="cls-3" x="853.25" y="407.93" width="56.54" height="55.98"/><polygon class="cls-3" points="877.16 423.76 909.79 423.76 909.79 394.23 886.44 394.23 877.16 423.76"/><rect class="cls-3" x="893.51" y="370.03" width="3.09" height="65.54"/><ellipse class="cls-3" cx="895.16" cy="366.38" rx="2.81" ry="3.38"/><rect class="cls-3" x="905.01" y="672.99" width="68.64" height="157.25"/><rect class="cls-3" x="709.51" y="596.2" width="78.2" height="234.04"/><polygon class="cls-3" points="748.61 830.24 638.34 830.24 638.34 705.06 731.45 746.41 748.61 830.24"/><rect class="cls-3" x="951.14" y="762.44" width="168.5" height="68.07"/><rect class="cls-3" x="1057.19" y="559.07" width="97.89" height="271.45"/><rect class="cls-3" x="1132.02" y="779.6" width="162.03" height="50.63"/><rect class="cls-3" x="1052.13" y="554" width="107.17" height="9"/><rect class="cls-3" x="1139.89" y="515.75" width="2.25" height="54.57"/><rect class="cls-3" x="1125.55" y="522.78" width="2.25" height="43.88"/><polygon class="cls-3" points="1191.09 661.18 1147.49 661.18 1147.49 785.51 1209.93 785.51 1191.09 661.18"/><polygon class="cls-3" points="2349.97 435.11 2349.97 439.33 2345.75 439.33 2345.75 451.42 2419.73 451.42 2419.73 821.61 2298.49 821.61 2298.49 470.83 2298.49 451.42 2298.49 439.33 2293.99 439.33 2293.99 435.11 2349.97 435.11"/><rect class="cls-3" x="2556.72" y="603.32" width="103.8" height="218.29"/><rect class="cls-3" x="2104.11" y="553.25" width="84.39" height="268.36"/><rect class="cls-3" x="2171.62" y="609.23" width="91.98" height="212.38"/><rect class="cls-3" x="2134.49" y="542.56" width="37.41" height="32.07"/><rect class="cls-3" x="2178.09" y="605.85" width="98.17" height="7.88"/><rect class="cls-3" x="2253.76" y="700.37" width="103.24" height="121.24"/><rect class="cls-3" x="1920.43" y="601.64" width="83.83" height="219.98"/><rect class="cls-3" x="1847.57" y="711.34" width="110.27" height="110.27"/><rect class="cls-3" x="1726.05" y="693.34" width="68.92" height="128.27"/><rect class="cls-3" x="1781.75" y="781.38" width="163.15" height="40.23"/><rect class="cls-3" x="1663.6" y="768.44" width="83.55" height="53.17"/><rect class="cls-3" x="2004.25" y="740.6" width="129.96" height="81.29"/><rect class="cls-3" x="2385.69" y="786.73" width="202.53" height="34.88"/><rect class="cls-3" x="2744.63" y="786.73" width="202.53" height="34.88"/><polygon class="cls-3" points="2580.35 684.05 2503.28 684.05 2470.93 804.17 2580.35 804.17 2580.35 684.05"/><rect class="cls-3" x="2615.79" y="509.09" width="2.25" height="133.33"/><rect class="cls-3" x="2626.76" y="554.38" width="2.81" height="78.76"/><rect class="cls-3" x="2611.29" y="568.16" width="38.82" height="38.82"/><rect class="cls-3" x="2604.82" y="565.07" width="51.48" height="3.38"/><rect class="cls-3" x="2641.67" y="709.09" width="125.74" height="112.52"/><rect class="cls-3" x="2743.22" y="585.04" width="80.73" height="217.16"/><rect x="599.78" y="634.91" width="6.75" height="35.68" transform="translate(-284.91 617.68) rotate(-45)"/><path class="cls-5" d="M613,862.31h29.89V802l14.95-29.89s2.89,38.57,5.78,45.32,28,33.75,28,33.75l21.69-11.09-21.69-36.64L693.49,762H616.35Z"/><path class="cls-6" d="M721.45,850.74l-36.64,21.69s-10.61-8.67-1.45-15.91,29.89-16.87,29.89-16.87Z"/><path class="cls-6" d="M643.34,875.81l-42.42.48s-4.82-13,6.75-14.46,35.19,1,35.19,1Z"/><path class="cls-7" d="M605.74,674.28l10.61-8.2,13.49,10.61s6.75-52.07,43.88-52.07c0,0,10.12-1.45,14,32.3S694,762.51,694,762.51H616.83s7.71-56.41,10.12-60.75C628.88,696.46,605.74,674.28,605.74,674.28Z"/><path class="cls-8" d="M597.54,655c-3.85.49-4.82,3.38-2.89,8.2s8.2,9.64,8.2,9.64l13.5-6.75s-3.38-19.28-6.27-15.43.48,11.57-1,11.09C607.67,660.3,602.36,654,597.54,655Z"/><path class="cls-8" d="M649.61,633.78v-9.64s-11.09,4.34-11.57,0,3.86-10.61,0-10.61-7.23-.48-4.34-4.82,1.45-7.23,3.86-14,28.44,0,28.44,0l6.75,18.32,1,11.57Z"/><path d="M653,576.89s-24.59,8.67-20.73,14.94a14.1,14.1,0,0,0,10.12,6.75l30.86,19.29s9.64-22.18,0-32.31C664.08,575.44,653,576.89,653,576.89Z"/><rect x="2503.86" y="649.38" width="35.68" height="6.75" transform="translate(277.02 1974.3) rotate(-45)"/><path class="cls-9" d="M2499.63,862.31H2482V802l-14.94-29.89s-2.89,38.57-5.79,45.32-28,33.75-28,33.75l-10.4-5.32,10.4-42.41L2431.37,762h77.14Z"/><path class="cls-6" d="M2415.68,849.1l24.37,23.33s10.61-8.67,1.45-15.91a74.31,74.31,0,0,0-18.6-10.62Z"/><path class="cls-6" d="M2481.51,875.81l42.43.48s4.82-13-6.75-14.46-35.2,1-35.2,1Z"/><path class="cls-7" d="M2519.12,674.28l-10.61-8.2L2495,676.69s-6.75-52.07-43.87-52.07c0,0-10.13-1.45-14,32.3s-6.27,105.59-6.27,105.59H2508s-7.72-56.41-10.13-60.75C2496,696.46,2519.12,674.28,2519.12,674.28Z"/><path class="cls-8" d="M2527.31,655c3.86.49,4.83,3.38,2.9,8.2s-8.2,9.64-8.2,9.64l-13.5-6.75s3.38-19.28,6.27-15.43-.48,11.57,1,11.09C2517.19,660.3,2522.49,654,2527.31,655Z"/><path class="cls-8" d="M2475.24,633.78v-9.64s11,4.32,11.58,0c1.67-12,7.23-11.09,4.33-15.43s-1.44-7.23-3.85-14-28.45,0-28.45,0l-6.75,18.32-1,11.57Z"/><path class="cls-5" d="M846.71,812.82l13.52,19.75s55.62-32.75,61.34-40,16.11-11.44,14.55-18.71a74.69,74.69,0,0,1,0-16.12l8.32,18.2,2.6,80.57h28.07L967.31,713l-67,3.64s4.16,50.94-.52,56.14C895.58,778,846.71,812.82,846.71,812.82Z"/><path class="cls-10" d="M956.4,877.27h47.82s-6.24-10.91-14.55-10.91H978.23s2.08,5.2-8.84,5.2c-11.43.52-12.47,0-12.47,0v5.71Z"/><polygon class="cls-8" points="954.84 856.48 956.4 871.04 971.99 871.56 979.27 867.92 977.19 865.32 970.95 856.48 954.84 856.48"/><path class="cls-10" d="M831.12,828.93l28.59,38s4.68-11.44,0-18.2c-4.16-5.71-6.76-9.35-6.76-9.35s-2.6,4.68-9.88-4.16-7.27-9.88-7.27-9.88Z"/><polygon class="cls-8" points="846.71 815.41 836.32 825.29 845.15 838.29 851.91 841.93 853.47 838.81 856.07 828.41 846.71 815.41"/><path class="cls-11" d="M970.43,598.65s10.4,5.72,10.4,15.07-6.24,9.36-5.2,15.6,8.84,9.87,7.28,16.63-8.84,15.6-8.84,15.6L946,641.79l12.48-43.14Z"/><path class="cls-8" d="M958.48,620l-13-1-2.6-32.75,25-9.35c13,8.83,2.6,27,2.6,31.71s-11.95,0-11.95,0Z"/><path class="cls-8" d="M903.89,661.55l1.56,69.65s1,10.4,3.12,14.56c2.08,3.64,10.92,6.24,13.52,0s.52-15.6-5.2-17.68c-5.2-2.08,10.92-84.21,4.68-91.49-6.76-6.75-14-5.72-16.12-1.55C903.37,639.72,903.89,661.55,903.89,661.55Z"/><path class="cls-9" d="M967.83,713.53V670.38s8.32-10.39,7.8-21.83S958.48,620,958.48,620H930.41l-15.08,59.26-2.08,39Z"/><path class="cls-11" d="M944.44,571.1s17.68-4.68,22.87,1.56-13.51,15.59-16.63,25.47,4.68,13,0,16.63-14.56,11.44-14.56,17.16,8.84,19.23,6.24,23.39c-3.12,4.68-9.88,15.07-23.91,12s-20.27-16.63-19.23-25,10.39-7.8,10.91-16.63-6.24-12.48-.52-19.24c6.24-6.75,15.08-5.72,18.72-12.47C931.45,587.21,930.41,575.26,944.44,571.1Z"/><path d="M2463.25,585.67s17.67-4.67,22.87,1.56-13.52,15.6-16.64,25.47,4.68,13,0,16.64-14.55,11.44-14.55,17.15,8.84,19.24,6.24,23.39c-3.12,4.68-9.88,15.08-23.92,12s-20.27-16.64-19.23-25,10.4-7.8,10.92-16.64-6.24-12.47-.52-19.23c6.24-6.76,15.07-5.72,18.71-12.48C2450.25,601.79,2449.21,589.83,2463.25,585.67Z"/><path class="cls-5" d="M2770,656.3l16.1,28.89-26.52,25.57,16.57,10.9s36.47-32.68,36.47-35-19.89-48.31-30.31-62c-10.42-14.21-13.26-19.9-13.26-19.9s-54.94-9-63.46,6.63-10.9,124.56-10.9,124.56h10.42V722.13h45l9-10.89,26.53-25.58Z"/><polyline class="cls-10" points="2779.42 763.81 2818.26 778.49 2812.57 803.59 2706.48 783.7 2704.59 721.66 2780.84 719.29 2771.37 861.85 2744.37 861.85 2740.11 764.75"/><path class="cls-6" d="M2769,861.85v14.2s-42.15,4.27-43.1,4.27-4.73-7.11,4.74-9.48a25.6,25.6,0,0,0,14.21-9.47H2769Z"/><path class="cls-6" d="M2818.26,778.49l13.73,3.32s-4.74,42.15-5.21,43.09-8.05,3.32-8.05-6.63a23.19,23.19,0,0,0-5.68-15.62Z"/><polyline class="cls-12" points="2767.58 656.3 2784.16 686.61 2759.53 710.76"/><path class="cls-8" d="M2706,759.54c-1,2.37-12.79-.94-13.26-9a55.74,55.74,0,0,1,1.42-15.63h10.42s2.37,12.79,1.42,13.73-4.74-7.1-4.74-6.15S2707,757.18,2706,759.54Z"/><path class="cls-8" d="M2774.21,720.24s-6.16,13.26-8.53,13.73-14.68-8.52-14.68-8.52l9.48-14.21Z"/><path class="cls-8" d="M2720.22,600.41l1.89-8.52s-10.42,1.89-10.42-2.37c.48-3.79,5.21-8.52,1.9-9.47-3.32-.48-6.16-1.9-2.84-5.21s2.36-6.16,5.68-11.84,25.1,5.21,25.1,5.21l2.37,17,1.42,15.16Z"/><path d="M2745.79,553.52l-18.47,1s-6.63-5.68-9.94-3.79-10,10.9-3.32,14.21c6.63,2.84,23.21,7.58,24.63,12.32s6.16,15.15,6.16,15.15,13.26-8.52,11.36-24.15S2745.79,553.52,2745.79,553.52Z"/><path class="cls-7" d="M2094.53,781l12,31.9s13.6,13.6,12,0l-1.05-13.59,7.32-4.71-15.16-20.92Z"/><path class="cls-7" d="M2105.51,785.67,2128,811.29s17.26,7.85,11.51-4.18l-5.75-12,5.23-7.32-21.45-14.12Z"/><path class="cls-8" d="M2112.31,777.82l18.83-18.31,36.61-10.46s17.79-1.56,17.79,3.67-64.86,36.61-64.86,36.61Z"/><path class="cls-10" d="M2130.09,635.56s7.33,8.37,11.51,8.37,12.55-3.14,16.21-4.19c3.67-.52,14.13,21.45,14.13,21.45s-5.23,49.69,4.18,59.1,27.72,13.6,9.94,21.44c-17.78,7.33-53.87,19.36-73.23,16.74s-19.87,1-19.87-7.84-1.57-54.4,11.51-74.28C2116.5,656,2130.09,635.56,2130.09,635.56Z"/><path class="cls-8" d="M2139.51,656c3.14-1.56,11.51,7.85,12.55,14.65,1.57,6.8,2.09,19.35,8.89,24.06s16.22,11.51,18.31,12.55,10.46,9.94,3.66,11.51c-6.8,1-11.51-9.94-15.17-8.89-3.14,1-1,6.27-5.23,6.27-4.71,0,0-6.27-4.71-8.37s-26.67-8.36-26.67-20.39C2131.14,675.83,2127,662.23,2139.51,656Z"/><path class="cls-8" d="M2171.41,661.18s5.23,23.54,13.6,26.68,25.63,15.17,22.49,20.92-16.21-9.94-17.78-8.37-3.66,5.23-4.71,4.19c-1.57-1.57,5.23-7.85,1-8.9-4.19-.52-15.69-8.37-15.69-8.37Z"/><polygon class="cls-6" points="2097.67 758.47 2049.02 818.62 2058.44 822.28 2103.42 803.97 2096.62 790.38 2072.04 807.11 2112.31 758.47 2097.67 758.47"/><polygon class="cls-6" points="2138.46 790.38 2199.14 760.56 2219.01 830.65 2229.99 826.46 2198.61 709.83 2193.38 703.55 2156.25 718.72 2149.45 745.39 2155.2 746.44 2160.95 723.42 2189.2 714.53 2193.38 742.25 2176.12 739.12 2168.28 749.05 2132.19 782.01 2138.46 790.38"/><path d="M2056.87,877.2a63.16,63.16,0,0,1-26.94-120.35,64.93,64.93,0,0,1,26.94-6.23,63.29,63.29,0,0,1,0,126.58Zm0-105.65a43.84,43.84,0,0,0-18.11,4.26,42,42,0,1,0,18.11-4.26Z"/><rect x="2054.78" y="760.8" width="5.23" height="105.7" transform="matrix(0.95, -0.33, 0.33, 0.95, -152.92, 716.57)"/><rect x="2001.92" y="812.87" width="108.85" height="5.23" transform="translate(596.42 2477.46) rotate(-70.33)"/><rect x="2054.25" y="761.06" width="5.23" height="106.74" transform="translate(468.02 2353.77) rotate(-65.69)"/><rect x="2002.55" y="808.42" width="105.49" height="5.23" transform="translate(-144.85 1014.39) rotate(-26.82)"/><path d="M2221.62,889.75a63.16,63.16,0,0,1-26.94-120.35,65,65,0,0,1,26.94-6.22,63.29,63.29,0,1,1,0,126.57Zm0-105.65a43.69,43.69,0,0,0-18.1,4.27,42,42,0,1,0,18.1-4.27Z"/><rect x="2219.53" y="773.35" width="5.23" height="105.7" transform="translate(-147.98 771.07) rotate(-19.06)"/><rect x="2167.2" y="825.42" width="108.86" height="5.23" transform="translate(694.26 2641.43) rotate(-70.33)"/><rect x="2219.01" y="773.46" width="5.23" height="106.53" transform="translate(561.34 2518.63) rotate(-65.95)"/><rect x="2167.31" y="820.97" width="105.49" height="5.23" transform="translate(-132.8 1090.06) rotate(-26.82)"/><path class="cls-8" d="M2130.62,633.47s2.61-7.85,5.23-8.9,10.46-9.93,10.46-11c0-1.57,17.78-8.89,22.49-2.09,1.57,2.09,1,4.7,1.57,6.27.52,2.1,1.57,3.14,1.57,3.67,0,1-4.19.52-4.19.52s4.19,8.37,1.05,8.89c-1.57.53-13.08,0-13.08,0l1.57,8.9-20.92,12-7.32-18.83"/><path d="M2133.23,627.71a21.43,21.43,0,0,1-4.18-16.21c1.57-9.42,5.75-16.74,9.94-17.26s25.62-5.23,29.81,6.28.52,10.46.52,10.46Z"/><path d="M2083,647.06c-8.89,0-15.17-7.32-15.17-12s7.33-2.61,7.33-7.84c.52-4.71-2.1-7.85,2.61-13.08,4.19-5.23,13.08-1.05,14.65-3.14,1-2.09-1.57-9.93,3.66-13.07s11-.53,13.07,0,.53-9.94,7.33-11,16.73,0,18.3,2.62,6.8,3.66,6.8,3.66l-20.92,2.09s5.75,13.08-.52,16.22-15.17-1.57-15.17,4.7c-.52,6.28,2.09,17.26-3.66,22.49C2095.57,645.49,2083,647.06,2083,647.06Z"/><path class="cls-11" d="M415.39,858.67l4.79,13.86s42.62-9.59,43.68-10.13c1.07-.26,2.4-8.52-7.72-7.45a24.47,24.47,0,0,1-16.78-4.26Z"/><path class="cls-11" d="M379.69,852.81l-1.59,17.58s43.68,2.4,44.74,2.4,4.53-7.46-5.32-9.32a24,24,0,0,1-14.92-8.79Z"/><path class="cls-8" d="M344.54,681.82,321.63,669s12.79-18.38,16.25-18.38,7.72,7.72,13.32,0S368,643.47,369.57,644s.8,6.66,2.4,8.79,3.46,4.26,3.2,5.59c-.8,3.46-5.6,1.6-6.66,1.87-1.07,0,.26,13.31-3.73,12.78s-13.85-3.46-15.18-1.06S344.54,681.82,344.54,681.82Z"/><path d="M369.31,644.26s9.85-10.12,5.59-18.11-3.46,1.87-4.26,2.13-36-.53-39.15,1.87-8,13.32-7.73,17,1.07,17,1.07,17l13.58,1.87Z"/><path class="cls-9" d="M344.54,681.82,368,764.39s-11.72,20.77-28.77,27.43-34.63,13.32-35.69,13-15.18-85.5-4.79-107.87,22.9-27.7,22.9-27.7Z"/><path class="cls-8" d="M331.49,725.77l-24.24,6.39s6.66,33.29,12,33.29S376,760.92,376,760.92s9.58-.26,11.72-.79,4.52,3.19,8.52,5.06,8.26-.27,5.59-4-13.05-8.79-13.05-8.79L339.48,750Z"/><polygon class="cls-10" points="441.49 849.09 414.05 858.94 394.61 806.2 307.25 804.61 367.18 761.99 419.38 769.72 441.49 849.09"/><polygon class="cls-10" points="377.56 852.55 385.82 804.61 409.79 810.47 406.86 854.95 377.56 852.55"/><polygon points="435.63 725.77 431.1 725.77 419.38 769.72 376.23 756.93 375.17 762.79 422.58 776.11 435.63 725.77"/><rect x="297.39" y="805.67" width="66.05" height="66.85"/><path d="M1094,518.62a65.24,65.24,0,0,0-65.27,65.28,66.49,66.49,0,0,0,8.58,32.44l-10.68,32.07a2.62,2.62,0,0,0,.57,2.29,2.35,2.35,0,0,0,1.53.76h.57l35.12-9.16a66.17,66.17,0,0,0,29.58,7.06,65.37,65.37,0,0,0,0-130.74Zm40.84,95-3.82,3.82c-5,5-10.3,7.44-16.22,7.44h0c-8,0-16.41-4.58-25.38-13.55l-22.52-22.52c-7.07-7.06-11.45-13.93-12.79-20.42-1.91-7.83.38-15.08,6.87-21.38l3.82-3.82a8.69,8.69,0,0,1,9.73-1.52c5.92,3,12,13.36,12.6,14.5a9.6,9.6,0,0,1,1.14,6.3,5.39,5.39,0,0,1-2.67,3.44c-1.72,1.52-3.82,3.43-4.2,3.81-2.29,3.25-1.91,5.92,1,8.78l17.55,17.56c2.87,2.86,5.35,3.25,8.78,1,.39-.39,2.29-2.49,3.82-4.2a5.63,5.63,0,0,1,5.15-2.87,7.44,7.44,0,0,1,4.39,1.34c1.15.76,11.46,6.87,14.51,12.6A9.17,9.17,0,0,1,1134.87,613.67Z"/><path d="M646.5,495.23v40.65s-7.44-10.69-15.84-14.88c-13.17-6.87-40.27-5.54-40.27-5.54Z"/><path d="M641.35,429.38H492.29a5.14,5.14,0,0,0-5.15,5.16v75.77a5.13,5.13,0,0,0,5.15,5.15H641.35a5.13,5.13,0,0,0,5.15-5.15V434.54A5.14,5.14,0,0,0,641.35,429.38Zm-101,52.87a11,11,0,0,1-2.87,3.06,13.81,13.81,0,0,1-4.2,1.71,20.31,20.31,0,0,1-5,.58,27.83,27.83,0,0,1-7.82-1.15,25.16,25.16,0,0,1-6.87-3.05l3.24-6.11a20.49,20.49,0,0,0,1.72,1.34c.76.38,1.72.95,2.67,1.33a14.9,14.9,0,0,0,3.44,1,25.88,25.88,0,0,0,3.81.38c3.63,0,5.35-1,5.35-2.86a2.13,2.13,0,0,0-.58-1.53,5.43,5.43,0,0,0-1.52-1.15,17.15,17.15,0,0,0-2.48-.95c-1-.19-2.1-.57-3.44-1-1.91-.57-3.62-1-5-1.52a14.76,14.76,0,0,1-3.44-1.91,5.82,5.82,0,0,1-1.9-2.48,8.78,8.78,0,0,1-.58-3.25,10.53,10.53,0,0,1,1-4.39,8.65,8.65,0,0,1,2.67-3.24,13,13,0,0,1,4-1.91,20.82,20.82,0,0,1,5-.57,20,20,0,0,1,6.87,1.14,23.64,23.64,0,0,1,5.34,2.48l-2.67,5.54a14.34,14.34,0,0,0-1.33-1,7.2,7.2,0,0,0-2.1-.95,10.44,10.44,0,0,0-2.87-.76,16.84,16.84,0,0,0-3.24-.38,7.18,7.18,0,0,0-3.82.76,2.49,2.49,0,0,0-1.33,2.29,2.2,2.2,0,0,0,.57,1.53,10.14,10.14,0,0,0,1.53,1.14,9.37,9.37,0,0,0,2.48.76c1,.2,2.1.58,3.24.77a26,26,0,0,1,4.58,1.33,22.68,22.68,0,0,1,3.63,1.91,7.31,7.31,0,0,1,3,6.49A8.15,8.15,0,0,1,540.39,482.25Zm43.32,5h-7.06V467l-9.35,14.89h-3.82L554.32,467v20.23h-7.06V454.77h7.63l10.69,17.56,10.69-17.56h7.44Zm31.87-5a10.84,10.84,0,0,1-2.86,3.06,13.81,13.81,0,0,1-4.2,1.71,20.31,20.31,0,0,1-5,.58,28,28,0,0,1-7.83-1.15,25.16,25.16,0,0,1-6.87-3.05l3.25-6.11a18.94,18.94,0,0,0,1.72,1.34c.76.38,1.71.95,2.67,1.33a14.81,14.81,0,0,0,3.43,1,26.15,26.15,0,0,0,3.82.38c3.63,0,5.34-1,5.34-2.86a2.16,2.16,0,0,0-.57-1.53,5.43,5.43,0,0,0-1.52-1.15,17.33,17.33,0,0,0-2.49-.95c-1-.19-2.09-.57-3.43-1-1.91-.57-3.63-1-5-1.52a14.76,14.76,0,0,1-3.44-1.91,5.85,5.85,0,0,1-1.91-2.48,9,9,0,0,1-.57-3.25,10.69,10.69,0,0,1,.95-4.39,8.78,8.78,0,0,1,2.68-3.24,13,13,0,0,1,4-1.91,21,21,0,0,1,5-.57,20,20,0,0,1,6.87,1.14A23.64,23.64,0,0,1,615,458.2l-2.67,5.54a13.5,13.5,0,0,0-1.34-1,7,7,0,0,0-2.1-.95,10.27,10.27,0,0,0-2.86-.76,16.84,16.84,0,0,0-3.24-.38,7.16,7.16,0,0,0-3.82.76,2.5,2.5,0,0,0-1.34,2.29,2.16,2.16,0,0,0,.58,1.53,10.54,10.54,0,0,0,1.52,1.14,9.6,9.6,0,0,0,2.48.76c1,.2,2.1.58,3.25.77a26.28,26.28,0,0,1,4.58,1.33,23.11,23.11,0,0,1,3.63,1.91,7.31,7.31,0,0,1,3.05,6.49A8.07,8.07,0,0,1,615.58,482.25Z"/><path d="M2436.68,533.36V574s-7.44-10.69-15.84-14.88c-13.17-6.88-40.27-5.54-40.27-5.54Z"/><path d="M2431.53,467.51H2282.47a5.13,5.13,0,0,0-5.15,5.16v75.77a5.13,5.13,0,0,0,5.15,5.15h149.06a5.13,5.13,0,0,0,5.15-5.15V472.67A5.13,5.13,0,0,0,2431.53,467.51Zm-101,52.87a11,11,0,0,1-2.87,3.06,13.81,13.81,0,0,1-4.2,1.71,20.81,20.81,0,0,1-5,.58,27.83,27.83,0,0,1-7.82-1.15,25.16,25.16,0,0,1-6.87-3.05l3.24-6.11a20.49,20.49,0,0,0,1.72,1.34c.76.38,1.72,1,2.67,1.33a14.9,14.9,0,0,0,3.44,1,25.88,25.88,0,0,0,3.81.38c3.63,0,5.35-1,5.35-2.87a2.12,2.12,0,0,0-.58-1.52,5.25,5.25,0,0,0-1.52-1.15,17.15,17.15,0,0,0-2.48-.95c-1-.19-2.1-.57-3.44-1-1.91-.57-3.62-1-5-1.52a15.13,15.13,0,0,1-3.44-1.91,5.82,5.82,0,0,1-1.9-2.48,8.78,8.78,0,0,1-.58-3.25,10.53,10.53,0,0,1,1-4.39,8.65,8.65,0,0,1,2.67-3.24,13,13,0,0,1,4-1.91,20.82,20.82,0,0,1,5-.57,20,20,0,0,1,6.87,1.14,23.64,23.64,0,0,1,5.34,2.48l-2.67,5.54a14.34,14.34,0,0,0-1.33-1,7.2,7.2,0,0,0-2.1-1,10.44,10.44,0,0,0-2.87-.76,16.81,16.81,0,0,0-3.24-.39,7.17,7.17,0,0,0-3.82.77,2.49,2.49,0,0,0-1.33,2.29,2.2,2.2,0,0,0,.57,1.53,10.54,10.54,0,0,0,1.52,1.14,9.56,9.56,0,0,0,2.49.76c.95.19,2.1.58,3.24.77a26,26,0,0,1,4.58,1.33,22.68,22.68,0,0,1,3.63,1.91,7.31,7.31,0,0,1,3.05,6.49A8.15,8.15,0,0,1,2330.57,520.38Zm43.32,5h-7.06V505.11L2357.48,520h-3.82l-9.16-14.89v20.23h-7.06V492.9h7.63l10.69,17.56,10.69-17.56h7.44Zm31.87-5a10.84,10.84,0,0,1-2.86,3.06,13.81,13.81,0,0,1-4.2,1.71,20.81,20.81,0,0,1-5,.58,28,28,0,0,1-7.83-1.15,25.16,25.16,0,0,1-6.87-3.05l3.25-6.11a18.94,18.94,0,0,0,1.72,1.34c.76.38,1.71,1,2.67,1.33a14.81,14.81,0,0,0,3.43,1,26,26,0,0,0,3.82.38c3.63,0,5.34-1,5.34-2.87a2.16,2.16,0,0,0-.57-1.52,5.25,5.25,0,0,0-1.52-1.15,17.33,17.33,0,0,0-2.49-.95c-1-.19-2.1-.57-3.43-1-1.91-.57-3.63-1-5-1.52a15.13,15.13,0,0,1-3.44-1.91,5.85,5.85,0,0,1-1.91-2.48,9,9,0,0,1-.57-3.25,10.69,10.69,0,0,1,.95-4.39,8.78,8.78,0,0,1,2.68-3.24,13,13,0,0,1,4-1.91,21,21,0,0,1,5-.57,20,20,0,0,1,6.87,1.14,23.64,23.64,0,0,1,5.34,2.48l-2.67,5.54a13.5,13.5,0,0,0-1.34-1,7,7,0,0,0-2.1-1,10.27,10.27,0,0,0-2.86-.76,16.81,16.81,0,0,0-3.24-.39,7.15,7.15,0,0,0-3.82.77,2.48,2.48,0,0,0-1.34,2.29,2.16,2.16,0,0,0,.58,1.53,10.54,10.54,0,0,0,1.52,1.14,9.6,9.6,0,0,0,2.48.76c1,.19,2.1.58,3.25.77a26.28,26.28,0,0,1,4.58,1.33,23.11,23.11,0,0,1,3.63,1.91,7.31,7.31,0,0,1,3,6.49A8.07,8.07,0,0,1,2405.76,520.38Z"/><path d="M283,589.41v40.66s7.45-10.69,15.84-14.89c13.17-6.87,40.27-5.54,40.27-5.54Z"/><path d="M352.5,571.74a4.39,4.39,0,1,0,4.39,4.39A4.38,4.38,0,0,0,352.5,571.74Z"/><path d="M372.83,571.74a4.39,4.39,0,1,0,4.39,4.39A4.38,4.38,0,0,0,372.83,571.74Z"/><path d="M437.19,524.32h-149a5.13,5.13,0,0,0-5.16,5.15v75.77a5.14,5.14,0,0,0,5.16,5.16H437.19a5.14,5.14,0,0,0,5.16-5.16V529.47A5.13,5.13,0,0,0,437.19,524.32Zm-51.25,47.42-.07,8.71v2.91a8.74,8.74,0,0,1-8.71,8.71H348.11a8.74,8.74,0,0,1-8.72-8.71V568.83a8.74,8.74,0,0,1,8.72-8.71h11.62V553.5a5.69,5.69,0,0,1-2.1-2.09,5.83,5.83,0,1,1,8,2.09v6.62h11.62a8.74,8.74,0,0,1,8.72,8.71Z"/><path d="M2740.2,477.08v40.65s-7.44-10.69-15.84-14.89c-13.17-6.87-40.27-5.53-40.27-5.53Z"/><path d="M2670.69,459.4a4.39,4.39,0,1,1-4.39,4.39A4.38,4.38,0,0,1,2670.69,459.4Z"/><path d="M2650.35,459.4a4.39,4.39,0,1,1-4.39,4.39A4.38,4.38,0,0,1,2650.35,459.4Z"/><path d="M2580.84,417.14v75.77a5.13,5.13,0,0,0,5.15,5.15h149.06a5.13,5.13,0,0,0,5.15-5.15V417.14a5.13,5.13,0,0,0-5.15-5.16H2586A5.13,5.13,0,0,0,2580.84,417.14Zm56.41,39.36a8.74,8.74,0,0,1,8.71-8.72h11.62v-6.62a5.83,5.83,0,1,1,8-2.09,5.59,5.59,0,0,1-2.09,2.09v6.62h11.62a8.74,8.74,0,0,1,8.71,8.72V471a8.74,8.74,0,0,1-8.71,8.72h-29a8.73,8.73,0,0,1-8.71-8.72v-2.9l-.07-8.72Z"/></g></g>
</svg>