<?xml version="1.0" encoding="utf-8"?>
<!-- Generator: Adobe Illustrator 19.0.0, SVG Export Plug-In . SVG Version: 6.00 Build 0)  -->
<svg version="1.1" id="Layer_1" xmlns="http://www.w3.org/2000/svg" xmlns:xlink="http://www.w3.org/1999/xlink" x="0px" y="0px"
	 viewBox="-624 1089.2 167.6 90.5" style="enable-background:new -624 1089.2 167.6 90.5;" xml:space="preserve">
<style type="text/css">
	.st0{fill:#FFFFFF;stroke:#FFFFFF;stroke-miterlimit:10;}
</style>
<title>Recurso 15svg</title>
<g id="Capa_2">
	<g id="Layer_1_1_">
		<path class="st0" d="M-461.8,1089.2h-156.8c-3,0-5.4,2.4-5.4,5.4c0,0,0,0,0,0v79.7c0,3,2.4,5.4,5.4,5.4c0,0,0,0,0,0h156.8
			c3,0,5.4-2.4,5.4-5.4c0,0,0,0,0,0v-79.7C-456.4,1091.6-458.8,1089.2-461.8,1089.2C-461.8,1089.2-461.8,1089.2-461.8,1089.2z
			 M-568,1144.8c-0.8,1.3-1.8,2.3-3,3.2c-1.4,0.8-2.9,1.4-4.4,1.8c-1.7,0.4-3.5,0.6-5.2,0.6c-2.8,0-5.6-0.4-8.2-1.2
			c-2.6-0.7-5-1.8-7.2-3.2l3.4-6.4c0.6,0.5,1.2,1,1.8,1.4c0.8,0.4,1.8,1,2.8,1.4c1.2,0.5,2.4,0.8,3.6,1c1.3,0.2,2.7,0.4,4,0.4
			c3.8,0,5.6-1,5.6-3c0-0.6-0.2-1.2-0.6-1.6c-0.4-0.5-1-0.9-1.6-1.2c-0.8-0.4-1.7-0.7-2.6-1c-1-0.2-2.2-0.6-3.6-1
			c-2-0.6-3.8-1-5.2-1.6c-1.3-0.5-2.5-1.2-3.6-2c-0.9-0.7-1.6-1.6-2-2.6c-0.4-1.1-0.6-2.2-0.6-3.4c0-1.6,0.3-3.2,1-4.6
			c0.6-1.3,1.6-2.5,2.8-3.4c1.3-0.9,2.7-1.6,4.2-2c1.7-0.4,3.5-0.6,5.2-0.6c2.5,0,4.9,0.4,7.2,1.2c2,0.6,3.9,1.5,5.6,2.6l-2.8,5.8
			c-0.4-0.4-0.9-0.7-1.4-1c-0.7-0.5-1.4-0.8-2.2-1c-1-0.4-2-0.7-3-0.8c-1.1-0.2-2.3-0.4-3.4-0.4c-1.4-0.1-2.8,0.2-4,0.8
			c-0.9,0.5-1.4,1.4-1.4,2.4c0,0.6,0.2,1.2,0.6,1.6c0.5,0.4,1,0.9,1.6,1.2c0.8,0.4,1.7,0.7,2.6,0.8c1,0.2,2.2,0.6,3.4,0.8
			c1.6,0.3,3.2,0.8,4.8,1.4c1.3,0.5,2.6,1.2,3.8,2c2.2,1.6,3.4,4.1,3.2,6.8C-566.7,1141.7-567.1,1143.4-568,1144.8z M-522.5,1150
			h-7.4v-21.3l-9.8,15.7h-4l-9.6-15.7v21.3h-7.4v-34.1h8l11.3,18.5l11.2-18.5h7.8V1150z M-488.9,1144.8c-0.8,1.3-1.8,2.4-3,3.2
			c-1.4,0.8-2.9,1.4-4.4,1.8c-1.7,0.4-3.5,0.6-5.2,0.6c-2.8,0-5.6-0.4-8.2-1.2c-2.5-0.7-5-1.8-7.2-3.2l3.4-6.4
			c0.6,0.5,1.2,1,1.8,1.4c0.8,0.4,1.8,1,2.8,1.4c1.2,0.5,2.4,0.8,3.6,1c1.3,0.2,2.7,0.4,4,0.4c3.8,0,5.6-1,5.6-3
			c0-0.6-0.2-1.2-0.6-1.6c-0.5-0.5-1-0.9-1.6-1.2c-0.8-0.4-1.7-0.7-2.6-1c-1-0.2-2.2-0.6-3.6-1c-2-0.6-3.8-1-5.2-1.6
			c-1.3-0.5-2.5-1.2-3.6-2c-0.9-0.7-1.6-1.6-2-2.6c-0.4-1.1-0.6-2.2-0.6-3.4c0-1.6,0.3-3.2,1-4.6c0.6-1.3,1.6-2.5,2.8-3.4
			c1.3-0.9,2.7-1.6,4.2-2c1.7-0.4,3.5-0.6,5.2-0.6c2.5,0,4.9,0.4,7.2,1.2c2,0.6,3.9,1.5,5.6,2.6l-2.8,5.8c-0.4-0.4-0.9-0.7-1.4-1
			c-0.7-0.4-1.4-0.8-2.2-1c-1-0.4-2-0.7-3-0.8c-1.1-0.2-2.3-0.4-3.4-0.4c-1.4-0.1-2.8,0.2-4,0.8c-0.9,0.5-1.4,1.4-1.4,2.4
			c0,0.6,0.2,1.2,0.6,1.6c0.5,0.4,1,0.9,1.6,1.2c0.8,0.4,1.7,0.7,2.6,0.8c1,0.2,2.2,0.6,3.4,0.8c1.6,0.3,3.2,0.8,4.8,1.4
			c1.3,0.5,2.6,1.2,3.8,2c2.2,1.6,3.4,4.2,3.2,6.8C-487.6,1141.7-488.1,1143.4-488.9,1144.8z"/>
	</g>
</g>
</svg>
