<svg fill="#9B9B9B" xmlns="http://www.w3.org/2000/svg" viewBox="0 0 146.68 146.68"><title>Recurso 9svg</title><g id="Capa_2" data-name="Capa 2"><g id="Layer_1" data-name="Layer 1"><path d="M73.34,0a73.34,73.34,0,1,0,73.34,73.34A73.31,73.31,0,0,0,73.34,0ZM89.15,106.55a30.6,30.6,0,0,1-9.29,4.15v4.94c0,3.56-3.36,6.13-7.91,6.13s-7.9-2.77-7.9-6.13V110.7c-6.72-1.58-11.67-4.75-15.22-9.49-2.18-3-.79-6.52,3-8.5,3.76-1.58,8.5-.59,10.68,2.37A10.28,10.28,0,0,0,70,99.23a11.74,11.74,0,0,0,8.7-2,7.65,7.65,0,0,0,3.95-6.53,8.13,8.13,0,0,0-4.15-6.52L58.12,71c-5.93-3.76-9.49-9.49-9.49-15.42-.2-6.13,3.16-11.67,8.89-15.62a24.06,24.06,0,0,1,8.9-4V31c0-3.56,3.36-6.13,7.91-6.13,4.35,0,7.9,2.76,7.9,6.13v5.13c5.93,1.39,11.27,4.55,14.24,9.1,2.37,3,1,6.52-2.77,8.5A9.31,9.31,0,0,1,83,51.4a9.49,9.49,0,0,0-6.91-4,11.89,11.89,0,0,0-8.31,1.78c-2.37,1.58-3.56,3.76-3.36,6.13,0,2.37,1.19,4.35,3.56,6.13L88.56,74.72c5.93,4,9.69,9.69,9.69,15.82C98.44,96.86,95.08,102.59,89.15,106.55Z"/></g></g></svg>